<svg xmlns="http://www.w3.org/2000/svg" width="415.284" height="56.23" viewBox="42.951 26.681 415.284 56.23"><g data-name="Gruppe 998"><g data-name="Gruppe 995"><g data-name="Gruppe 994" transform="translate(43 57)" clip-path="url(&quot;#a&quot;)"><path d="M84.561 8.908V5.155h-1.229v-.001a4.584 4.584 0 0 0-4.579 4.584V16.173a5.985 5.985 0 0 1-5.976 5.985 5.985 5.985 0 0 1-5.977-5.985v-3.217h-.006V9.738a4.585 4.585 0 0 0-9.17 0V16.173a5.984 5.984 0 0 1-5.975 5.985 5.985 5.985 0 0 1-5.977-5.985v-3.217h-.006V9.738c0-2.53-2.049-4.58-4.577-4.584v.001H-.049v3.753h6.74v2.075H3.68c-2.02.108-3.594 1.737-3.726 3.752h39.878c-.038-1.5-.988-2.831-2.371-3.421a3.355 3.355 0 0 0-1.469-.331H33.1V8.908h7.99v.005c.454.003.82.371.82.825v3.218h-.002v3.214c0 5.362 4.361 9.741 9.742 9.741 5.38 0 9.741-4.379 9.741-9.74v-3.215h-.005V9.738a.826.826 0 0 1 1.652 0v3.218h-.002v3.214c0 5.362 4.361 9.741 9.742 9.741 5.38 0 9.743-4.379 9.743-9.74v-3.215h-.007V9.738c0-.454.366-.82.82-.825v-.005h1.228Zm-53.458 0v2.075H8.687V8.908h22.416Zm52.23-5.155h1.228V0h-1.229c-5.374.008-9.73 4.383-9.73 9.742v3.214h.006v3.217a.825.825 0 1 1-1.652 0v-3.217h.003V9.742C71.96 4.379 67.597 0 62.216 0c-5.38 0-9.742 4.379-9.742 9.742v3.214h.006v3.217a.826.826 0 1 1-1.652 0l.001-.003v-3.214h.002V9.742C50.83 4.379 46.469 0 41.089 0H-.049v3.753H41.09a5.985 5.985 0 0 1 5.977 5.986v3.217h.006v3.217a4.584 4.584 0 1 0 9.169 0V9.739a5.984 5.984 0 0 1 5.975-5.985 5.985 5.985 0 0 1 5.978 5.985v3.217h.005v3.217a4.585 4.585 0 0 0 9.17 0V9.739a5.984 5.984 0 0 1 5.963-5.985v-.001ZM7.16 16.135H-.05v4.1H7.16v-4.1Zm.96 4.1h7.209v-4.1h-7.21v4.1Zm8.167 0h7.21v-4.1h-7.21v4.1Zm8.169 0h7.21v-4.1h-7.21v4.1Zm8.168 0h7.21v-4.1h-7.21v4.1Zm7.21 1.396H-.05v.07c.113 2.033 1.751 3.628 3.841 3.682h32.254a3.36 3.36 0 0 0 1.469-.33c1.437-.646 2.334-1.975 2.318-3.422" fill="#fff" fill-rule="evenodd" data-name="Pfad 874"/></g></g><path d="M145.384 71.936c-.412-1.17-1.128-1.735-2.212-1.735-.998 0-1.779.694-1.779 1.562 0 .499.282.954.76 1.215.411.217.411.217 2.211.845 1.259.412 2.192.89 2.777 1.367.803.65 1.28 1.778 1.28 2.972 0 1.474-.651 2.798-1.822 3.665-.998.759-2.213 1.084-3.948 1.084-1.648 0-2.82-.303-3.86-.997-.89-.586-1.28-1.085-1.78-2.256l3.102-1.28c.5 1.258 1.345 1.866 2.603 1.866 1.171 0 1.93-.63 1.93-1.584 0-.628-.26-1.02-.867-1.366-.477-.282-.477-.282-2.039-.76-1.04-.325-2.277-1.062-2.884-1.735-.608-.65-.999-1.735-.999-2.689 0-1.193.543-2.343 1.432-3.124.933-.802 2.256-1.214 3.948-1.214 2.711 0 4.25.846 5.032 2.776l-2.885 1.388Z" fill="#fff" fill-rule="evenodd" data-name="Pfad 875"/><path d="M166.788 82.586h-3.362v-9.262l-3.665 9.262h-2.625l-3.709-9.262v9.262h-3.362V68.12h4.403l3.97 9.218 4.034-9.218h4.316v14.467Z" fill="#fff" fill-rule="evenodd" data-name="Pfad 876"/><path d="M182.545 82.586h-3.622l-1.041-3.08h-5.097l-1.106 3.08h-3.341l5.423-14.467h3.839l4.945 14.467Zm-7.05-10.65-1.865 5.141h3.558l-1.692-5.14Z" fill="#fff" fill-rule="evenodd" data-name="Pfad 877"/><path d="M184.128 68.119h5.14c2.018 0 2.668.108 3.493.542 1.236.694 1.951 1.974 1.951 3.58 0 .997-.282 1.886-.824 2.645-.412.564-.78.868-1.648 1.367l3.6 6.333h-4.034l-2.906-5.704h-1.345v5.704h-3.427V68.119Zm4.403 6.182h.13c1.562.065 2.451-.608 2.451-1.844 0-1.171-.629-1.627-2.277-1.627l-.521.022h-.76V74.3h.977Z" fill="#fff" fill-rule="evenodd" data-name="Pfad 878"/><path d="M286.259 68.119h5.14c2.017 0 2.668.108 3.492.542 1.236.694 1.952 1.974 1.952 3.58 0 .997-.282 1.886-.824 2.645-.412.564-.78.868-1.648 1.367l3.6 6.333h-4.034l-2.906-5.704h-1.346v5.704h-3.426V68.119Zm4.403 6.182h.13c1.561.065 2.45-.608 2.45-1.844 0-1.171-.629-1.627-2.277-1.627l-.52.022h-.76V74.3h.977Z" fill="#fff" fill-rule="evenodd" data-name="Pfad 879"/><path d="M203.388 82.586h-3.47v-11.8h-3.926V68.12h11.343v2.668h-3.947v11.8Z" fill="#fff" fill-rule="evenodd" data-name="Pfad 880"/><path d="M305.518 82.586h-3.47v-11.8h-3.926V68.12h11.344v2.668h-3.948v11.8Z" fill="#fff" fill-rule="evenodd" data-name="Pfad 881"/><path d="M213.353 79.813c0 1.736-1.329 3.065-3.065 3.065-1.773 0-3.066-1.33-3.066-3.102 0-1.7 1.33-3.029 3.066-3.029 1.736 0 3.065 1.33 3.065 3.066Z" fill="#dbe027" fill-rule="evenodd" data-name="Pfad 882"/><path d="m219.913 76.947 2.993-8.828h2.885l2.516 8.914 3.102-8.914h3.384l-4.88 14.467h-3.08l-2.69-8.914-3.189 8.914h-3.123l-3.883-14.467h3.601l2.364 8.828Z" fill="#fff" fill-rule="evenodd" data-name="Pfad 883"/><path d="M239.813 68.119v8.459c0 1.454.108 2.082.412 2.603.412.65 1.258 1.04 2.321 1.04 1.171 0 2.04-.455 2.43-1.235.216-.5.303-1.128.303-2.408v-8.46h3.47V76.6c0 2.169-.238 3.21-.975 4.23-1.02 1.387-2.777 2.081-5.228 2.081-2.668 0-4.511-.846-5.466-2.472-.564-.955-.737-1.865-.737-3.84v-8.48h3.47Z" fill="#fff" fill-rule="evenodd" data-name="Pfad 884"/><path d="M250.592 68.119h5.64c1.713 0 2.515.195 3.362.824 1.062.76 1.626 1.974 1.626 3.47 0 1.93-.955 3.47-2.625 4.208-.867.39-2.103.586-3.621.586h-.912v5.379h-3.47V68.119Zm4.338 6.333c1.909 0 2.69-.542 2.69-1.843 0-.738-.326-1.323-.89-1.584-.347-.151-.63-.195-1.67-.195h-.998v3.622h.868Z" fill="#fff" fill-rule="evenodd" data-name="Pfad 885"/><path d="M262.77 68.119h5.64c1.713 0 2.515.195 3.361.824 1.063.76 1.627 1.974 1.627 3.47 0 1.93-.955 3.47-2.625 4.208-.867.39-2.103.586-3.622.586h-.91v5.379h-3.471V68.119Zm4.338 6.333c1.909 0 2.69-.542 2.69-1.843 0-.738-.326-1.323-.89-1.584-.347-.151-.63-.195-1.67-.195h-.997v3.622h.867Z" fill="#fff" fill-rule="evenodd" data-name="Pfad 886"/><path d="M283.884 73.997v2.56h-5.465v3.34h6.29v2.69h-9.76V68.118h8.935v2.69h-5.465v3.188h5.465Z" fill="#fff" fill-rule="evenodd" data-name="Pfad 887"/><path d="M321.579 82.586h-3.623l-1.04-3.08h-5.098l-1.106 3.08h-3.34l5.422-14.467h3.84l4.945 14.467Zm-7.05-10.65-1.865 5.141h3.557l-1.691-5.14Z" fill="#fff" fill-rule="evenodd" data-name="Pfad 888"/><g data-name="Gruppe 997"><g data-name="Gruppe 996" transform="translate(43 57)" clip-path="url(&quot;#b&quot;)"><path d="M283.6 22.888h5.4v2.69h-8.871V11.11h3.47v11.777Z" fill="#fff" fill-rule="evenodd" data-name="Pfad 889"/><path d="M415.235-17.03v-5.598h-1.836v-.002a6.841 6.841 0 0 0-6.832 6.84v9.6a8.927 8.927 0 0 1-8.915 8.928 8.928 8.928 0 0 1-8.917-8.928v-4.8h-.01v-4.8a6.84 6.84 0 1 0-13.679 0v9.6a8.928 8.928 0 0 1-8.916 8.928 8.928 8.928 0 0 1-8.918-8.928v-4.8h-.008v-4.8a6.84 6.84 0 0 0-6.829-6.84v.002H289v5.599h10.055v3.096h-4.492c-3.015.161-5.361 2.591-5.56 5.598H348.5c-.058-2.238-1.474-4.224-3.538-5.105a5.014 5.014 0 0 0-2.19-.493h-4.317v-3.096h11.92v.007a1.232 1.232 0 0 1 1.224 1.231v4.801h-.004v4.796c0 8 6.508 14.533 14.535 14.534 8.028 0 14.534-6.534 14.534-14.534v-4.796h-.008v-4.801a1.233 1.233 0 0 1 2.465 0v4.801h-.005v4.796c0 8 6.508 14.533 14.536 14.534 8.028 0 14.536-6.534 14.536-14.534v-4.796h-.012v-4.801c0-.677.546-1.225 1.223-1.231v-.007h1.836Zm-79.759 0v3.097h-33.442v-3.096h33.442Zm77.923-7.69h1.836v-5.599h-1.836c-8.018.012-14.515 6.539-14.515 14.534v4.795h.009v4.8a1.232 1.232 0 1 1-2.465 0v-4.8h.004v-4.795c0-8.002-6.508-14.532-14.535-14.534-8.028.002-14.535 6.532-14.535 14.534v4.795h.009v4.8a1.232 1.232 0 1 1-2.465 0l.001-.004v-4.796h.003v-4.795c0-8.002-6.507-14.532-14.535-14.534H289v5.6h61.375v.001c4.926.006 8.917 4 8.917 8.929v4.799h.01v4.8a6.84 6.84 0 1 0 13.68 0l-.001-4.8v-4.8a8.928 8.928 0 0 1 8.916-8.928c4.926.006 8.917 4 8.917 8.929v4.799h.01v4.8a6.84 6.84 0 0 0 13.68 0l-.002-4.8v-4.8a8.926 8.926 0 0 1 8.897-8.928v-.002ZM299.755-6.247H289V-.13h10.755v-6.117Zm1.43 6.117h10.758v-6.117h-10.757V-.13Zm12.188 0h10.757v-6.117h-10.757V-.13Zm12.187 0h10.756v-6.117H325.56V-.13Zm12.185 0h10.757v-6.117h-10.757V-.13Zm10.757 2.083H289v.104c.168 3.034 2.613 5.412 5.73 5.493h48.123c.757 0 1.515-.16 2.19-.491 2.144-.964 3.482-2.947 3.459-5.106" fill="#fff" fill-rule="evenodd" data-name="Pfad 890"/></g></g></g><defs><clipPath id="a"><path d="M0 0h289v25.912H0V0z" data-name="Rechteck 1176"/></clipPath><clipPath id="b"><path d="M0 0h289v25.912H0V0z" data-name="Rechteck 1177"/></clipPath></defs></svg>