<svg xmlns="http://www.w3.org/2000/svg" width="247.829" height="74.275" viewBox="213.93 213.965 247.829 74.275"><g data-name="Logo_smart.wuppertal_2-zeilig_wht"><g data-name="Gruppe 981"><g data-name="Gruppe 979" clip-path="url(&quot;#a&quot;)" transform="translate(214 214)"><path d="M108.196 11.4V6.61h-1.574c-3.217 0-5.875 2.622-5.875 5.874v8.183a7.656 7.656 0 0 1-7.658 7.658 7.656 7.656 0 0 1-7.658-7.658v-8.253a5.865 5.865 0 0 0-5.875-5.875 5.865 5.865 0 0 0-5.875 5.875v8.253a7.656 7.656 0 0 1-7.658 7.658 7.656 7.656 0 0 1-7.659-7.658v-8.253c0-3.217-2.622-5.875-5.84-5.875H-.035v4.791h8.638v2.658H4.756c-2.588.14-4.581 2.238-4.756 4.79h50.986c-.035-1.923-1.26-3.636-3.043-4.37a4.38 4.38 0 0 0-1.888-.42H42.383V11.33h10.211c.595 0 1.05.49 1.05 1.05V20.666c0 6.854 5.594 12.45 12.449 12.45 6.889 0 12.449-5.596 12.449-12.45v-8.253c0-.594.49-1.049 1.049-1.049.594 0 1.049.49 1.049 1.05v8.252c0 6.854 5.595 12.45 12.449 12.45 6.89 0 12.45-5.596 12.45-12.45v-8.253c0-.594.454-1.049 1.048-1.049h1.609v.035Zm-68.4 0v2.658H11.12V11.4h28.675Zm66.826-6.61h1.574V0h-1.574c-6.889 0-12.449 5.595-12.449 12.45v8.217c0 .595-.49 1.05-1.049 1.05-.594 0-1.05-.49-1.05-1.05v-8.253c0-6.854-5.594-12.449-12.448-12.449-6.89 0-12.45 5.595-12.45 12.45v8.252c0 .595-.489 1.05-1.049 1.05-.594 0-1.049-.49-1.049-1.05v-8.253c0-6.854-5.595-12.449-12.449-12.449H-.035v4.79h52.63a7.656 7.656 0 0 1 7.658 7.66v8.252a5.865 5.865 0 0 0 5.874 5.875 5.865 5.865 0 0 0 5.875-5.875v-8.253a7.656 7.656 0 0 1 7.659-7.658 7.656 7.656 0 0 1 7.658 7.658v8.253a5.865 5.865 0 0 0 5.875 5.875 5.865 5.865 0 0 0 5.875-5.875v-8.253c-.07-4.196 3.322-7.588 7.553-7.623ZM9.162 20.633H-.07v5.246h9.232v-5.246Zm1.259 5.246h9.232v-5.246H10.42v5.246Zm10.42 0h9.233v-5.246h-9.232v5.246Zm10.457 0h9.232v-5.246h-9.232v5.246Zm10.456 0h9.232v-5.246h-9.232v5.246Zm9.232 1.783H-.035v.105c.14 2.588 2.238 4.65 4.896 4.72h41.264a4.38 4.38 0 0 0 1.888-.419c1.819-.84 2.973-2.553 2.973-4.406" fill="#fff" fill-rule="evenodd" data-name="Pfad 855"/></g><g data-name="Gruppe 980" clip-path="url(&quot;#b&quot;)" transform="translate(214 214)"><path d="M10.596 60.253c-.525-1.504-1.434-2.204-2.798-2.204-1.259 0-2.273.875-2.273 1.994 0 .63.35 1.224.98 1.538.524.28.524.28 2.797 1.084 1.609.525 2.797 1.12 3.532 1.749 1.014.84 1.643 2.273 1.643 3.777 0 1.888-.839 3.567-2.308 4.65-1.258.98-2.797 1.364-5 1.364-2.098 0-3.567-.384-4.896-1.258C1.154 72.212.629 71.583 0 70.079l3.952-1.644c.629 1.61 1.713 2.378 3.322 2.378 1.503 0 2.448-.804 2.448-2.028 0-.804-.315-1.294-1.12-1.748-.594-.35-.594-.35-2.587-.98-1.33-.42-2.903-1.363-3.672-2.203-.77-.839-1.259-2.203-1.259-3.427 0-1.503.7-2.972 1.818-3.986 1.19-1.014 2.868-1.539 5.001-1.539 3.462 0 5.42 1.084 6.4 3.532l-3.707 1.819Z" fill="#fff" fill-rule="evenodd" data-name="Pfad 856"/></g></g><path d="M251.802 287.786h-4.266V276l-4.651 11.785h-3.357L234.807 276v11.785h-4.266v-18.394h5.595l5.07 11.715 5.106-11.715h5.49v18.394Z" fill="#fff" fill-rule="evenodd" data-name="Pfad 857"/><path d="M271.84 287.786h-4.616l-1.33-3.917h-6.469l-1.398 3.917h-4.267l6.89-18.394h4.895l6.295 18.394Zm-8.987-13.533-2.343 6.539h4.51l-2.167-6.54Z" fill="#fff" fill-rule="evenodd" data-name="Pfad 858"/><path d="M273.833 269.392h6.54c2.552 0 3.391.14 4.44.7 1.574.873 2.483 2.517 2.483 4.545 0 1.26-.35 2.413-1.049 3.357-.524.7-.979 1.12-2.098 1.749l4.581 8.043h-5.14l-3.707-7.239h-1.714v7.239h-4.371v-18.394h.035Zm5.595 7.868h.175c1.993.07 3.112-.77 3.112-2.343 0-1.504-.804-2.063-2.902-2.063l-.665.035h-.979v4.371h1.26Z" fill="#fff" fill-rule="evenodd" data-name="Pfad 859"/><path d="M403.64 269.392h6.54c2.552 0 3.391.14 4.44.7 1.574.873 2.483 2.517 2.483 4.545 0 1.26-.35 2.413-1.049 3.357-.524.7-.979 1.12-2.098 1.749l4.581 8.043h-5.14l-3.707-7.239h-1.714v7.239h-4.37v-18.394h.034Zm5.595 7.868h.175c1.993.07 3.112-.77 3.112-2.343 0-1.504-.804-2.063-2.902-2.063l-.665.035h-.979v4.371h1.26Z" fill="#fff" fill-rule="evenodd" data-name="Pfad 860"/><path d="M298.312 287.786h-4.407v-15.002h-5v-3.392h14.442v3.392h-5.035v15.002Z" fill="#fff" fill-rule="evenodd" data-name="Pfad 861"/><path d="M428.119 287.786h-4.406v-15.002h-5.001v-3.392h14.407v3.392h-5v15.002Z" fill="#fff" fill-rule="evenodd" data-name="Pfad 862"/><path d="M310.97 284.254c0 2.203-1.678 3.882-3.881 3.882-2.238 0-3.882-1.679-3.882-3.952 0-2.168 1.679-3.847 3.882-3.847 2.203.035 3.882 1.714 3.882 3.917Z" fill="#d9dc30" fill-rule="evenodd" data-name="Pfad 863"/><path d="m319.328 280.617 3.812-11.225h3.637l3.217 11.33 3.952-11.33h4.3l-6.224 18.394h-3.916l-3.427-11.33-4.022 11.33h-3.986l-4.931-18.394h4.581l3.007 11.225Z" fill="#fff" fill-rule="evenodd" data-name="Pfad 864"/><path d="M344.611 269.392v10.735c0 1.854.14 2.658.525 3.323.524.839 1.609 1.328 2.937 1.328 1.504 0 2.588-.594 3.078-1.573.28-.63.384-1.434.384-3.043v-10.735h4.442v10.77c0 2.763-.315 4.092-1.224 5.386-1.294 1.748-3.532 2.657-6.645 2.657-3.392 0-5.735-1.084-6.959-3.147-.699-1.224-.944-2.378-.944-4.896v-10.77h4.406v-.035Z" fill="#fff" fill-rule="evenodd" data-name="Pfad 865"/><path d="M358.32 269.392h7.168c2.168 0 3.183.245 4.267 1.049 1.363.98 2.063 2.518 2.063 4.406 0 2.448-1.224 4.406-3.322 5.35-1.12.49-2.658.735-4.616.735h-1.154v6.854h-4.407v-18.394Zm5.49 8.043c2.413 0 3.427-.7 3.427-2.343 0-.944-.42-1.679-1.12-2.028-.454-.21-.804-.245-2.132-.245h-1.26v4.616h1.085Z" fill="#fff" fill-rule="evenodd" data-name="Pfad 866"/><path d="M373.776 269.392h7.169c2.168 0 3.182.245 4.266 1.049 1.364.98 2.063 2.518 2.063 4.406 0 2.448-1.224 4.406-3.322 5.35-1.119.49-2.657.735-4.616.735h-1.154v6.854h-4.406v-18.394Zm5.525 8.043c2.413 0 3.427-.7 3.427-2.343 0-.944-.42-1.679-1.119-2.028-.454-.21-.804-.245-2.133-.245h-1.259v4.616h1.084Z" fill="#fff" fill-rule="evenodd" data-name="Pfad 867"/><path d="M400.633 276.875v3.252h-6.96v4.232h8.009v3.427h-12.414v-18.394h11.365v3.427h-6.96v4.056h6.96Z" fill="#fff" fill-rule="evenodd" data-name="Pfad 868"/><path d="M448.541 287.786h-4.616l-1.329-3.917h-6.47l-1.398 3.917h-4.266l6.889-18.394h4.896l6.294 18.394Zm-8.987-13.533-2.378 6.539h4.511l-2.133-6.54Z" fill="#fff" fill-rule="evenodd" data-name="Pfad 869"/><path d="M454.905 284.359h6.854v3.427H450.5v-18.394h4.406v14.967Z" fill="#fff" fill-rule="evenodd" data-name="Pfad 870"/></g><defs><clipPath id="a"><path d="M0 0h247.76v74.205H0V0z" data-name="Rechteck 1168"/></clipPath><clipPath id="b"><path d="M0 0h247.76v74.205H0V0z" data-name="Rechteck 1169"/></clipPath></defs></svg>