<?xml version="1.0" encoding="UTF-8"?>
<svg id="Ebene_2" data-name="Ebene 2" xmlns="http://www.w3.org/2000/svg" viewBox="0 0 507.49 179.51">
  <defs>
    <style>
      .cls-1 {
        fill: #e52421;
      }

      .cls-2 {
        fill: #075b8c;
      }

      .cls-3 {
        fill: #ffcc03;
      }
    </style>
  </defs>
  <g id="Ebene_1-2" data-name="Ebene 1">
    <g>
      <path d="m5.1,10.46c-2.47,0-4.42-1.53-4.42-4.94C.68,1.86,3.39.43,5.72.43c1.49,0,2.24.42,2.7.63.04.43.09,1.3.09,1.41,0,.44-.13.72-.49.72-.11,0-.22-.03-.32-.05l-.32-1.38c-.3-.2-.93-.44-1.71-.44-1.71,0-3.38,1.13-3.38,4.04s1.31,4.2,3.16,4.2c.67,0,1.21-.12,1.61-.27v-2.8l-.86-.2c-.14-.03-.2-.07-.2-.15,0-.13.1-.3.15-.42h3.21v.15c.01.22-.11.4-.46.49l-.33.08v2.94c-.37.33-1.42,1.09-3.48,1.09"/>
      <path d="m13.3,10.46c-1.72,0-3.02-.98-3.02-3.43s1.48-3.69,3.08-3.69,2.39.97,2.39,2.37c0,.36-.08.86-.16,1.21h-3.81c.01,1.75.85,2.56,2.05,2.56.9,0,1.41-.35,1.76-.65.13.11.21.35.21.48,0,.35-.93,1.14-2.49,1.14m-.1-6.33c-.82,0-1.32.67-1.42,2.04h2.45c.02-.12.07-.36.07-.6,0-.77-.27-1.44-1.1-1.44"/>
      <path d="m20.2,10.29h-3.35v-.12c-.01-.25.15-.37.42-.47l.48-.16v-5.26h-1.04v-.12c-.01-.27.15-.41.42-.48l.63-.16v-.14c0-2.26,1.37-3.36,2.58-3.36.7,0,.99.32.99.75,0,.35-.21.55-.42.66-.13-.13-.49-.41-.93-.41-.6,0-.81.34-.81,1.18,0,.43.02,1.33.02,1.33h1.88l-.15.77h-1.72v5.26l.96.19c.14.02.2.07.2.18,0,.14-.1.35-.13.4"/>
      <path d="m24.72,10.46c-1.76,0-3.21-1.12-3.21-3.48s1.68-3.65,3.47-3.65c1.76.01,3.15,1.07,3.15,3.5s-1.7,3.62-3.42,3.62m.1-6.29c-1.04,0-1.8.83-1.8,2.72s.76,2.73,1.8,2.73,1.81-.82,1.81-2.7-.78-2.76-1.81-2.76m1.29-1.8c-.45,0-.77-.31-.77-.76s.32-.78.77-.78.75.31.75.78-.32.76-.75.76m-2.54,0c-.43,0-.76-.31-.76-.76s.33-.78.76-.78.76.31.76.78-.33.76-.76.76"/>
      <path d="m32.55,10.29h-3.4v-.12c-.01-.25.15-.37.42-.47l.49-.16v-5.2l-1-.16v-.13c-.01-.24.18-.41.51-.44l1.91-.19-.08,1.21h.03c.3-.47.82-1.29,1.74-1.29.66,0,.97.31.97.74,0,.32-.13.58-.25.72-.11-.05-.46-.21-.94-.21-.77,0-1.16.31-1.46.71v4.23l1.01.19c.14.02.2.07.2.18,0,.14-.11.35-.13.4"/>
      <path d="m37.33,10.46c-1.38,0-2.67-.88-2.67-3.33,0-2.61,1.82-3.79,3.62-3.79.41,0,.76.07,1,.12V1l-1-.14v-.15c-.01-.23.16-.41.51-.43l1.91-.19v9.41l1.02.14.02.11c0,.26-.19.43-.53.45l-1.86.18v-.91h-.04c-.31.43-.89.99-1.99.99m.77-6.28c-1.14,0-1.98.82-1.98,2.68s.78,2.54,1.72,2.54c.81,0,1.25-.37,1.44-.59v-4.2c-.21-.2-.59-.43-1.19-.43"/>
      <path d="m45.57,10.46c-1.74,0-3.02-.98-3.02-3.43s1.47-3.69,3.08-3.69,2.38.97,2.38,2.37c0,.36-.07.86-.16,1.21h-3.81c.02,1.75.85,2.56,2.05,2.56.9,0,1.41-.35,1.76-.65.14.11.21.35.21.48,0,.35-.92,1.14-2.48,1.14m-.1-6.33c-.82,0-1.32.67-1.42,2.04h2.44c.03-.12.08-.36.08-.6,0-.77-.29-1.44-1.1-1.44"/>
      <path d="m52.49,10.29h-3.4v-.12c-.01-.25.15-.37.42-.47l.49-.16v-5.2l-1-.16v-.13c-.01-.24.18-.41.51-.44l1.91-.19-.08,1.21h.03c.3-.47.82-1.29,1.74-1.29.66,0,.97.31.97.74,0,.32-.13.58-.25.72-.11-.05-.46-.21-.94-.21-.77,0-1.16.31-1.46.71v4.23l1.02.19c.13.02.19.07.19.18,0,.14-.11.35-.13.4"/>
      <path d="m57.23,10.46c-1.27,0-1.78-.74-1.78-1.82v-4.36h-1.05l-.02-.12c0-.27.18-.43.44-.48l.69-.16.32-1.9h1.04v1.9h2.08l-.15.77h-1.92v4.11c0,.63.2,1.15.9,1.15.55,0,1-.24,1.11-.34.07.11.12.33.12.46,0,.14-.48.8-1.77.8"/>
      <path d="m65.3,10.46c-1.38,0-2.68-.88-2.68-3.33,0-2.61,1.83-3.79,3.64-3.79.41,0,.76.07,1,.12V1l-1-.14-.02-.15c0-.23.19-.41.53-.43l1.91-.19v9.41l1.02.14v.11c.01.26-.17.43-.5.45l-1.86.18v-.91h-.04c-.31.43-.9.99-1.99.99m.77-6.28c-1.14,0-1.98.82-1.98,2.68s.78,2.54,1.72,2.54c.81,0,1.25-.37,1.44-.59v-4.2c-.22-.2-.59-.43-1.19-.43"/>
      <path d="m73.34,10.46c-1.5,0-2.21-.88-2.21-2.54v-3.58l-1-.16v-.13c-.01-.24.16-.41.5-.44l1.91-.19v4.44c0,1.27.68,1.57,1.3,1.57.71,0,1.2-.31,1.52-.68v-4.4l-1-.15v-.14c-.01-.24.18-.41.51-.44l1.91-.18v6.07l1.03.14v.11c.01.26-.18.43-.51.45l-1.86.18v-.93h-.03c-.22.3-.85,1.01-2.08,1.01"/>
      <path d="m81.91,10.29h-3.4v-.12c-.01-.25.15-.37.42-.47l.49-.16v-5.2l-1-.16v-.13c-.01-.24.18-.41.51-.44l1.91-.19-.08,1.21h.03c.3-.47.82-1.29,1.74-1.29.66,0,.97.31.97.74,0,.32-.14.58-.25.72-.11-.05-.46-.21-.94-.21-.77,0-1.16.31-1.46.71v4.23l1.02.19c.13.02.19.07.19.18,0,.14-.11.35-.13.4"/>
      <path d="m87.05,10.46c-1.82,0-3.01-1.15-3.01-3.47s1.59-3.65,3.49-3.65c1.54,0,1.93.76,1.93,1.16,0,.38-.18.72-.71.85-.21-.49-.54-1.18-1.46-1.18s-1.76.68-1.76,2.52.69,2.8,2.01,2.8c.87,0,1.37-.45,1.6-.67.12.12.22.35.22.47,0,.35-.77,1.16-2.32,1.16"/>
      <path d="m97.77,10.29h-3.19v-.12c-.01-.25.15-.38.42-.47l.47-.16v-3.56c0-1.2-.65-1.56-1.37-1.56-.87,0-1.33.38-1.59.65v4.47l.78.19c.14.02.2.07.2.18,0,.14-.1.35-.14.4h-3.18l-.02-.12c0-.25.18-.38.44-.47l.49-.16V1l-1-.14v-.15c-.01-.23.17-.41.51-.43l1.92-.19v4.26h.03c.29-.34.96-1.01,2.16-1.01,1.41,0,2.21.82,2.21,2.47v3.72l.81.19c.14.02.2.07.2.18,0,.14-.11.35-.14.4"/>
      <path d="m99.74,10.48c-.5,0-.88-.34-.88-.86s.38-.88.88-.88.88.34.88.88-.39.86-.88.86m0-5.41c-.5,0-.88-.34-.88-.86s.38-.87.88-.87.88.33.88.87-.39.86-.88.86"/>
      <path d="m2.5,160.63c-1.07,0-1.82-.74-1.82-1.85,0-1.51,1.65-2.07,3.22-2.07h.36v-.63c0-1.29-.33-1.79-1.21-1.79-.32,0-.6.1-.71.14-.13.26-.24.76-.31,1.23,0,0-.21.02-.33.02-.47,0-.74-.23-.74-.66,0-.88,1.14-1.54,2.46-1.54,1.54,0,2.26.85,2.26,2.43v3.03c0,.56.21.72.45.72.32,0,.48-.16.53-.24.08.1.16.3.16.43,0,.18-.36.72-1.27.72-.65,0-1.05-.27-1.19-.98h-.02c-.15.26-.68,1.01-1.85,1.01m1.76-3.22h-.32c-1.14.07-1.79.47-1.79,1.22,0,.59.34.99.92.99s1.01-.39,1.19-.6v-1.6"/>
      <path d="m10.27,160.63c-1.5,0-2.21-.89-2.21-2.55v-3.58l-1-.15v-.14c-.01-.24.16-.41.51-.43l1.91-.19v4.43c0,1.27.68,1.57,1.3,1.57.71,0,1.2-.31,1.52-.67v-4.42l-1-.15v-.14c-.01-.23.18-.41.51-.43l1.91-.19v6.08l1.03.14v.11c.01.25-.18.42-.51.45l-1.86.16v-.92h-.03c-.22.3-.85,1.01-2.08,1.01"/>
      <path d="m18.81,160.47h-3.34l-.02-.13c0-.25.18-.36.44-.46l.47-.17v-5.26h-1.03l-.02-.13c0-.26.18-.41.44-.47l.62-.18v-.13c0-2.26,1.38-3.36,2.59-3.36.7,0,.98.31.98.75,0,.35-.21.55-.42.66-.12-.14-.49-.41-.92-.41-.6,0-.82.33-.82,1.17,0,.44.03,1.33.03,1.33h1.87l-.15.78h-1.71v5.26l.96.18c.14.03.2.08.2.19,0,.14-.1.35-.14.4"/>
      <path d="m22.61,163.44c-1.74,0-2.57-.6-2.57-1.64,0-.98.77-1.44,1.27-1.59v-.03c-.36-.2-.58-.54-.58-.99,0-.81.75-1.19,1.02-1.33v-.03c-.79-.35-1.3-1.07-1.3-2.08,0-1.48,1.23-2.25,2.67-2.25.38,0,.75.05,1.1.16h2.46l-.15.8h-1.14c.26.35.44.78.44,1.29,0,1.48-1.24,2.33-2.77,2.33-.24,0-.45-.02-.66-.07-.2.11-.4.31-.4.63,0,.34.22.49.7.49h1.63c1.3,0,2.02.59,2.02,1.6,0,1.41-1.37,2.7-3.75,2.7m-.65-3.06c-.36.21-.6.56-.6,1.03,0,.74.45,1.2,1.47,1.2,1.36,0,2.21-.63,2.21-1.37,0-.58-.32-.84-1.04-.84h-1.52c-.2,0-.36-.01-.52-.02m1.2-6.12c-.74,0-1.3.43-1.3,1.5s.56,1.55,1.26,1.55c.76,0,1.31-.44,1.31-1.55,0-1-.55-1.5-1.27-1.5"/>
      <path d="m30.67,160.47h-3.4v-.13c-.01-.25.15-.36.43-.46l.49-.18v-5.19l-1-.15-.02-.14c0-.24.19-.41.53-.44l1.91-.18-.09,1.21h.04c.3-.48.81-1.3,1.72-1.3.67,0,.98.31.98.75,0,.31-.14.57-.25.71-.11-.06-.47-.21-.94-.21-.77,0-1.16.31-1.46.71v4.23l1.01.19c.14.03.2.07.2.19,0,.14-.11.35-.14.4"/>
      <path d="m35.78,160.63c-1.5,0-2.21-.89-2.21-2.55v-3.58l-1-.15v-.14c-.01-.24.18-.41.51-.43l1.91-.19v4.43c0,1.27.68,1.57,1.3,1.57.71,0,1.2-.31,1.52-.67v-4.42l-.99-.15-.02-.14c0-.23.19-.41.53-.43l1.91-.19v6.08l1.02.14v.11c.01.25-.16.42-.51.45l-1.86.16v-.92h-.03c-.22.3-.83,1.01-2.08,1.01"/>
      <path d="m48.58,160.47h-3.2v-.13c-.01-.25.15-.38.43-.46l.46-.18v-3.55c0-1.2-.68-1.56-1.36-1.56-.8,0-1.33.37-1.61.61v4.49l.79.19c.14.03.2.07.2.19,0,.14-.11.35-.13.4h-3.2v-.13c-.01-.25.15-.36.43-.46l.48-.18v-5.19l-1-.15v-.14c-.01-.24.18-.41.52-.44l1.91-.18-.09.98h.04c.37-.41,1.01-1.06,2.31-1.06,1.37,0,2.13.89,2.13,2.47v3.72l.83.19c.13.03.19.07.19.19,0,.14-.11.35-.13.4"/>
      <path d="m52.1,160.63c-1.37,0-2.67-.89-2.67-3.33,0-2.61,1.82-3.8,3.62-3.8.41,0,.76.07,1,.13v-2.46l-1-.14v-.15c-.01-.24.18-.41.51-.44l1.91-.18v9.41l1.03.14v.11c.01.25-.18.42-.51.45l-1.86.16v-.91h-.04c-.31.44-.9,1-2,1m.77-6.28c-1.13,0-1.98.81-1.98,2.67s.79,2.55,1.72,2.55c.82,0,1.25-.39,1.44-.59v-4.21c-.21-.2-.59-.42-1.19-.42"/>
      <path d="m63.26,160.63c-1.72,0-3.02-.99-3.02-3.44s1.48-3.69,3.08-3.69,2.39.97,2.39,2.37c0,.36-.07.86-.16,1.21h-3.81c.01,1.75.85,2.56,2.05,2.56.9,0,1.41-.35,1.76-.65.13.12.21.35.21.48,0,.35-.93,1.15-2.49,1.15m-.1-6.33c-.82,0-1.32.66-1.42,2.04h2.45c.02-.13.07-.37.07-.6,0-.78-.27-1.44-1.1-1.44"/>
      <path d="m70,160.47h-3.22v-.13c-.01-.25.15-.36.43-.46l.49-.18v-5.19l-1-.15-.02-.14c0-.24.19-.41.53-.44l1.91-.18v6.11l.82.19c.14.03.2.07.2.19,0,.14-.11.35-.14.4m-1.59-8.27c-.53,0-.92-.35-.92-.9s.4-.9.92-.9.92.36.92.9-.42.9-.92.9"/>
      <path d="m78.48,160.47h-3.18l-.02-.13c0-.25.18-.38.44-.46l.46-.18v-3.55c0-1.2-.67-1.56-1.36-1.56-.8,0-1.32.37-1.61.61v4.49l.8.19c.14.03.2.07.2.19,0,.14-.11.35-.14.4h-3.2v-.13c-.01-.25.15-.36.43-.46l.49-.18v-5.19l-1-.15-.02-.14c0-.24.19-.41.53-.44l1.91-.18-.09.98h.04c.38-.41,1.01-1.06,2.31-1.06,1.37,0,2.14.89,2.14,2.47v3.72l.82.19c.14.03.2.07.2.19,0,.14-.11.35-.14.4"/>
      <path d="m82.35,160.63c-1.72,0-3.02-.99-3.02-3.44s1.48-3.69,3.09-3.69,2.38.97,2.38,2.37c0,.36-.07.86-.16,1.21h-3.81c.01,1.75.85,2.56,2.05,2.56.9,0,1.41-.35,1.76-.65.14.12.21.35.21.48,0,.35-.92,1.15-2.49,1.15m-.09-6.33c-.84,0-1.33.66-1.43,2.04h2.45c.03-.13.08-.37.08-.6,0-.78-.28-1.44-1.1-1.44"/>
      <path d="m87.91,160.63c-.78,0-1.48-.24-1.78-.42-.05-.35-.1-.73-.1-1.09,0-.56.15-.79.57-.79l.19.02.3,1.2c.14.09.55.27.95.27.69,0,1.12-.26,1.12-.86s-.67-.94-1.31-1.34c-.86-.55-1.71-1.09-1.71-2.3,0-1.1.96-1.83,2.31-1.83.81,0,1.4.28,1.65.53.02.19.06.48.06.77,0,.49-.1.81-.6.81h-.16s-.18-1.07-.18-1.07c-.15-.11-.51-.29-.93-.29-.46,0-.93.2-.93.79s.66.98,1.33,1.37c.85.51,1.75,1.05,1.75,2.19s-.96,2.02-2.5,2.02"/>
      <path d="m98.06,160.47h-3.57v-.15c-.01-.23.1-.43.46-.52l.59-.13v-8.13l-.86-.2c-.14-.02-.2-.07-.2-.15,0-.12.1-.3.15-.42h3.31c2.51,0,3.7.88,3.7,2.44,0,1.34-.81,1.97-2.03,2.24v.02c1.37.23,2.26,1,2.26,2.28,0,1.57-1.29,2.71-3.82,2.71m-1-4.49v3.64h.85c1.65,0,2.38-.78,2.38-1.88,0-1.03-.78-1.76-2.3-1.76h-.93m0-4.35v3.54h.75c1.6,0,2.28-.79,2.28-1.78,0-1.15-.72-1.76-2.26-1.76h-.77"/>
      <path d="m106.19,160.63c-1.73,0-3.02-.99-3.02-3.44s1.47-3.69,3.08-3.69,2.39.97,2.39,2.37c0,.36-.08.86-.18,1.21h-3.8c.01,1.75.84,2.56,2.04,2.56.9,0,1.41-.35,1.76-.65.14.12.22.35.22.48,0,.35-.93,1.15-2.49,1.15m-.1-6.33c-.82,0-1.32.66-1.42,2.04h2.45c.02-.13.07-.37.07-.6,0-.78-.29-1.44-1.1-1.44"/>
      <path d="m111.74,160.63c-.79,0-1.49-.24-1.79-.42-.06-.35-.1-.73-.1-1.09,0-.56.16-.79.58-.79l.19.02.3,1.2c.13.09.54.27.96.27.68,0,1.12-.26,1.12-.86s-.68-.94-1.31-1.34c-.86-.55-1.71-1.09-1.71-2.3,0-1.1.96-1.83,2.31-1.83.81,0,1.38.28,1.65.53.02.19.05.48.05.77,0,.49-.1.81-.6.81h-.18s-.16-1.07-.16-1.07c-.16-.11-.5-.29-.93-.29-.46,0-.95.2-.95.79s.67.98,1.34,1.37c.85.51,1.75,1.05,1.75,2.19s-.96,2.02-2.5,2.02"/>
      <path d="m118.37,160.63c-1.83,0-3.01-1.15-3.01-3.47s1.59-3.66,3.48-3.66c1.55,0,1.94.76,1.94,1.16,0,.38-.19.74-.71.85-.22-.49-.54-1.16-1.47-1.16s-1.76.67-1.76,2.51.69,2.8,2.02,2.8c.87,0,1.37-.45,1.59-.68.13.13.23.35.23.48,0,.35-.78,1.16-2.32,1.16"/>
      <path d="m129.09,160.47h-3.18l-.02-.13c0-.25.18-.38.44-.46l.46-.18v-3.55c0-1.2-.64-1.56-1.36-1.56-.87,0-1.33.37-1.6.64v4.47l.79.19c.14.03.2.07.2.19,0,.14-.1.35-.14.4h-3.2v-.13c-.01-.25.16-.38.43-.46l.49-.18v-8.52l-1-.14-.02-.15c0-.24.19-.41.53-.44l1.92-.18v4.25h.03c.29-.34.96-1.01,2.16-1.01,1.41,0,2.21.82,2.21,2.47v3.72l.81.19c.14.03.2.07.2.19,0,.14-.11.35-.14.4"/>
      <path d="m132.95,160.47h-3.21v-.13c-.01-.25.15-.38.43-.46l.48-.18v-8.52l-.99-.14-.02-.15c0-.24.19-.41.53-.44l1.91-.18v9.43l.81.19c.14.03.2.07.2.19,0,.14-.1.35-.14.4"/>
      <path d="m136.81,160.63c-1.5,0-2.21-.89-2.21-2.55v-3.58l-1-.15v-.14c-.01-.24.18-.41.51-.43l1.91-.19v4.43c0,1.27.68,1.57,1.3,1.57.71,0,1.2-.31,1.51-.67v-4.42l-1-.15v-.14c-.01-.23.18-.41.52-.43l1.91-.19v6.08l1.02.14v.11c.01.25-.16.42-.51.45l-1.86.16v-.92h-.03c-.22.3-.83,1.01-2.08,1.01"/>
      <path d="m144.03,160.63c-.79,0-1.49-.24-1.79-.42-.06-.35-.1-.73-.1-1.09,0-.56.15-.79.58-.79l.18.02.3,1.2c.14.09.55.27.96.27.69,0,1.13-.26,1.13-.86s-.68-.94-1.31-1.34c-.86-.55-1.71-1.09-1.71-2.3,0-1.1.96-1.83,2.3-1.83.82,0,1.4.28,1.65.53.03.19.05.48.05.77,0,.49-.09.81-.6.81h-.17s-.17-1.07-.17-1.07c-.15-.11-.51-.29-.92-.29-.46,0-.95.2-.95.79s.66.98,1.34,1.37c.85.51,1.74,1.05,1.74,2.19s-.96,2.02-2.49,2.02"/>
      <path d="m149.56,160.63c-.79,0-1.49-.24-1.79-.42-.05-.35-.09-.73-.09-1.09,0-.56.15-.79.57-.79l.19.02.3,1.2c.13.09.55.27.96.27.68,0,1.12-.26,1.12-.86s-.67-.94-1.31-1.34c-.86-.55-1.71-1.09-1.71-2.3,0-1.1.95-1.83,2.31-1.83.81,0,1.38.28,1.65.53.02.19.06.48.06.77,0,.49-.1.81-.6.81h-.18s-.17-1.07-.17-1.07c-.15-.11-.5-.29-.93-.29-.46,0-.94.2-.94.79s.67.98,1.34,1.37c.85.51,1.75,1.05,1.75,2.19s-.96,2.02-2.5,2.02"/>
      <path d="m156.19,160.63c-1.72,0-3.02-.99-3.02-3.44s1.47-3.69,3.08-3.69,2.39.97,2.39,2.37c0,.36-.08.86-.18,1.21h-3.81c.02,1.75.85,2.56,2.05,2.56.9,0,1.41-.35,1.76-.65.14.12.21.35.21.48,0,.35-.92,1.15-2.48,1.15m-.1-6.33c-.82,0-1.32.66-1.42,2.04h2.45c.02-.13.07-.37.07-.6,0-.78-.29-1.44-1.1-1.44"/>
      <path d="m161.75,160.63c-.79,0-1.49-.24-1.79-.42-.06-.35-.1-.73-.1-1.09,0-.56.15-.79.58-.79l.19.02.3,1.2c.13.09.54.27.94.27.69,0,1.13-.26,1.13-.86s-.68-.94-1.31-1.34c-.86-.55-1.71-1.09-1.71-2.3,0-1.1.96-1.83,2.31-1.83.81,0,1.38.28,1.64.53.03.19.07.48.07.77,0,.49-.1.81-.6.81h-.18s-.16-1.07-.16-1.07c-.16-.11-.52-.29-.93-.29-.46,0-.94.2-.94.79s.66.98,1.34,1.37c.85.51,1.75,1.05,1.75,2.19s-.96,2.02-2.5,2.02"/>
      <path d="m3.44,176.7c-1.38,0-2.67-.89-2.67-3.34,0-2.6,1.82-3.79,3.62-3.79.41,0,.76.07,1,.13v-2.46l-1-.14v-.15c-.01-.24.16-.41.51-.44l1.91-.19v9.42l1.02.14.02.11c0,.25-.19.42-.53.45l-1.86.16v-.91h-.03c-.31.44-.9,1-2,1m.77-6.28c-1.13,0-1.98.81-1.98,2.67s.79,2.55,1.72,2.55c.81,0,1.25-.38,1.44-.59v-4.21c-.21-.2-.59-.42-1.19-.42"/>
      <path d="m11.68,176.7c-1.74,0-3.02-.99-3.02-3.44s1.47-3.69,3.08-3.69,2.38.97,2.38,2.37c0,.36-.07.86-.16,1.21h-3.81c.02,1.75.85,2.56,2.05,2.56.9,0,1.41-.35,1.76-.65.14.12.21.35.21.48,0,.35-.92,1.15-2.48,1.15m-.1-6.33c-.82,0-1.32.66-1.42,2.04h2.44c.03-.13.08-.37.08-.6,0-.78-.29-1.44-1.1-1.44"/>
      <path d="m17.23,176.7c-.79,0-1.49-.24-1.79-.43-.05-.34-.1-.71-.1-1.08,0-.56.15-.79.58-.79l.18.02.3,1.19c.14.1.55.29.96.29.69,0,1.13-.26,1.13-.86s-.68-.94-1.31-1.34c-.87-.55-1.72-1.09-1.72-2.31,0-1.09.96-1.82,2.31-1.82.82,0,1.39.29,1.65.52.03.2.05.49.05.78,0,.49-.1.81-.6.81h-.16s-.18-1.07-.18-1.07c-.15-.12-.51-.29-.92-.29-.46,0-.94.2-.94.79s.66.98,1.34,1.37c.83.51,1.74,1.05,1.74,2.19s-.96,2.02-2.49,2.02"/>
      <path d="m26.99,176.54h-3.19v-.15c-.01-.23.1-.43.47-.52l.58-.13v-8.13l-.86-.2c-.14-.02-.2-.07-.2-.15,0-.12.1-.3.15-.42h3.03c3.54,0,5.66,1.32,5.66,4.71.01,3.41-2.1,4.99-5.66,4.99m-.6-8.85v7.99h.56c2.6,0,4.09-1.36,4.09-4.09s-1.5-3.9-4.09-3.9h-.56"/>
      <path d="m36.93,176.7c-1.74,0-3.03-.99-3.03-3.44s1.48-3.69,3.09-3.69,2.38.97,2.38,2.37c0,.36-.07.86-.16,1.21h-3.81c.02,1.75.85,2.56,2.05,2.56.9,0,1.41-.35,1.76-.65.14.12.21.35.21.48,0,.35-.92,1.15-2.48,1.15m-.1-6.33c-.83,0-1.32.66-1.42,2.04h2.44c.03-.13.08-.37.08-.6,0-.78-.29-1.44-1.1-1.44"/>
      <path d="m43.37,176.7c-1.5,0-2.21-.89-2.21-2.55v-3.58l-1-.15v-.14c-.01-.24.18-.41.52-.44l1.91-.18v4.43c0,1.27.67,1.57,1.29,1.57.72,0,1.2-.31,1.53-.67v-4.41l-1-.15-.02-.14c0-.23.19-.41.53-.43l1.91-.19v6.09l1.02.14.02.11c0,.25-.19.42-.53.45l-1.86.16v-.92h-.02c-.23.3-.85,1.01-2.09,1.01"/>
      <path d="m51.13,176.7c-1.29,0-1.79-.75-1.79-1.82v-4.36h-1.05v-.13c-.01-.26.15-.42.43-.47l.68-.18.33-1.89h1.03v1.89h2.09l-.15.78h-1.93v4.1c0,.64.2,1.15.9,1.15.55,0,1-.23,1.11-.33.08.11.13.32.13.46s-.49.8-1.77.8"/>
      <path d="m55.51,176.7c-.79,0-1.49-.24-1.78-.43-.07-.34-.1-.71-.1-1.08,0-.56.15-.79.57-.79l.19.02.3,1.19c.13.1.55.29.96.29.68,0,1.12-.26,1.12-.86s-.67-.94-1.31-1.34c-.86-.55-1.71-1.09-1.71-2.31,0-1.09.96-1.82,2.31-1.82.81,0,1.39.29,1.65.52.02.2.05.49.05.78,0,.49-.1.81-.6.81h-.18s-.16-1.07-.16-1.07c-.15-.12-.51-.29-.93-.29-.46,0-.93.2-.93.79s.66.98,1.33,1.37c.85.51,1.75,1.05,1.75,2.19s-.96,2.02-2.5,2.02"/>
      <path d="m62.13,176.7c-1.83,0-3.01-1.15-3.01-3.47s1.59-3.66,3.48-3.66c1.55,0,1.94.76,1.94,1.16,0,.38-.19.74-.71.84-.22-.49-.54-1.16-1.47-1.16s-1.75.67-1.75,2.51.68,2.8,2,2.8c.88,0,1.38-.45,1.6-.68.13.13.23.35.23.48,0,.35-.78,1.17-2.32,1.17"/>
      <path d="m72.85,176.54h-3.19l-.02-.13c0-.25.18-.38.44-.46l.46-.18v-3.55c0-1.2-.64-1.57-1.36-1.57-.87,0-1.33.38-1.6.65v4.47l.79.19c.14.03.2.07.2.19,0,.13-.1.35-.14.4h-3.2v-.13c-.01-.25.16-.38.43-.46l.49-.18v-8.52l-1-.14-.02-.15c0-.24.19-.41.53-.44l1.92-.19v4.26h.03c.29-.34.96-1.01,2.16-1.01,1.41,0,2.21.82,2.21,2.47v3.72l.81.19c.14.03.2.07.2.19,0,.13-.11.35-.14.4"/>
      <path d="m76.73,176.7c-1.72,0-3.02-.99-3.02-3.44s1.48-3.69,3.09-3.69,2.38.97,2.38,2.37c0,.36-.07.86-.17,1.21h-3.81c.01,1.75.85,2.56,2.05,2.56.9,0,1.41-.35,1.76-.65.14.12.21.35.21.48,0,.35-.92,1.15-2.49,1.15m-.09-6.33c-.83,0-1.32.66-1.43,2.04h2.45c.03-.13.07-.37.07-.6,0-.78-.27-1.44-1.09-1.44"/>
      <path d="m87.87,176.54h-3.19v-.13c0-.25.15-.38.42-.46l.46-.18v-3.55c0-1.2-.67-1.57-1.36-1.57-.8,0-1.32.38-1.61.63v4.49l.8.19c.14.03.2.07.2.19,0,.13-.11.35-.14.4h-3.18l-.02-.13c0-.25.18-.36.44-.46l.49-.18v-5.2l-1-.15v-.14c-.01-.24.16-.41.51-.44l1.91-.18-.09.98h.04c.38-.41,1.01-1.07,2.31-1.07,1.38,0,2.14.89,2.14,2.47v3.72l.82.19c.14.03.2.07.2.19,0,.13-.11.35-.14.4"/>
      <path d="m95.27,176.52h-3.57l-.02-.15c0-.22.11-.42.48-.51l.58-.13v-8.13l-.86-.2c-.13-.03-.2-.07-.2-.15,0-.13.1-.3.17-.42h3.29c2.5,0,3.7.88,3.7,2.44,0,1.34-.81,1.97-2.02,2.24v.02c1.36.23,2.26,1,2.26,2.27,0,1.58-1.3,2.71-3.82,2.71m-1-4.48v3.62h.85c1.64,0,2.37-.77,2.37-1.87s-.78-1.76-2.29-1.76h-.92m0-4.36v3.55h.75c1.6,0,2.27-.79,2.27-1.78,0-1.17-.71-1.77-2.26-1.77h-.76"/>
      <path d="m103.2,176.7c-1.5,0-2.21-.89-2.21-2.55v-3.58l-1-.15v-.14c-.01-.24.17-.41.51-.44l1.91-.18v4.43c0,1.27.67,1.57,1.3,1.57.71,0,1.2-.31,1.52-.67v-4.41l-1-.15v-.14c-.01-.23.16-.41.51-.43l1.91-.19v6.09l1.03.14v.11c.01.25-.18.42-.51.45l-1.86.16v-.92h-.03c-.22.3-.85,1.01-2.08,1.01"/>
      <path d="m115.98,176.54h-3.19l-.02-.13c0-.25.18-.38.44-.46l.46-.18v-3.55c0-1.2-.67-1.57-1.36-1.57-.8,0-1.32.38-1.62.63v4.49l.8.19c.14.03.2.07.2.19,0,.13-.11.35-.14.4h-3.2v-.13c-.01-.25.16-.36.43-.46l.49-.18v-5.2l-1-.15-.02-.14c0-.24.19-.41.53-.44l1.91-.18-.09.98h.04c.39-.41,1.01-1.07,2.31-1.07,1.37,0,2.14.89,2.14,2.47v3.72l.82.19c.14.03.2.07.2.19,0,.13-.11.35-.14.4"/>
      <path d="m119.52,176.7c-1.38,0-2.67-.89-2.67-3.34,0-2.6,1.82-3.79,3.62-3.79.41,0,.76.07,1,.13v-2.46l-1-.14-.02-.15c0-.24.19-.41.53-.44l1.91-.19v9.42l1.02.14.02.11c0,.25-.19.42-.53.45l-1.86.16v-.91h-.04c-.31.44-.9,1-1.99,1m.77-6.28c-1.14,0-1.98.81-1.98,2.67s.78,2.55,1.72,2.55c.81,0,1.25-.38,1.44-.59v-4.21c-.22-.2-.59-.42-1.19-.42"/>
      <path d="m127.76,176.7c-1.74,0-3.03-.99-3.03-3.44s1.48-3.69,3.09-3.69,2.38.97,2.38,2.37c0,.36-.07.86-.16,1.21h-3.81c.01,1.75.85,2.56,2.05,2.56.9,0,1.41-.35,1.76-.65.14.12.21.35.21.48,0,.35-.92,1.15-2.48,1.15m-.1-6.33c-.83,0-1.32.66-1.43,2.04h2.45c.03-.13.08-.37.08-.6,0-.78-.29-1.44-1.1-1.44"/>
      <path d="m133.31,176.7c-.78,0-1.48-.24-1.78-.43-.05-.34-.1-.71-.1-1.08,0-.56.15-.79.57-.79l.19.02.3,1.19c.14.1.55.29.96.29.69,0,1.12-.26,1.12-.86s-.67-.94-1.31-1.34c-.86-.55-1.71-1.09-1.71-2.31,0-1.09.96-1.82,2.31-1.82.81,0,1.4.29,1.65.52.02.2.06.49.06.78,0,.49-.1.81-.6.81h-.16s-.18-1.07-.18-1.07c-.15-.12-.51-.29-.92-.29-.47,0-.94.2-.94.79s.66.98,1.33,1.37c.85.51,1.75,1.05,1.75,2.19s-.96,2.02-2.5,2.02"/>
      <path d="m139.38,176.7c-1.28,0-1.78-.75-1.78-1.82v-4.36h-1.05v-.13c-.01-.26.15-.42.42-.47l.69-.18.32-1.89h1.04v1.89h2.08l-.15.78h-1.92v4.1c0,.64.2,1.15.9,1.15.55,0,1-.23,1.11-.33.07.11.13.32.13.46s-.49.8-1.78.8"/>
      <path d="m143.59,176.7c-1.07,0-1.83-.74-1.83-1.85,0-1.5,1.65-2.06,3.23-2.06h.36v-.63c0-1.29-.34-1.79-1.21-1.79-.33,0-.6.1-.72.14-.12.26-.23.76-.31,1.23,0,0-.21.02-.32.02-.47,0-.75-.23-.75-.67,0-.87,1.15-1.53,2.46-1.53,1.55,0,2.26.85,2.26,2.43v3.03c0,.56.21.73.45.73.32,0,.49-.16.54-.24.07.1.17.3.17.43,0,.18-.36.73-1.27.73-.65,0-1.07-.27-1.19-.98h-.03c-.15.26-.67,1.01-1.83,1.01m1.76-3.22h-.33c-1.13.07-1.78.47-1.78,1.22,0,.59.34.99.91.99s1.01-.38,1.2-.6v-1.6"/>
      <path d="m150.82,179.51c-1.72,0-2.57-.6-2.57-1.64,0-.98.77-1.44,1.27-1.6v-.02c-.36-.2-.57-.54-.57-.99,0-.81.75-1.2,1.01-1.33v-.03c-.79-.35-1.3-1.07-1.3-2.08,0-1.48,1.24-2.25,2.67-2.25.39,0,.75.05,1.1.16h2.46l-.15.8h-1.14c.27.35.44.78.44,1.29,0,1.48-1.23,2.33-2.77,2.33-.24,0-.45-.02-.66-.07-.2.11-.4.31-.4.63,0,.34.23.49.7.49h1.63c1.3,0,2.03.59,2.03,1.6,0,1.41-1.38,2.7-3.76,2.7m-.65-3.06c-.36.21-.6.56-.6,1.03,0,.74.45,1.2,1.48,1.2,1.36,0,2.21-.63,2.21-1.37,0-.58-.33-.84-1.04-.84h-1.52c-.2,0-.37-.01-.53-.02m1.2-6.12c-.73,0-1.3.43-1.3,1.5s.57,1.55,1.27,1.55c.76,0,1.31-.44,1.31-1.55,0-1-.55-1.5-1.29-1.5"/>
      <path d="m158.61,176.7c-1.72,0-3.02-.99-3.02-3.44s1.48-3.69,3.07-3.69,2.4.97,2.4,2.37c0,.36-.08.86-.17,1.21h-3.81c.01,1.75.84,2.56,2.05,2.56.9,0,1.41-.35,1.76-.65.13.12.21.35.21.48,0,.35-.93,1.15-2.49,1.15m-.1-6.33c-.82,0-1.32.66-1.42,2.04h2.45c.02-.13.07-.37.07-.6,0-.78-.29-1.44-1.1-1.44"/>
      <path d="m164.17,176.7c-.79,0-1.49-.24-1.79-.43-.05-.34-.1-.71-.1-1.08,0-.56.15-.79.58-.79l.19.02.29,1.19c.14.1.55.29.97.29.68,0,1.12-.26,1.12-.86s-.67-.94-1.31-1.34c-.86-.55-1.71-1.09-1.71-2.31,0-1.09.96-1.82,2.31-1.82.81,0,1.38.29,1.64.52.03.2.07.49.07.78,0,.49-.1.81-.61.81h-.17s-.16-1.07-.16-1.07c-.15-.12-.52-.29-.93-.29-.46,0-.94.2-.94.79s.66.98,1.34,1.37c.85.51,1.75,1.05,1.75,2.19s-.96,2.02-2.5,2.02"/>
      <path d="m15.64,68.62c-.47,0-.93-1.11-1.1-1.57-.32.63-.64,1.27-1.21,1.27-.46,0-.89-.32-1.1-.68,1.58-.44,2.33-2.72,2.33-5.82,0-1.27-.12-1.88-.2-2.47-.75.88-1.02,2.36-1.07,2.83-.31-.25-.45-.56-.54-.83-.6.72-1.3,1.74-1.45,2.09.58,0,1.27-.14,1.49-.14.57,0,.71.33.71.62,0,.44-.45.83-.75,1.11-.21-.45-.92-.5-1.24-.5-.1,0-.16,0-.16,0-.22,0-.34,0-.61.04.02.15.02.36.02.52v.6c0,.7.02,1.08.54,1.55-.09.07-.36.27-.75.27-.79,0-.91-.57-.91-1.81,0-.15,0-.14.01-.26-.4.43-.87,1.04-.87,1.57,0,.1,0,.22.03.36-.62,0-1.09-.65-1.09-1.08,0-.65,1-1.46,1.32-1.81h-.11c-1.1-.01-1.32.36-1.43.64-.29-.24-.54-.67-.54-1.21,0-.31.07-.66.66-.66.56,0,1.43.09,2.02.2.45-.64,1.35-1.87,1.78-2.82-.18.02-.42.04-.79.04-.19,0-.38-.01-.51-.07,1.81-1.57,3.33-3.6,3.33-5.91,0-.36-.09-.74-.21-1.13l-.14-.02-4.58,7.33c-1.32,2.1-2.37,2.13-3.92,2.13h-.14c1.34-1.02,2.23-2.35,2.66-3.02l4.29-6.86c-.24-.08-.46-.16-.69-.25l-3.8,6.08c-1.32,2.09-2.36,2.13-3.88,2.13h-.19c1.35-1.03,2.23-2.33,2.65-3.01l3.69-5.91c-.21-.11-.41-.23-.62-.36l-3.02,4.84c-1.33,2.1-2.38,2.13-3.92,2.13h-.14c1.35-1.03,2.23-2.34,2.65-3.02l3.11-4.96c-.19-.15-.36-.33-.53-.51l-2.2,3.51c-1.32,2.09-2.36,2.13-3.88,2.13h-.19c1.35-1.03,2.23-2.34,2.65-3.01l2.56-4.09c-.14-.25-.25-.52-.35-.78l-1.29,2.05c-1.33,2.1-2.38,2.13-3.92,2.13h-.14c1.34-1.03,2.23-2.35,2.66-3.02l2.5-4.01c.24-1.23.88-2.39,1.83-3.25-.32-.12-.58-.25-.75-.37,1.64,0,3.25-.82,4.14-.82.58,0,.94.34.94.79-.03.51-.55,1.02-1.52,1.02-.22,0-.49-.03-.8-.09-.52.72-.93,1.38-.93,2.32,0,1.76,2.1,3.12,4.22,3.12.11,0,.23,0,.35-.01.42-1.42,1.31-2.35,2.02-3.26-.86-.31-1.81-1.12-1.81-1.49l.05-.03c.92.35,1.13.42,1.87.56h.12c.2-.08.38-.41.38-.44-.18-.02-1.23-.13-1.93-.38-.54-.2-.81-.55-.81-.69l.04-.02c.13,0,.78.34,1.74.34.35,0,.43-.01.77-.05-.24-.59-.7-1.09-1.22-1.09-.22,0-.67.13-1.05.32-.26-.41-.51-.96-.51-1.25,0-.35.35-.76,1.33-.76.27,0,.53.02.77.07.19.03.35.08.53.14l-.02-.12c0-.13.12-.27.58-.27.81,0,1.64.26,2.65.26.26,0,.44-.01.59-.08-.07.21-.35.51-.62.75.16.22.58.75.58,1.6,0,1.38-.91,2.52-.91,3.91,0,.83.64,1.56.83,2,.12.01.23.01.35.01,2.12,0,4.22-1.36,4.22-3.12,0-.93-.42-1.59-.94-2.32-.3.05-.58.09-.79.09-.97,0-1.48-.52-1.52-1.02,0-.45.36-.79.93-.79.9,0,2.52.82,4.15.82-.16.12-.43.25-.76.37.97.86,1.6,2.02,1.85,3.25l2.5,4.01c.43.67,1.31,1.99,2.65,3.02-1.61,0-2.69.03-4.06-2.13l-1.28-2.05c-.09.26-.21.53-.34.78l2.55,4.09c.43.67,1.31,1.98,2.65,3.01h-.19c-1.51,0-2.56-.04-3.88-2.13l-2.2-3.51c-.16.18-.34.35-.52.51l3.1,4.96c.43.68,1.31,1.99,2.65,3.02-1.61,0-2.69.03-4.06-2.13l-3.02-4.84c-.2.13-.41.25-.61.36l3.69,5.91c.43.68,1.31,1.98,2.65,3.01h-.19c-1.51,0-2.56-.04-3.88-2.13l-3.8-6.08c-.22.09-.45.18-.68.25l4.29,6.86c.42.67,1.32,2,2.65,3.02-1.61,0-2.69.03-4.06-2.13l-4.57-7.33-.14.02c-.12.4-.21.77-.21,1.13,0,2.31,1.5,4.34,3.32,5.91-.11.05-.32.07-.51.07-.37,0-.62-.02-.78-.04.42.96,1.32,2.19,1.78,2.82.59-.11,1.46-.2,2.02-.2.59,0,.66.35.66.66,0,.54-.25.97-.55,1.21-.11-.27-.33-.65-1.42-.65h-.11c.32.36,1.32,1.18,1.32,1.82,0,.43-.47,1.08-1.1,1.08.04-.14.03-.26.03-.36,0-.53-.47-1.14-.86-1.57v.26c0,1.24-.11,1.81-.9,1.81-.4,0-.66-.21-.76-.27.52-.47.55-.85.55-1.55-.01-.18-.01-.35-.01-.6,0-.15,0-.37.03-.52-.29-.04-.41-.04-.62-.04,0,0-.06,0-.16,0-.32,0-1.03.05-1.24.5-.31-.27-.76-.67-.76-1.11,0-.29.14-.62.72-.62.21,0,.9.14,1.48.14-.15-.35-.85-1.36-1.45-2.09-.09.27-.23.58-.54.83-.04-.47-.32-1.96-1.05-2.83-.09.59-.21,1.2-.21,2.47,0,3.1.75,5.38,2.33,5.82-.21.36-.64.68-1.09.68-.58,0-.9-.65-1.22-1.27-.16.46-.63,1.57-1.09,1.57m4.26-4.42c.31,0,.69.04.91.08h.07s-.01.11-.01.11c-.02.18-.05.4-.05.7v.6c0,.72-.1,1.14-.35,1.46l.24.04c.45,0,.58-.2.58-1.5,0-.26.02-.51.02-.67v-.24s.08.04.08.04c.67.52,1.36,1.43,1.41,2.11.2-.13.42-.42.42-.65,0-.37-.56-.93-1.21-1.58l-.43-.43h.07s.07-.02.07-.02c.13-.04.4-.11.62-.11.74,0,1.19.14,1.47.45.1-.15.19-.49.19-.69,0-.13-.03-.22-.08-.27l-.25-.05h-.02c-.8,0-1.76.14-2.14.2h-.02s-.01-.01-.01-.01c-.07-.09-1.59-2.13-2-3.21-.09-.03-.16-.07-.33-.07-.3,0-.38.21-.47.52.97,1.16,1.56,2.08,1.78,2.69v.05s-.04,0-.04,0c-.86,0-1.27-.05-1.55-.1-.14-.02-.24-.03-.36-.03-.22,0-.38.02-.38.3,0,.18.21.47.42.64.32-.3.76-.35,1.39-.35m-9.95.58l.02.24c0,.16.02.41.02.67,0,1.31.13,1.49.58,1.49l.24-.04c-.25-.31-.35-.72-.35-1.45v-.62c0-.3-.03-.52-.05-.69v-.1s.02-.01.02-.01h.04c.21-.03.59-.09.9-.09.64,0,1.08.07,1.39.36.21-.16.43-.46.43-.65,0-.26-.18-.29-.4-.29-.11,0-.22.01-.36.03-.27.03-.69.1-1.55.1h-.06l.02-.05c.21-.62.81-1.53,1.77-2.69-.09-.31-.18-.52-.47-.52-.16,0-.24.03-.33.07-.41,1.08-1.93,3.12-2,3.21v.02s-.03-.01-.03-.01c-.38-.05-1.34-.2-2.14-.2h-.02l-.25.05c-.04.05-.08.14-.08.27,0,.2.09.55.19.69.29-.31.74-.45,1.47-.45.22,0,.48.07.62.11l.13.02-.06.05-.37.37c-.65.65-1.21,1.21-1.21,1.58,0,.23.22.52.42.65.04-.68.74-1.6,1.41-2.11l.05-.04m13.11-22.46c-.1.02-.19.04-.29.07.42.51,1.15,1.35,1.15,2.47,0,2.22-2.34,4.14-5.01,4.17.02.23.02.43.02.6,0,.32-.02.63-.07.92,3.03-.05,5.68-2.52,5.69-5.17,0-1.52-1.11-2.72-1.5-3.06m-14.85,0c-.38.33-1.49,1.54-1.49,3.06,0,2.68,2.68,5.15,5.74,5.17-.03-.29-.05-.59-.05-.92,0-.21.01-.41.03-.6-2.7,0-5.1-1.93-5.1-4.17,0-1.12.74-1.97,1.15-2.48-.1-.01-.19-.03-.29-.05m5.66-1.35c.52,0,.91.33,1.14.6.26.31.46.71.56,1.11.13-.3.27-.64.27-1,0-1.04-.82-1.67-2.21-1.67-.63,0-.96.2-.96.38,0,.2.19.62.29.79.25-.11.66-.22.9-.22m2.27-.83c-.21,0-.27.19-.28.4.18.23.29.49.34.79.05,0,.1.01.15.01.66,0,1.06-.84.4-.99.1.32-.38.54-.38.54,0,0-.19-.43.05-.67-.11-.05-.2-.08-.28-.08"/>
      <polyline class="cls-3" points="44.09 121.08 39.41 121.08 39.41 94.3 44.09 94.3 44.09 121.08"/>
      <polyline class="cls-1" points="44.09 94.3 44.09 94.3 39.41 94.3 39.41 67.38 39.41 67.51 42.09 67.51 44.09 67.51 44.09 94.3"/>
      <polyline points="44.09 67.51 44.09 67.51 42.09 67.51 39.41 67.51 39.41 67.38 39.41 40.75 44.09 40.75 44.09 67.51"/>
      <path d="m125.86,83.78c-.47,0-.9-.09-1.3-.24-.38-.17-.71-.41-.99-.75-.27-.33-.48-.76-.63-1.27-.15-.52-.22-1.13-.22-1.86,0-.68.08-1.26.23-1.76.15-.49.36-.9.63-1.22.26-.32.57-.55.92-.7.35-.15.73-.24,1.13-.24.74,0,1.31.24,1.73.7.42.46.63,1.15.63,2.08,0,.33-.01.61-.03.86-.02.24-.04.45-.07.63h-3.91c.04.9.24,1.57.58,1.99.35.43.85.64,1.49.64.22,0,.43-.02.6-.08.18-.05.34-.12.47-.19.13-.08.24-.15.33-.23l.2-.18.48.91c-.05.05-.13.13-.24.23-.11.1-.25.2-.43.31-.18.1-.41.19-.67.25-.26.08-.58.12-.95.12m-.3-6.99c-.46,0-.82.2-1.1.58-.27.37-.44.93-.48,1.66h2.79c.01-.06.02-.13.03-.24v-.32c0-.54-.1-.95-.32-1.24-.21-.29-.52-.44-.92-.44m-6.44,6.99c-.31,0-.58-.03-.81-.1-.23-.07-.44-.14-.62-.22-.18-.09-.32-.19-.44-.29-.11-.1-.21-.2-.29-.27l.63-1.02c.06.07.13.13.23.22.09.09.2.18.33.25.12.08.26.14.43.2.15.06.34.08.55.08.38,0,.68-.08.88-.25.21-.17.31-.37.31-.63,0-.18-.02-.33-.08-.46-.04-.13-.12-.25-.21-.36-.1-.11-.22-.21-.35-.31-.14-.09-.3-.2-.48-.32l-.47-.3c-.48-.31-.86-.64-1.13-.98-.26-.34-.41-.77-.41-1.31,0-.29.07-.55.18-.78.11-.24.26-.45.46-.63.21-.18.44-.31.71-.42.27-.1.56-.14.87-.14s.55.02.77.09c.21.05.4.13.55.22.15.09.27.18.38.27.1.09.18.17.24.23l-.56.92c-.08-.1-.24-.23-.46-.4-.22-.16-.52-.24-.88-.24-.34,0-.59.08-.78.24-.18.15-.26.34-.26.57,0,.28.08.52.24.7.16.19.42.38.76.6l.48.29c.52.31.92.64,1.22.99.3.36.45.82.45,1.38,0,.6-.21,1.11-.63,1.53-.43.42-1.03.63-1.81.63m-5.47,0c-.47,0-.91-.09-1.3-.24-.39-.17-.71-.41-.99-.75-.27-.33-.48-.76-.63-1.27-.15-.52-.22-1.13-.22-1.86,0-.68.07-1.26.23-1.76.15-.49.36-.9.63-1.22.26-.32.57-.55.92-.7.35-.15.73-.24,1.13-.24.74,0,1.31.24,1.72.7.41.46.62,1.15.62,2.08,0,.33-.01.61-.03.86-.02.24-.03.45-.05.63h-3.91c.04.9.24,1.57.58,1.99.34.43.84.64,1.49.64.22,0,.42-.02.6-.08.18-.05.34-.12.47-.19.13-.08.24-.15.33-.23l.2-.18.48.91c-.05.05-.13.13-.24.23-.11.1-.25.2-.43.31-.19.1-.41.19-.67.25-.26.08-.58.12-.94.12m-.3-6.99c-.46,0-.82.2-1.1.58-.27.37-.44.93-.48,1.66h2.79c.01-.06.02-.13.02-.24.01-.1.01-.21.01-.32,0-.54-.11-.95-.32-1.24-.21-.29-.52-.44-.92-.44m-17.56,6.99c-.34,0-.65-.05-.91-.15-.27-.1-.51-.26-.69-.48-.2-.23-.34-.52-.44-.87-.1-.36-.15-.8-.15-1.32v-5.02h1.3v4.92c0,.64.1,1.1.31,1.36.21.27.53.41.97.41.36,0,.68-.09.93-.27.25-.19.46-.37.6-.55v-5.87h1.3v7.65h-1.19v-.86h-.03c-.02.07-.1.15-.2.27-.11.12-.25.24-.41.35-.17.11-.37.21-.61.3-.23.09-.49.13-.78.13m-6.91,0c-.29,0-.56-.05-.81-.17-.24-.11-.46-.25-.65-.45-.19-.19-.33-.41-.43-.67-.1-.26-.15-.54-.15-.86,0-.44.09-.81.25-1.11.16-.3.4-.54.68-.72.3-.19.63-.32,1.02-.41.39-.08.79-.11,1.23-.11h.4v-.74c0-.65-.11-1.1-.34-1.34-.23-.24-.55-.36-.97-.36-.39,0-.7.08-.96.24-.25.16-.45.31-.6.44l-.54-.86c.09-.09.2-.19.33-.29.13-.11.29-.21.48-.31.19-.1.41-.18.65-.24.25-.07.53-.1.83-.1.78,0,1.37.22,1.78.66.41.44.6,1.13.6,2.1v3.49c0,.33.01.65.03.97.02.31.04.53.07.63h-1.23l-.04-.85h-.03c-.04.1-.1.21-.19.33-.09.12-.2.23-.32.34-.13.1-.29.19-.46.25-.19.08-.4.12-.64.12m1.54-3.54h-.41c-.61.03-1.09.14-1.4.33-.32.19-.47.51-.47.92,0,.39.09.69.26.89.18.2.43.3.75.3.19,0,.34-.03.48-.09.13-.04.25-.11.35-.19.11-.08.19-.15.26-.25l.18-.23v-1.68m-19.6,3.54c-.36,0-.7-.08-1.03-.22-.32-.14-.6-.37-.85-.68-.25-.32-.44-.72-.58-1.22-.14-.48-.22-1.09-.22-1.79,0-.77.1-1.42.31-1.94.2-.52.46-.93.78-1.25.32-.32.68-.55,1.09-.68.4-.13.8-.2,1.21-.2.24,0,.45.02.64.05.18.04.33.09.44.13v-3.66l1.3-.14v11.4h-1.18v-.81h-.03c-.03.07-.1.15-.18.26-.09.11-.21.23-.35.34-.15.11-.34.21-.56.29-.22.08-.48.12-.78.12m.8-6.89c-.3,0-.58.05-.84.15-.25.1-.48.26-.67.49-.2.24-.34.54-.46.91-.11.37-.16.83-.16,1.37s.04.98.14,1.33c.09.35.21.64.37.86.15.22.34.37.54.47.2.1.42.14.64.14.2,0,.38-.02.54-.08.16-.05.3-.12.42-.2.12-.08.22-.16.3-.25l.19-.22v-4.71c-.12-.08-.25-.14-.41-.2-.15-.05-.35-.08-.58-.08m-15.69,6.89c-.34,0-.65-.05-.92-.15-.26-.1-.51-.26-.69-.48-.19-.23-.34-.52-.44-.87-.1-.36-.15-.8-.15-1.32v-5.02h1.3v4.92c0,.64.1,1.1.31,1.36.21.27.53.41.97.41.37,0,.68-.09.94-.27.25-.19.45-.37.6-.55v-5.87h1.29v7.65h-1.18v-.86h-.03c-.03.07-.1.15-.21.27-.11.12-.24.24-.41.35-.16.11-.36.21-.59.3-.24.09-.49.13-.78.13m79.23-.2h-1.3v-4.92c0-.65-.11-1.11-.32-1.4-.22-.27-.56-.42-1-.42-.39,0-.7.09-.96.29-.25.19-.46.37-.6.56v5.89h-1.3v-7.65h1.19v.86h.03c.02-.05.1-.15.2-.27.11-.12.25-.24.42-.35.16-.11.37-.21.6-.3.23-.08.51-.12.8-.12.34,0,.65.04.92.14.27.11.51.26.7.49.19.22.34.51.44.87.11.35.17.79.17,1.31v5.02m-27.71,0h-1.14l-.78-2.67c-.12-.38-.22-.75-.3-1.07-.09-.33-.13-.65-.15-.95h-.03c-.02.3-.08.62-.18.96-.1.34-.21.69-.33,1.07l-.88,2.66h-1.1l-2.41-7.65h1.38l1.14,4.34c.11.39.2.77.29,1.12.08.34.12.67.13.98h.03c.03-.31.1-.63.2-.97.1-.33.22-.69.34-1.09l.83-2.5-.58-1.88h1.34l1.16,4.23c.12.43.23.84.32,1.22.1.38.15.71.16.99h.03c.02-.27.08-.6.15-1,.09-.38.19-.79.31-1.21l1.13-4.23h1.24l-2.33,7.65m-25.68,0h-2.25v-10.98h2.12c.65,0,1.21.07,1.67.2.46.13.83.32,1.14.56.3.25.5.54.64.89.13.34.2.73.2,1.15,0,.39-.04.71-.14,1-.1.29-.22.54-.38.75-.16.21-.36.37-.58.49-.21.13-.44.23-.67.29v.03c.29.05.55.15.8.31.25.14.47.33.66.56.19.22.33.48.44.79.11.3.16.63.16.99,0,.44-.07.83-.22,1.2-.14.36-.38.67-.69.94-.32.26-.71.47-1.19.61-.48.15-1.04.22-1.7.22m-.87-5v3.86h.87c.81,0,1.41-.17,1.77-.48.37-.33.55-.81.55-1.45,0-.59-.19-1.05-.58-1.41-.38-.34-.93-.52-1.66-.52h-.95m0-4.9v3.8h.72c.74,0,1.31-.19,1.68-.55.38-.35.58-.86.58-1.49,0-.51-.19-.93-.55-1.26-.36-.33-.92-.49-1.7-.49h-.74m-14.33,9.9h-1.3v-4.92c0-.65-.11-1.11-.33-1.4-.21-.27-.55-.42-.99-.42-.38,0-.7.09-.96.29-.25.19-.46.37-.6.56v5.89h-1.3v-7.65h1.18v.86h.03c.03-.05.11-.15.21-.27.11-.12.25-.24.42-.35.16-.11.37-.21.6-.3.23-.08.51-.12.8-.12.34,0,.65.04.92.14.27.11.51.26.7.49.19.22.34.51.44.87.11.35.16.79.16,1.31v5.02m155.85-12.69c-.81,0-1.44-.18-1.86-.54-.43-.35-.65-.87-.65-1.54,0-.29.05-.53.15-.74.1-.21.22-.38.36-.54.14-.15.27-.27.42-.37.14-.09.26-.15.35-.21v-.03c-.33-.24-.49-.6-.49-1.07,0-.21.03-.38.11-.53.09-.15.18-.27.28-.37.1-.09.2-.16.31-.23.1-.05.18-.1.23-.12v-.02c-.4-.19-.71-.47-.96-.86-.23-.38-.35-.89-.35-1.49,0-.42.07-.8.21-1.12.13-.33.32-.59.55-.8.24-.22.52-.37.82-.48.32-.11.65-.15,1.01-.15s.7.05,1.02.19h2.33l-.18,1.01h-.96c.24.4.36.86.36,1.36,0,.41-.07.77-.2,1.1-.13.32-.32.59-.56.81-.24.23-.52.4-.85.52-.32.11-.67.18-1.04.18h-.21l-.2-.02c-.13.05-.26.14-.41.25-.13.12-.21.27-.21.47,0,.15.07.29.19.38.12.1.32.15.59.15h.98c.36,0,.69.03,1,.11.31.08.58.2.81.36.22.16.41.37.53.63.13.25.2.56.2.92,0,.42-.09.79-.26,1.13-.17.34-.43.64-.75.88-.32.24-.7.44-1.16.57-.45.14-.97.21-1.53.21m-.47-3.67c-.1.05-.19.12-.29.2-.09.08-.16.16-.24.26-.08.11-.13.24-.19.38-.04.14-.07.31-.07.49,0,.82.45,1.23,1.35,1.23.77,0,1.35-.15,1.73-.45.36-.31.55-.66.55-1.04s-.11-.64-.35-.79c-.23-.15-.54-.23-.93-.23h-.98c-.22,0-.42-.02-.58-.05m.99-6.51c-.37,0-.69.12-.96.35-.27.23-.41.63-.41,1.18s.13.94.41,1.19c.26.23.57.35.92.35.37,0,.68-.12.94-.35.26-.24.4-.63.4-1.19s-.13-.94-.4-1.18c-.26-.23-.57-.35-.91-.35m-101.96,9.04l-.27-.56c.33-.16.6-.37.81-.62.21-.24.33-.59.35-1.05h-.04c-.25,0-.45-.08-.63-.23-.16-.16-.25-.38-.25-.68s.08-.51.24-.65c.17-.14.36-.22.58-.22.31,0,.56.13.76.38.2.25.3.65.3,1.19,0,.36-.06.67-.17.94-.11.27-.26.51-.44.7-.19.2-.38.36-.6.48-.21.13-.43.23-.64.31m87.05-2.04c-.34,0-.65-.05-.91-.15-.28-.1-.51-.26-.69-.48-.2-.23-.34-.52-.44-.87-.1-.36-.15-.8-.15-1.32v-5.02h1.29v4.92c0,.64.11,1.1.32,1.36.21.27.53.41.97.41.36,0,.68-.09.93-.27.25-.19.46-.37.6-.55v-5.87h1.3v7.64h-1.19v-.86h-.03c-.03.07-.1.15-.21.27-.1.13-.23.24-.4.35-.16.12-.37.22-.6.3-.23.09-.49.13-.78.13m-15.88,0c-.43,0-.82-.07-1.2-.21-.37-.14-.69-.36-.98-.68-.27-.32-.49-.74-.65-1.25-.17-.51-.24-1.14-.24-1.89s.1-1.36.29-1.87c.2-.51.44-.92.75-1.23.32-.32.66-.55,1.03-.69.37-.14.76-.21,1.14-.21.29,0,.54.02.76.08.22.05.4.12.55.2.15.09.29.16.38.25.1.1.19.18.25.23l-.54.91-.15-.14c-.07-.07-.15-.13-.26-.19-.11-.07-.23-.12-.39-.18-.14-.04-.32-.07-.51-.07-.27,0-.54.05-.78.15-.24.1-.44.26-.62.48-.17.22-.32.52-.42.87-.1.36-.15.79-.15,1.3,0,.57.04,1.04.14,1.42.09.38.21.69.37.92.15.23.35.4.58.49.22.1.47.15.76.15.39,0,.69-.08.89-.21.21-.14.36-.25.44-.34l.53.89c-.05.07-.13.14-.23.23-.1.1-.23.19-.38.26-.16.09-.36.16-.58.22-.23.06-.49.09-.79.09m-18.43,0c-.66,0-1.15-.19-1.48-.55-.33-.37-.49-.98-.49-1.82v-4.42h-.92v-.87l.92-.19.14-2.14h1.14v2.14h1.83l-.17,1.05h-1.67v4.24c0,.54.06.91.21,1.11.14.2.37.29.7.29.19,0,.35-.02.49-.08.13-.05.24-.1.3-.14l.18,1.03s-.18.11-.37.2c-.21.1-.47.14-.81.14m-13.52,0c-.47,0-.91-.09-1.3-.24-.38-.16-.71-.41-.99-.74-.27-.34-.48-.77-.63-1.27-.15-.52-.23-1.14-.23-1.86s.08-1.27.23-1.77c.15-.49.37-.9.64-1.22.26-.32.57-.55.92-.7.35-.15.73-.23,1.13-.23.73,0,1.31.23,1.71.69.42.46.63,1.15.63,2.08,0,.33-.01.62-.03.86-.02.24-.04.45-.07.63h-3.9c.04.9.23,1.57.58,1.99.34.43.83.64,1.48.64.23,0,.43-.02.62-.08.17-.05.33-.11.46-.19.13-.08.25-.15.34-.23l.2-.18.48.91c-.05.05-.14.13-.24.23-.11.1-.25.21-.43.31-.19.1-.41.19-.67.26-.26.07-.58.11-.94.11m-.3-6.97c-.46,0-.82.19-1.1.57-.27.37-.44.93-.48,1.66h2.79c.01-.05.02-.13.02-.23.01-.11.01-.22.01-.33,0-.54-.11-.94-.32-1.24-.22-.29-.53-.43-.92-.43m-4.83,6.97c-.66,0-1.15-.19-1.48-.55-.33-.37-.49-.98-.49-1.82v-4.42h-.92v-.87l.92-.19.14-2.14h1.15v2.14h1.82l-.15,1.05h-1.67v4.24c0,.54.07.91.21,1.11.13.2.37.29.69.29.2,0,.36-.02.5-.08.14-.05.24-.1.31-.14l.18,1.03c-.05.04-.18.11-.39.2-.2.1-.47.14-.81.14m-7.33,0c-.36,0-.71-.08-1.03-.22-.33-.14-.6-.37-.86-.68-.24-.32-.44-.71-.58-1.21-.13-.49-.21-1.1-.21-1.79,0-.78.1-1.43.31-1.94.2-.53.46-.94.78-1.26.32-.32.68-.55,1.08-.68.41-.13.81-.2,1.22-.2.24,0,.45.02.64.05.18.04.33.09.44.14v-3.67l1.3-.14v11.4h-1.19v-.81h-.03c-.03.07-.09.15-.18.26-.08.12-.2.23-.35.34-.14.11-.33.21-.55.29-.23.08-.48.12-.78.12m.79-6.89c-.3,0-.57.05-.83.15-.25.1-.48.26-.67.51-.2.23-.35.53-.46.9-.11.37-.17.83-.17,1.37s.04.98.13,1.33c.1.36.22.65.37.86.17.22.34.38.55.47.2.1.41.14.64.14.2,0,.38-.02.54-.08.17-.05.3-.12.42-.2.11-.08.21-.16.3-.24l.18-.23v-4.71c-.11-.08-.25-.14-.41-.2-.15-.04-.34-.08-.58-.08m-7.89,6.89c-.29,0-.55-.05-.8-.16-.25-.1-.46-.25-.65-.44-.19-.2-.33-.42-.44-.68-.1-.26-.14-.54-.14-.86,0-.44.08-.81.25-1.11.17-.3.4-.54.68-.72.29-.19.63-.32,1.01-.4.4-.09.8-.12,1.24-.12h.4v-.74c0-.65-.11-1.09-.34-1.34-.23-.24-.55-.36-.97-.36-.38,0-.7.08-.95.24-.25.16-.46.32-.6.44l-.54-.86c.08-.09.19-.19.32-.29.13-.11.3-.21.49-.31.19-.1.41-.18.65-.24.24-.07.52-.09.82-.09.79,0,1.38.21,1.79.65.41.44.6,1.14.6,2.11v3.48c0,.33.01.66.03.97.02.32.04.53.07.63h-1.23l-.04-.85h-.03c-.04.1-.11.21-.2.33-.08.12-.19.24-.32.34-.12.1-.28.19-.46.26-.18.07-.39.11-.64.11m1.55-3.54h-.42c-.62.03-1.08.14-1.4.33-.32.2-.48.51-.48.92,0,.4.09.69.27.89.18.2.43.3.75.3.18,0,.34-.03.47-.08.14-.05.26-.12.36-.2.1-.08.19-.15.25-.24l.19-.24v-1.68m-5.59,3.54c-.66,0-1.15-.19-1.48-.55-.33-.37-.49-.98-.49-1.82v-4.42h-.92v-.87l.92-.19.14-2.14h1.15v2.14h1.82l-.15,1.05h-1.67v4.24c0,.54.07.91.2,1.11.14.2.37.29.7.29.2,0,.36-.02.5-.08.14-.05.24-.1.31-.14l.18,1.03c-.06.04-.19.11-.38.2-.2.1-.47.14-.81.14m-6.77,0c-.38,0-.74-.03-1.04-.11-.3-.08-.56-.16-.78-.27-.23-.1-.42-.21-.56-.32-.15-.11-.26-.21-.34-.29l.56-1.21c.07.07.17.15.29.25.13.11.28.22.46.32.19.11.38.2.61.27.23.08.48.11.78.11.54,0,.96-.13,1.24-.41.3-.27.44-.59.44-.97,0-.23-.02-.44-.09-.64-.05-.19-.14-.37-.25-.55-.11-.18-.25-.34-.42-.52-.18-.16-.37-.35-.6-.54l-.9-.75c-.31-.26-.57-.51-.81-.74-.23-.22-.43-.46-.59-.71-.16-.24-.29-.52-.37-.81-.09-.29-.13-.63-.13-1.01,0-.35.07-.68.21-.99.13-.31.32-.57.56-.79.24-.23.54-.41.88-.53.35-.13.74-.2,1.18-.2.36,0,.68.03.96.11.28.07.52.14.71.23.2.1.35.19.47.29.11.09.2.16.26.21l-.57,1.04s-.11-.1-.22-.18c-.1-.09-.22-.16-.37-.23-.15-.08-.34-.14-.55-.2-.21-.05-.44-.08-.69-.08-.47,0-.83.13-1.09.38-.24.25-.36.55-.36.89,0,.22.03.41.09.59.07.18.15.35.27.53.12.18.28.35.45.53.19.18.4.36.66.57l.89.74c.25.21.49.43.72.65.23.22.42.46.58.71.17.24.3.52.4.81.1.29.14.62.14.98,0,.83-.26,1.52-.78,2.03-.52.52-1.29.77-2.29.77m-19.92,0c-.48,0-.91-.09-1.3-.24-.4-.16-.73-.41-.99-.74-.28-.34-.48-.77-.64-1.27-.14-.52-.22-1.14-.22-1.86s.08-1.27.23-1.77c.15-.49.36-.9.63-1.22.27-.32.58-.55.93-.7.34-.15.73-.23,1.13-.23.72,0,1.31.23,1.71.69.42.46.63,1.15.63,2.08,0,.33-.01.62-.03.86-.02.24-.04.45-.07.63h-3.9c.04.9.23,1.57.58,1.99.34.43.83.64,1.48.64.23,0,.43-.02.6-.08.19-.05.34-.11.47-.19.13-.08.24-.15.34-.23l.2-.18.47.91c-.06.05-.13.13-.23.23-.11.1-.25.21-.44.31-.18.1-.4.19-.67.26-.26.07-.57.11-.93.11m-.31-6.97c-.45,0-.82.19-1.1.57-.27.37-.43.93-.47,1.66h2.79c.01-.05.01-.13.02-.23,0-.11.01-.22.01-.33,0-.54-.11-.94-.32-1.24-.22-.29-.53-.43-.93-.43m-21.94,6.97c-.43,0-.82-.08-1.19-.22-.36-.15-.67-.4-.93-.71-.27-.33-.48-.74-.64-1.24-.15-.51-.23-1.12-.23-1.85s.09-1.31.25-1.81c.16-.52.38-.92.67-1.25.27-.32.6-.56.97-.71.37-.15.76-.23,1.17-.23s.81.08,1.18.23c.36.15.68.4.94.71.26.33.47.74.63,1.25.15.51.23,1.11.23,1.81s-.08,1.33-.24,1.83c-.15.52-.37.92-.66,1.25-.28.32-.6.56-.98.71-.37.14-.77.22-1.18.22m.02-6.93c-.53,0-.94.23-1.23.69-.3.46-.44,1.2-.44,2.22s.15,1.76.45,2.2c.3.45.7.67,1.24.67s.94-.22,1.23-.67c.3-.44.44-1.18.44-2.2s-.15-1.76-.45-2.22c-.3-.46-.7-.69-1.24-.69m-27.27,6.93c-.34,0-.65-.05-.92-.15-.26-.1-.49-.26-.69-.48-.19-.23-.34-.52-.44-.87-.1-.36-.14-.8-.14-1.32v-5.02h1.29v4.92c0,.64.1,1.1.31,1.36.21.27.53.41.97.41.37,0,.68-.09.94-.27.25-.19.45-.37.6-.55v-5.87h1.28v7.64h-1.18v-.86h-.03c-.03.07-.1.15-.21.27-.11.13-.24.24-.41.35-.16.12-.36.22-.59.3-.23.09-.49.13-.78.13m143.27-.04c-.44,0-.79-.14-1.05-.41-.26-.26-.4-.74-.4-1.42v-9.59l1.3-.14v9.62c0,.32.04.54.13.67.09.13.24.19.47.19.11,0,.21-.01.3-.03l.18-.06.11.96c-.05.03-.18.07-.35.12-.17.05-.4.09-.68.09m-148.25-.14h-1.3v-6.6h-.92v-.86l.92-.18v-1.54c0-.41.07-.77.18-1.07.12-.3.27-.54.46-.72.2-.2.42-.33.67-.42.25-.09.53-.13.81-.13s.52.04.7.11c.19.08.32.14.38.18l-.27,1.08c-.07-.04-.15-.09-.26-.14-.12-.04-.26-.07-.43-.07-.32,0-.55.09-.7.29-.16.19-.24.54-.24,1.05v1.36h1.72l-.16,1.05h-1.56v6.6m163.25-.01h-1.29v-4.92c0-.65-.11-1.11-.33-1.39-.22-.27-.55-.42-1-.42-.38,0-.7.1-.95.29-.25.19-.45.37-.6.56v5.89h-1.29v-7.64h1.18v.87h.03c.03-.07.1-.16.21-.29.1-.12.24-.24.42-.35.17-.11.36-.21.6-.3.23-.08.49-.12.79-.12.34,0,.65.04.92.15.28.1.52.26.7.48.2.22.34.52.45.87.1.35.15.79.15,1.32v5.01m-17.57,0h-1.54l-2.15-3.57h-.53v3.57h-1.3v-11.26l1.3-.14v6.74h.54l2.05-2.99h1.53l-2.53,3.5,2.62,4.14m-13.64,0h-1.29v-7.64h1.29v7.64m-4.81,0h-1.14l-.78-2.67c-.12-.38-.22-.74-.3-1.07-.08-.33-.13-.65-.15-.94h-.03c-.02.3-.08.62-.18.96-.09.34-.21.69-.33,1.07l-.88,2.66h-1.1l-2.4-7.64h1.38l1.15,4.34c.1.4.2.78.28,1.12.08.35.12.67.13.98h.03c.03-.31.1-.63.2-.96.1-.34.22-.7.34-1.1l.83-2.5-.57-1.88h1.34l1.16,4.23c.11.43.22.85.32,1.22.09.38.14.71.15.99h.03c.02-.27.08-.6.16-.99.08-.4.19-.8.3-1.22l1.13-4.23h1.24l-2.33,7.64m-13.15,0h-1.29v-4.92c0-.65-.11-1.11-.33-1.39-.22-.27-.55-.42-1-.42-.37,0-.69.1-.96.29-.25.19-.45.37-.6.56v5.89h-1.28v-7.64h1.17v.87h.03c.03-.07.1-.16.21-.29.11-.12.24-.24.42-.35.16-.11.37-.21.6-.3.23-.08.5-.12.79-.12.34,0,.65.04.92.15.29.1.52.26.7.48.2.22.34.52.45.87.11.35.15.79.15,1.32v5.01m-50.28,0h-1.28v-4.92c0-.65-.11-1.11-.33-1.39-.22-.27-.55-.42-1-.42-.38,0-.7.1-.96.29-.25.19-.45.37-.6.56v5.89h-1.29v-7.64h1.18v.87h.03c.03-.07.1-.16.21-.29.1-.12.24-.24.41-.35.18-.11.37-.21.6-.3.24-.08.51-.12.8-.12.34,0,.65.04.92.15.27.1.52.26.7.48.19.22.34.52.45.87.1.35.15.79.15,1.32v5.01m-14.01,0h-1.3v-4.92c0-.65-.11-1.11-.33-1.39-.22-.27-.55-.42-.99-.42-.38,0-.7.1-.96.29-.26.19-.46.37-.61.56v5.89h-1.29v-7.64h1.17v.87h.03c.03-.07.1-.16.21-.29.11-.12.24-.24.42-.35.16-.11.37-.21.6-.3.23-.08.49-.12.79-.12.34,0,.65.04.93.15.28.1.51.26.69.48.2.22.34.52.45.87.11.35.16.79.16,1.32v5.01m-7.4,0h-1.29v-4.92c0-.65-.11-1.11-.33-1.39-.22-.27-.55-.42-.99-.42-.38,0-.7.1-.97.29-.25.19-.45.37-.6.56v5.89h-1.28v-11.26l1.28-.14v4.54h.03c.04-.07.11-.14.2-.25.1-.11.22-.21.38-.32.15-.11.35-.2.58-.27.22-.08.49-.12.8-.12.67,0,1.2.22,1.59.65.4.44.58,1.16.58,2.17v5.01m-16.23,0h-1.24l-1.67-6.91c-.12-.48-.22-.92-.31-1.34-.08-.42-.13-.75-.14-.99h-.03c0,.24-.04.57-.12.97-.09.41-.19.85-.31,1.33l-1.7,6.94h-1.24l-2.61-10.99h1.48l1.36,6.7c.11.51.21.99.29,1.44.08.45.12.8.13,1.04h.03c.01-.24.07-.6.16-1.07.1-.47.21-.96.33-1.45l1.62-6.66h1.33l1.59,6.69c.11.51.22.99.32,1.44.09.45.14.8.15,1.04h.03c.01-.24.06-.6.14-1.08s.19-.96.29-1.47l1.38-6.62h1.41l-2.68,10.98m-14.68,0h-1.3v-7.64h1.18v1.03h.03c.05-.14.13-.29.21-.43.09-.15.2-.27.32-.38.13-.12.29-.2.46-.26.18-.07.38-.1.63-.1.18,0,.33.02.44.05.11.02.2.05.26.08l-.17,1.14s-.1-.04-.21-.08c-.1-.03-.24-.05-.43-.05-.41,0-.71.11-.94.33-.23.22-.4.46-.48.71v5.6m-4.76-9.03c-.21,0-.38-.08-.54-.22-.15-.15-.22-.35-.22-.59s.07-.44.22-.59c.14-.14.33-.22.54-.22.22,0,.4.08.55.22.14.15.22.35.22.59s-.08.44-.22.59c-.15.14-.33.22-.55.22m-2.45,0c-.22,0-.4-.08-.54-.22-.15-.15-.23-.35-.23-.59s.08-.44.23-.59c.14-.14.32-.22.54-.22s.4.08.54.22c.15.15.23.35.23.59s-.08.44-.23.59c-.14.14-.33.22-.54.22m127.14-.46c-.26,0-.47-.09-.64-.25-.15-.18-.23-.4-.23-.67s.08-.48.23-.66c.16-.16.37-.25.64-.25s.46.09.63.25c.15.18.24.4.24.66s-.09.49-.24.67c-.16.16-.36.25-.63.25m-38.66-6.38c-.34,0-.65-.06-.92-.15-.28-.1-.51-.26-.69-.48-.19-.22-.34-.52-.44-.87-.1-.36-.15-.79-.15-1.32v-5.02h1.3v4.92c0,.64.1,1.1.31,1.36.21.27.53.41.97.41.37,0,.68-.09.93-.27.26-.19.46-.37.62-.55v-5.87h1.29v7.66h-1.17v-.87h-.03c-.03.07-.1.16-.21.29-.11.12-.24.23-.41.35-.17.11-.36.21-.59.29-.24.09-.49.13-.78.13m-13.89,0c-.48,0-.91-.09-1.31-.24-.38-.16-.71-.41-.99-.74-.26-.34-.47-.77-.63-1.27-.14-.52-.22-1.14-.22-1.86s.08-1.27.23-1.77c.15-.49.36-.9.63-1.22.26-.32.57-.55.92-.7.35-.15.72-.23,1.13-.23.74,0,1.31.23,1.72.69.42.46.62,1.15.62,2.08,0,.33-.01.62-.02.86-.02.24-.04.45-.07.63h-3.91c.04.9.24,1.57.58,2,.35.42.85.64,1.49.64.22,0,.43-.03.6-.09s.34-.11.47-.19c.13-.08.24-.15.33-.23l.2-.16.48.9c-.05.05-.13.13-.24.23-.1.1-.24.21-.43.31-.18.1-.41.19-.67.26-.26.07-.57.11-.93.11m-.31-6.97c-.46,0-.82.19-1.1.57-.27.38-.44.93-.48,1.66h2.79c.01-.06.02-.13.02-.23.01-.1.01-.21.01-.33,0-.53-.1-.94-.32-1.23-.21-.3-.52-.44-.92-.44m-4.82,6.97c-.66,0-1.15-.19-1.48-.55-.33-.36-.49-.98-.49-1.82v-4.42h-.92v-.86l.92-.2.14-2.13h1.14v2.13h1.83l-.16,1.05h-1.67v4.24c0,.54.08.91.21,1.11.14.2.37.3.7.3.19,0,.35-.03.49-.09.13-.05.24-.1.3-.14l.18,1.04s-.18.1-.37.2c-.21.09-.47.13-.81.13m-6.24,0c-.31,0-.58-.03-.81-.1-.23-.05-.44-.13-.61-.22-.18-.09-.32-.18-.44-.27-.11-.1-.21-.2-.28-.29l.63-1.02c.07.07.14.14.23.23.09.08.2.16.33.24.12.09.26.15.43.2.15.05.34.09.56.09.37,0,.67-.09.87-.25.21-.18.31-.38.31-.63,0-.18-.02-.34-.07-.47-.05-.13-.12-.25-.22-.35-.1-.11-.21-.21-.35-.31-.14-.1-.3-.2-.48-.32l-.47-.31c-.48-.31-.86-.63-1.12-.97-.27-.34-.41-.78-.41-1.31,0-.29.06-.55.17-.79.11-.24.26-.44.47-.61.2-.18.44-.32.7-.42.28-.1.56-.15.87-.15s.56.03.77.09c.21.05.4.13.55.22.15.1.29.19.38.27.1.09.19.16.24.23l-.55.92c-.09-.1-.24-.23-.47-.38-.22-.16-.51-.25-.87-.25-.34,0-.6.08-.78.24-.19.15-.27.35-.27.57,0,.29.08.53.24.71.17.19.42.38.76.59l.48.29c.52.31.92.64,1.23,1,.3.35.44.81.44,1.37,0,.6-.21,1.12-.63,1.53-.42.42-1.02.63-1.81.63m-30.75,0c-.31,0-.57-.03-.81-.1-.23-.05-.44-.13-.61-.22-.16-.09-.32-.18-.43-.27-.12-.1-.22-.2-.29-.29l.62-1.02c.07.07.14.14.23.23.09.08.2.16.33.24.13.08.27.15.43.2.17.05.35.09.56.09.38,0,.67-.09.88-.25.2-.18.3-.38.3-.63,0-.18-.02-.34-.07-.47-.05-.13-.12-.25-.22-.35-.09-.11-.21-.21-.35-.31-.13-.1-.3-.2-.47-.32l-.48-.31c-.47-.31-.85-.63-1.12-.97-.27-.34-.41-.78-.41-1.31,0-.29.05-.55.16-.79.11-.24.27-.44.47-.61.2-.18.44-.32.71-.42.26-.1.56-.15.87-.15s.55.03.76.09c.22.05.4.13.55.22.15.1.29.19.38.27.1.09.19.16.25.23l-.56.92c-.09-.1-.24-.23-.46-.38-.23-.16-.52-.25-.88-.25-.34,0-.6.08-.78.24-.19.15-.28.35-.28.57,0,.29.09.53.25.71.17.19.42.38.76.59l.47.29c.52.31.93.64,1.23,1,.3.35.44.81.44,1.37,0,.6-.21,1.12-.63,1.53-.42.42-1.02.63-1.81.63m-5.46,0c-.48,0-.91-.09-1.3-.24-.4-.16-.73-.41-.99-.74-.28-.34-.48-.77-.64-1.27-.14-.52-.22-1.14-.22-1.86s.08-1.27.23-1.77c.15-.49.36-.9.63-1.22.26-.32.58-.55.92-.7.35-.15.74-.23,1.13-.23.74,0,1.31.23,1.72.69.42.46.63,1.15.63,2.08,0,.33-.01.62-.03.86-.02.24-.04.45-.07.63h-3.9c.03.9.23,1.57.57,2,.35.42.85.64,1.49.64.22,0,.43-.03.6-.09.19-.05.34-.11.47-.19.13-.08.24-.15.34-.23l.2-.16.47.9c-.06.05-.13.13-.24.23-.1.1-.24.21-.43.31-.18.1-.39.19-.67.26-.26.08-.57.11-.93.11m-.31-6.97c-.45,0-.82.19-1.1.57-.27.38-.43.93-.47,1.66h2.79c.01-.06.01-.13.02-.23,0-.1.01-.21.01-.33,0-.53-.11-.94-.32-1.23-.22-.3-.53-.44-.93-.44m-7.53,6.97c-.36,0-.7-.08-1.03-.22-.32-.14-.6-.37-.85-.68-.25-.32-.44-.71-.58-1.21-.14-.49-.22-1.1-.22-1.79,0-.78.11-1.43.31-1.94.2-.53.46-.94.78-1.26.32-.32.68-.55,1.09-.68.39-.13.8-.2,1.21-.2.24,0,.45.02.64.05.18.04.33.09.44.14v-3.67l1.3-.14v11.41h-1.18v-.81h-.03c-.03.05-.1.14-.18.26-.09.11-.21.22-.35.33-.15.11-.34.21-.56.29-.22.08-.48.12-.78.12m.8-6.89c-.3,0-.58.05-.83.15-.26.1-.49.26-.68.51-.2.23-.34.54-.45.9-.12.37-.18.83-.18,1.37s.04.98.14,1.33c.09.36.21.65.37.87.15.22.34.37.54.47.2.09.42.14.64.14.2,0,.38-.03.54-.09.17-.05.3-.12.42-.2.12-.08.22-.16.3-.24l.19-.23v-4.71c-.12-.08-.25-.14-.41-.19-.15-.05-.35-.09-.58-.09m-15.7,6.89c-.34,0-.65-.06-.92-.15-.26-.1-.49-.26-.69-.48-.19-.22-.33-.52-.44-.87-.1-.36-.14-.79-.14-1.32v-5.02h1.29v4.92c0,.64.1,1.1.31,1.36.21.27.54.41.97.41.37,0,.69-.09.94-.27.25-.19.45-.37.6-.55v-5.87h1.29v7.66h-1.18v-.87h-.03c-.03.07-.1.16-.21.29-.1.12-.24.23-.41.35-.16.11-.36.21-.59.29-.23.09-.49.13-.78.13m98.71-.19h-1.3v-4.92c0-.64-.11-1.09-.33-1.36-.22-.27-.55-.42-.99-.42-.36,0-.66.09-.9.26-.24.18-.43.35-.56.51.02.12.03.24.04.37.01.13.02.27.02.43v5.13h-1.3v-4.93c0-.63-.1-1.08-.27-1.35-.18-.27-.47-.42-.88-.42-.21,0-.39.03-.56.09-.16.04-.31.11-.44.2-.13.08-.24.16-.34.26-.09.09-.16.18-.23.25v5.9h-1.3v-7.66h1.19v.87h.03c.04-.09.13-.2.23-.32.11-.12.24-.24.41-.35.15-.11.34-.2.55-.27.22-.08.46-.11.73-.11.87,0,1.48.34,1.85,1.02.08-.11.18-.22.31-.34.12-.13.27-.24.44-.34.18-.1.36-.19.57-.24.22-.07.45-.1.7-.1,1.55,0,2.33.9,2.33,2.71v5.13m-18.63,0h-1.3v-7.66h1.3v7.66m-4.63,0h-1.3v-7.66h1.19v1.04h.02c.06-.15.13-.3.21-.44.09-.14.2-.27.32-.38.13-.11.29-.2.46-.26.18-.07.38-.1.63-.1.18,0,.33.02.44.05.11.03.2.05.26.08l-.16,1.14s-.1-.04-.21-.08c-.1-.03-.24-.04-.43-.04-.41,0-.71.11-.94.32-.23.22-.4.46-.48.71v5.61m-20.1,0h-1.29v-7.66h1.29v7.66m-3.22,0h-1.29v-4.93c0-.65-.11-1.11-.33-1.39-.22-.27-.55-.42-1-.42-.37,0-.69.1-.96.29-.25.2-.45.38-.6.56v5.9h-1.29v-7.66h1.18v.87h.03c.03-.07.1-.15.21-.29.11-.12.24-.23.42-.34.16-.12.37-.22.6-.3.23-.09.49-.13.79-.13.34,0,.65.05.92.15.29.1.52.26.7.48.2.22.34.52.45.87.11.36.15.8.15,1.32v5.02m-7.44,0h-1.3v-7.66h1.3v7.66m-3.22,0h-1.3v-4.92c0-.64-.11-1.09-.33-1.36-.23-.27-.55-.42-.99-.42-.36,0-.66.09-.9.26-.24.18-.43.35-.57.51.02.12.04.24.06.37.01.13.01.27.01.43v5.13h-1.29v-4.93c0-.63-.09-1.08-.28-1.35-.17-.27-.47-.42-.88-.42-.21,0-.4.03-.56.09-.17.04-.31.11-.44.2-.13.08-.24.16-.33.26-.1.09-.18.18-.24.25v5.9h-1.3v-7.66h1.19v.87h.03c.04-.09.13-.2.23-.32.11-.12.24-.24.41-.35.15-.11.34-.2.55-.27.22-.08.45-.11.72-.11.87,0,1.48.34,1.85,1.02.08-.11.18-.22.3-.34.13-.13.27-.24.45-.34.17-.1.36-.19.57-.24.21-.07.45-.1.7-.1,1.55,0,2.33.9,2.33,2.71v5.13m-30.83,0h-1.3v-4.93c0-.65-.11-1.11-.32-1.39-.22-.27-.56-.42-1-.42-.39,0-.7.1-.96.29-.25.2-.46.38-.6.56v5.9h-1.3v-7.66h1.19v.87h.02c.03-.07.11-.15.21-.29.11-.12.25-.23.42-.34.18-.12.37-.22.6-.3.23-.09.51-.13.8-.13.34,0,.65.05.92.15.27.1.5.26.7.48.19.22.34.52.44.87.11.36.16.8.16,1.32v5.02m-18.31,0h-2.25v-10.99h2.12c.65,0,1.21.07,1.67.2.46.13.85.32,1.14.57.3.24.51.54.65.88.12.34.2.72.2,1.15,0,.38-.05.71-.14,1-.1.3-.23.54-.4.75-.16.21-.35.37-.57.51-.22.12-.44.22-.68.29v.03c.29.04.56.15.8.3.25.15.47.34.66.56.19.22.33.48.45.79.11.3.16.64.16,1,0,.43-.08.82-.23,1.19-.14.36-.37.68-.69.94-.31.26-.7.47-1.19.63-.47.14-1.04.22-1.7.22m-.86-5.01v3.86h.86c.81,0,1.41-.15,1.78-.48.36-.32.55-.8.55-1.44,0-.59-.2-1.07-.58-1.42-.4-.34-.94-.52-1.67-.52h-.93m0-4.89v3.79h.71c.75,0,1.31-.18,1.69-.54.37-.36.57-.87.57-1.5,0-.51-.19-.92-.54-1.25-.36-.33-.93-.49-1.71-.49h-.72m87.97.4c-.26,0-.48-.09-.64-.25-.16-.18-.24-.4-.24-.67s.08-.48.24-.66c.15-.16.37-.25.64-.25s.46.09.62.25c.16.18.24.4.24.66s-.08.49-.24.67c-.15.16-.36.25-.62.25m-24.73,0c-.26,0-.47-.09-.64-.25-.15-.18-.23-.4-.23-.67s.08-.48.23-.66c.16-.16.37-.25.64-.25s.46.09.63.25c.15.18.24.4.24.66s-.09.49-.24.67c-.16.16-.36.25-.63.25m-10.65,0c-.26,0-.48-.09-.64-.25-.16-.18-.24-.4-.24-.67s.08-.48.24-.66c.15-.16.37-.25.64-.25s.46.09.62.25c.16.18.24.4.24.66s-.08.49-.24.67c-.15.16-.36.25-.62.25"/>
      <path class="cls-2" d="m340.14,103.25c3.54,0,4.72-1.08,4.72-4.35v-52.11c0-3.27-1.18-4.36-4.72-4.36h-3.36c-3.54,0-4.72,1.08-4.72,4.36v52.11c0,3.27,1.18,4.35,4.72,4.35h3.36Z"/>
      <path class="cls-2" d="m397.59,103.25c3.53,0,4.71-1.08,4.71-4.35v-39.11c0-2.88,2.38-5.15,4.97-5.15h14.6c3.26,0,4.34-1.18,4.34-4.71v-2.8c0-3.53-1.09-4.71-4.34-4.71h-18.68c-7.64,0-13.65,5.45-13.65,15.48v41c0,3.26,1.18,4.35,4.71,4.35h3.35Z"/>
      <path class="cls-2" d="m417.92,68.31c3.26,0,4.35,1.18,4.35,4.7v2.26c0,3.53-1.09,4.71-4.35,4.71h-6.94c-3.26,0-4.35-1.18-4.35-4.71v-2.26c0-3.53,1.09-4.7,4.35-4.7h6.94Z"/>
      <path class="cls-2" d="m485.51,103.19c2.95,0,4.05-.72,5.06-3.71l16.49-52.04c.26-.73.43-1.54.43-2.18,0-1.72-1.02-2.89-3.37-2.89h-4.9c-2.7,0-3.37.63-4.21,3.26,0,0-10.21,33.85-11.3,38.92-1.1-5.07-11.3-38.92-11.3-38.92-.84-2.62-1.51-3.26-4.22-3.26h-4.9c-2.36,0-3.37,1.17-3.37,2.89,0,.64.17,1.45.42,2.18l16.49,52.04c1.01,2.99,2.11,3.71,5.06,3.71h3.62Z"/>
      <path class="cls-2" d="m466.56,82.79c-.03-.91-.23-1.72-.7-2.98l-3.3-10.27c-.38-.9-1-1.33-1.71-1.31-.79.03-1.62.5-1.94,1.51-.03.11-3.75,13.04-4.13,14.79-1.1-5.07-11.31-38.92-11.31-38.92-.84-2.62-1.51-3.26-4.21-3.26h-4.9c-2.36,0-3.37,1.17-3.37,2.89,0,.64.17,1.45.42,2.18l16.49,52.04c1.01,2.99,2.11,3.71,5.06,3.71h3.62c2.96,0,4.05-.72,5.06-3.71l4.28-13.5s.66-2.23.62-3.18h0Z"/>
      <path class="cls-2" d="m378.69,103.24c2.18,0,3.36-.91,3.36-2.27,0-.73-.36-1.54-1.09-2.54l-18.88-25.69c-.18-.27-.27-.55,0-.91l17.52-24.15c.82-1.09,1.27-2.09,1.27-3,0-1.45-1.18-2.27-3.54-2.27h-5.63c-2.36,0-3.72.46-5.36,2.63l-15.16,21.16c-1.72,2.18-2.54,3.77-2.54,5.99,0,2.95.64,4.09,2.54,6.72l15.52,21.69c1.54,2.18,2.63,2.63,5.54,2.63h6.45Z"/>
    </g>
  </g>
</svg>