<svg xmlns="http://www.w3.org/2000/svg" width="108.266" height="33.151" viewBox="-0.07 -0.035 108.266 33.151"><g data-name="Gruppe 979" clip-path="url(&quot;#a&quot;)"><path d="M108.196 11.4V6.61h-1.574c-3.217 0-5.875 2.622-5.875 5.874v8.183a7.656 7.656 0 0 1-7.658 7.658 7.656 7.656 0 0 1-7.658-7.658v-8.253a5.865 5.865 0 0 0-5.875-5.875 5.865 5.865 0 0 0-5.875 5.875v8.253a7.656 7.656 0 0 1-7.658 7.658 7.656 7.656 0 0 1-7.659-7.658v-8.253c0-3.217-2.622-5.875-5.84-5.875H-.035v4.791h8.638v2.658H4.756c-2.588.14-4.581 2.238-4.756 4.79h50.986c-.035-1.923-1.26-3.636-3.043-4.37a4.38 4.38 0 0 0-1.888-.42H42.383V11.33h10.211c.595 0 1.05.49 1.05 1.05V20.666c0 6.854 5.594 12.45 12.449 12.45 6.889 0 12.449-5.596 12.449-12.45v-8.253c0-.594.49-1.049 1.049-1.049.594 0 1.049.49 1.049 1.05v8.252c0 6.854 5.595 12.45 12.449 12.45 6.89 0 12.45-5.596 12.45-12.45v-8.253c0-.594.454-1.049 1.048-1.049h1.609v.035Zm-68.4 0v2.658H11.12V11.4h28.675Zm66.826-6.61h1.574V0h-1.574c-6.889 0-12.449 5.595-12.449 12.45v8.217c0 .595-.49 1.05-1.049 1.05-.594 0-1.05-.49-1.05-1.05v-8.253c0-6.854-5.594-12.449-12.448-12.449-6.89 0-12.45 5.595-12.45 12.45v8.252c0 .595-.489 1.05-1.049 1.05-.594 0-1.049-.49-1.049-1.05v-8.253c0-6.854-5.595-12.449-12.449-12.449H-.035v4.79h52.63a7.656 7.656 0 0 1 7.658 7.66v8.252a5.865 5.865 0 0 0 5.874 5.875 5.865 5.865 0 0 0 5.875-5.875v-8.253a7.656 7.656 0 0 1 7.659-7.658 7.656 7.656 0 0 1 7.658 7.658v8.253a5.865 5.865 0 0 0 5.875 5.875 5.865 5.865 0 0 0 5.875-5.875v-8.253c-.07-4.196 3.322-7.588 7.553-7.623ZM9.162 20.633H-.07v5.246h9.232v-5.246Zm1.259 5.246h9.232v-5.246H10.42v5.246Zm10.42 0h9.233v-5.246h-9.232v5.246Zm10.457 0h9.232v-5.246h-9.232v5.246Zm10.456 0h9.232v-5.246h-9.232v5.246Zm9.232 1.783H-.035v.105c.14 2.588 2.238 4.65 4.896 4.72h41.264a4.38 4.38 0 0 0 1.888-.419c1.819-.84 2.973-2.553 2.973-4.406" fill="#fff" fill-rule="evenodd" data-name="Pfad 855"/></g><defs><clipPath id="a"><path d="M0 0h247.76v74.205H0V0z" data-name="Rechteck 1168"/></clipPath></defs></svg>