<?xml version="1.0" encoding="UTF-8" standalone="no"?>
<svg
   class="SectionHeader-logo"
   viewBox="0 0 215 44"
   preserveAspectRatio="xMinYMin slice"
   width="215"
   height="44"
   version="1.1"
   id="svg12"
   sodipodi:docname="logo_weiss.svg"
   inkscape:version="1.1.2 (b8e25be833, 2022-02-05)"
   xmlns:inkscape="http://www.inkscape.org/namespaces/inkscape"
   xmlns:sodipodi="http://sodipodi.sourceforge.net/DTD/sodipodi-0.dtd"
   xmlns="http://www.w3.org/2000/svg"
   xmlns:svg="http://www.w3.org/2000/svg">
  <defs
     id="defs16" />
  <sodipodi:namedview
     id="namedview14"
     pagecolor="#ffffff"
     bordercolor="#666666"
     borderopacity="1.0"
     inkscape:pageshadow="2"
     inkscape:pageopacity="0.0"
     inkscape:pagecheckerboard="0"
     showgrid="false"
     inkscape:zoom="5.455814"
     inkscape:cx="107.5"
     inkscape:cy="21.994885"
     inkscape:window-width="1920"
     inkscape:window-height="1137"
     inkscape:window-x="-8"
     inkscape:window-y="-8"
     inkscape:window-maximized="1"
     inkscape:current-layer="svg12" />
  <g
     fill="none"
     fill-rule="evenodd"
     transform="translate(0 -.462)"
     id="g10"
     style="fill:#ffffff">
    <path
       fill="#003F67"
       d="M4.91925929 33.7076532C2.82949856 33.7076532.000160544998 33.621494.000160544998 32.6635755L.000160544998 2.45061237C.000160544998 1.49269388 3.7429996 1.40599958 4.91925929 1.40599958 5.70271888 1.40599958 6.48671362 1.66715277 6.48671362 2.58118896L6.48671362 16.0332544 17.3261767 2.45061237C18.1529835 1.40599958 20.7650506 1.40599958 22.4197344 1.40599958 23.0720822 1.40599958 24.2911539 1.44988188 24.2911539 2.36391807 24.2911539 2.75564786 24.073883 3.27795426 23.4648823 3.9303021L13.3216493 16.6427902 25.0318015 31.1394684C25.5979902 31.8362337 25.8147259 32.3146578 25.8147259 32.7063875 25.8147259 33.6653763 24.5961894 33.7076532 23.9433064 33.7076532 22.2891578 33.7076532 19.720973 33.6653763 18.8936311 32.6196932L6.48671362 17.2517909 6.48671362 32.4891167C6.48671362 33.3164585 5.78994832 33.7076532 4.91925929 33.7076532M39.3138845 31.3569533C39.3138845 32.3148718 39.0527313 32.7932959 38.3998483 33.0116371 36.7885117 33.5334083 35.7010869 33.7084024 34.3509035 33.7084024 30.9981888 33.7084024 28.5616508 32.1842952 28.5616508 27.3090788L28.5616508 10.7649167C28.5616508 9.80699824 32.1316365 9.76472139 33.1318318 9.76472139 33.9152914 9.76472139 34.7426333 10.1564512 34.7426333 10.8521462L34.7426333 26.1328191C34.7426333 27.3518908 34.8732099 27.9614266 35.9622401 27.9614266 36.6151231 27.9614266 37.3541652 27.7441557 38.0081185 27.7002734 38.7038135 27.7002734 39.3138845 30.39957 39.3138845 31.3569533M28.6043558 1.66709926C28.6043558.709180771 32.0437648.622486472 33.1317248.622486472 33.9590667.622486472 34.7425262 1.05702827 34.7425262 1.79767586L34.7425262 6.2811625C34.7425262 7.06569239 33.9590667 7.49969904 33.1317248 7.49969904 32.0437648 7.49969904 28.6043558 7.37072789 28.6043558 6.4128094L28.6043558 1.66709926z"
       id="path2"
       style="fill:#ffffff" />
    <path
       fill="#93C01F"
       d="M153.338187,1.66709926 C153.338187,0.709180771 156.777596,0.622486472 157.865556,0.622486472 C158.692897,0.622486472 159.476357,1.05702827 159.476357,1.79767586 L159.476357,6.2811625 C159.476357,7.06569239 158.692897,7.49969904 157.865556,7.49969904 C156.777596,7.49969904 153.338187,7.37072789 153.338187,6.4128094 L153.338187,1.66709926 Z"
       id="path4"
       style="fill:#ffffff" />
    <path
       fill="#003F67"
       d="M54.3343675 16.9910123C54.3343675 15.2057519 53.2019901 14.3789452 50.7643819 14.3789452 48.6746212 14.3789452 47.0643548 14.9451339 47.0643548 17.9483956L47.0643548 20.5171156C53.5509079 20.5171156 54.3343675 20.1248507 54.3343675 17.6438953L54.3343675 16.9910123zM51.5478415 33.7074926C44.6700938 33.7074926 41.1006433 31.8788851 41.1006433 24.1304484L41.1006433 18.0350899C41.1006433 12.5498025 43.9299813 9.76434678 50.5460407 9.76434678L51.0255351 9.76434678C58.6872776 9.76434678 60.298079 12.5069905 60.298079 17.0777066L60.298079 18.1228545C60.298079 23.3475239 57.5554353 25.1750611 47.0643548 25.1750611 47.0643548 27.9177049 48.9796567 28.5705879 53.0286015 28.5705879 55.292286 28.5705879 58.1226943 28.0482815 59.2095839 28.0043992 59.6890783 28.0043992 60.2113847 28.1360461 60.2113847 31.182655 60.2113847 32.1405735 60.2113847 32.6195327 59.4279251 32.8806859 57.6431999 33.4029923 54.0732143 33.7074926 51.5478415 33.7074926L51.5478415 33.7074926zM75.7121648 31.6616142C75.7121648 32.4450738 75.4071293 32.8373388 74.8409407 33.0107273 73.2306743 33.534104 72.1421792 33.7074926 70.7491838 33.7074926 67.3975394 33.7074926 65.0038135 32.1849909 65.0038135 27.308169L65.0038135 1.49253333C65.0038135.578497143 68.5293816.534614844 69.5739944.534614844 70.357454.534614844 71.1414487.927414939 71.1414487 1.62418023L71.1414487 26.1335148C71.1414487 27.3520513 71.2714902 27.961052 72.4044027 27.961052 73.0572857 27.961052 73.7963279 27.7443163 74.4063989 27.700434 75.3643173 27.700434 75.7121648 31.2704196 75.7121648 31.6616142"
       id="path6"
       style="fill:#ffffff" />
    <path
       fill="#93C01F"
       d="M85.2034781 7.67447903L85.2034781 16.5991755 90.6459535 16.5991755C94.8249398 16.5991755 95.2600168 15.9462925 95.2600168 12.7685718L95.2600168 11.5056178C95.2600168 8.37124432 94.8249398 7.67447903 90.6459535 7.67447903L85.2034781 7.67447903zM78.7174602 2.97265118C78.7174602 2.27588589 79.5009198 1.84187925 80.3282617 1.84187925L90.2970357 1.84187925C98.3943903 1.84187925 102.008258 3.71329877 102.008258 11.5056178L102.008258 12.7685718C102.008258 18.2099769 100.310227 20.7786969 96.3923942 21.7794274L102.094417 31.3131245C102.4428 31.9231955 102.617259 32.3582725 102.617259 32.70612 102.617259 33.6212265 100.919763 33.7073856 100.570845 33.7073856 99.3094968 33.7073856 96.2179353 33.6212265 95.6078643 32.5755434L89.4258115 22.4323104 85.2034781 22.4323104 85.2034781 32.5755434C85.2034781 33.2723087 84.4200185 33.7073856 83.5926766 33.7073856 82.5047167 33.7073856 78.7174602 33.5773442 78.7174602 32.6194257L78.7174602 2.97265118zM118.467171 16.9910123C118.467171 15.2057519 117.334793 14.3789452 114.897185 14.3789452 112.807425 14.3789452 111.197158 14.9451339 111.197158 17.9483956L111.197158 20.5171156C117.683711 20.5171156 118.467171 20.1248507 118.467171 17.6438953L118.467171 16.9910123zM115.680645 33.7074926C108.802897 33.7074926 105.233447 31.8788851 105.233447 24.1304484L105.233447 18.0350899C105.233447 12.5498025 108.062785 9.76434678 114.678844 9.76434678L115.158338 9.76434678C122.820081 9.76434678 124.430882 12.5069905 124.430882 17.0777066L124.430882 18.1228545C124.430882 23.3475239 121.688239 25.1750611 111.197158 25.1750611 111.197158 27.9177049 113.11246 28.5705879 117.16194 28.5705879 119.425089 28.5705879 122.255498 28.0482815 123.342387 28.0043992 123.821882 28.0043992 124.344188 28.1360461 124.344188 31.182655 124.344188 32.1405735 124.344188 32.6195327 123.560728 32.8806859 121.774933 33.4029923 118.206018 33.7074926 115.680645 33.7074926L115.680645 33.7074926zM141.934354 15.7717265C141.934354 15.3805319 139.147828 14.8576904 137.49368 14.8576904 135.665607 14.8576904 135.055536 16.3379152 135.055536 17.9492519L135.055536 25.3498411C135.055536 27.0034546 135.665607 28.4836795 137.49368 28.4836795 139.279475 28.4836795 140.932554 28.0486025 141.934354 27.4390667L141.934354 15.7717265zM141.934354 34.5351556L141.934354 32.0092477C139.844594 33.0110484 137.49368 33.7078137 135.621725 33.7078137 129.048478 33.7078137 128.917901 29.6155217 128.917901 25.2181942L128.917901 18.1659876C128.917901 12.4200821 130.877085 9.76413272 136.971373 9.76413272 139.061134 9.76413272 148.072525 10.6348218 148.072525 13.7697304L148.072525 34.4907382C148.072525 40.7605555 145.11261 43.5460112 137.88648 43.5460112 135.578378 43.5460112 132.574046 43.4165049 130.354779 42.9798225 129.353513 42.7630868 129.222937 42.1968981 129.222937 41.2828619 129.222937 39.9760256 129.745243 37.8434529 130.615932 37.8434529 131.660545 37.9740295 134.185918 38.4096416 136.667408 38.4096416 140.932554 38.4096416 141.934354 37.2344522 141.934354 34.5351556L141.934354 34.5351556zM163.833976 31.3569533C163.833976 32.3148718 163.572823 32.7932959 162.91994 33.0116371 161.308604 33.5334083 160.221714 33.7084024 158.872066 33.7084024 155.518281 33.7084024 153.081743 32.1842952 153.081743 27.3090788L153.081743 10.7649167C153.081743 9.80699824 156.651728 9.76472139 157.651924 9.76472139 158.435383 9.76472139 159.262725 10.1564512 159.262725 10.8521462L159.262725 26.1328191C159.262725 27.3518908 159.393302 27.9614266 160.482332 27.9614266 161.135215 27.9614266 161.874792 27.7441557 162.528746 27.7002734 163.223905 27.7002734 163.833976 30.39957 163.833976 31.3569533M207.905451 17.7743649C207.905451 16.0774042 207.513722 15.4234509 205.685114 15.4234509 204.074313 15.4234509 201.114933 16.1640985 201.114933 16.5558283L201.114933 32.5321962C201.114933 33.3156558 200.286521 33.7079208 199.503061 33.7079208 198.458984 33.7079208 194.976763 33.6201562 194.976763 32.6627728L194.976763 13.72542C194.976763 11.9845771 200.85271 9.7637046 206.730797 9.7637046 213.390739 9.7637046 214.087504 12.7680367 214.087504 17.9927061L214.087504 32.5321962C214.087504 33.3156558 213.172398 33.7079208 212.388938 33.7079208 211.302048 33.7079208 207.905451 33.6201562 207.905451 32.6627728L207.905451 17.7743649zM190.168279 14.4346543C187.533736 10.4905988 183.215611 8.34839341 178.804904 8.31949531 174.394733 8.34839341 170.076073 10.4905988 167.440459 14.4346543 165.869794 16.7844979 165.117373 19.4420528 165.117373 22.0712447 165.117373 31.7633462 172.003148 37.7147493 178.68182 43.3006449 186.089901 37.1073541 192.491901 31.5219936 192.491901 22.0712447 192.491901 19.4420528 191.740015 16.7844979 190.168279 14.4346543zM187.820576 22.4667205C187.820576 27.438264 183.776448 31.4823925 178.804904 31.4823925 173.833896 31.4823925 169.789768 27.438264 169.789768 22.4667205 169.789768 17.4957123 173.833896 13.4521189 178.804904 13.4521189 183.776448 13.4521189 187.820576 17.4957123 187.820576 22.4667205M184.05098 22.4667205C184.05098 19.5731645 181.697925 17.2211803 178.804904 17.2211803 175.912419 17.2211803 173.559364 19.5731645 173.559364 22.4667205 173.559364 25.3597414 175.912419 27.7127959 178.804904 27.7127959 181.697925 27.7127959 184.05098 25.3597414 184.05098 22.4667205"
       id="path8"
       style="fill:#ffffff" />
  </g>
</svg>
