<?xml version="1.0" encoding="utf-8"?>
<!-- Generator: Adobe Illustrator 25.0.0, SVG Export Plug-In . SVG Version: 6.00 Build 0)  -->
<svg version="1.1" id="Ebene_1" xmlns="http://www.w3.org/2000/svg" xmlns:xlink="http://www.w3.org/1999/xlink" x="0px" y="0px"
	 viewBox="0 0 283.5 198.4" style="enable-background:new 0 0 283.5 198.4;" xml:space="preserve">
<style type="text/css">
	.st0{fill-rule:evenodd;clip-rule:evenodd;fill:#004A8F;}
	.st1{fill-rule:evenodd;clip-rule:evenodd;fill:#D6E8F7;}
	.st2{fill:#E94C1E;}
	.st3{fill:#004A90;}
	.st4{fill:#E8451E;}
	.st5{fill-rule:evenodd;clip-rule:evenodd;fill:#B6D2E7;}
	.st6{fill-rule:evenodd;clip-rule:evenodd;fill:#FFFFFF;}
</style>
<g>
	<path class="st0" d="M69.5,122.5c0-0.1,0-0.3,0.1-0.4c0-0.4-0.1-1-0.1-1.4c0-0.3,0.1-0.9,0.1-1.2c0.1-0.4-0.1-0.9-0.1-1.4
		c-0.1,0-0.1,0-0.2,0c0,0.3,0,0.7-0.1,1c-0.1,0.2-0.2,0.8-0.3,1c0,0.2-0.1,0.4-0.1,0.6c-0.1,0.3-0.4,0.8-0.3,1.2
		c0.1,0.3,0.1,0.5,0.2,0.8c-0.1,0-0.2,0.1-0.3,0.1c0,0,0,0-0.1,0c-0.1,0-0.3,0-0.4,0c-0.1-0.3,0-0.8,0-1.2c0-0.4,0-0.8-0.1-1.3
		c0.1-0.5,0.3-1.1,0.3-1.8c-0.1,0-0.1,0-0.2,0c0,0,0,0,0-0.1c0-0.1,0-0.2,0-0.2c-0.1,0-0.1,0-0.1-0.1c-0.2,0.1-0.6,0.2-0.9,0.1
		c0,0,0,0,0,0c0.1-0.4,0.2-0.7,0.3-1.1c0-0.3,0.3-1.9,0.3-2.2c-0.2-0.6-0.4-0.7-0.6-1.2c-0.1-0.2-0.2-0.1-0.3-0.3
		c0.1-0.1,0.1-0.1,0.2-0.2c-0.2-0.4,0-1.2,0.2-1.4c0-0.2-0.1-0.4-0.1-0.5c0-0.2,0.1-0.5,0.1-0.7c0.1-0.7,0-1.1,0.5-1.5
		c0.1-0.1,0.3,0,0.5-0.1c0.9-0.3,1.2,0.8,1.3,1.5c0.2,0,0.7-0.2,0.9-0.3c0.2-0.1,0.4-0.2,0.6-0.3c0.4-0.3,0.4-1.5,0.3-2.1
		c0.1-0.1,0.2-0.1,0.3-0.2c0,0,0,0,0.1,0c0.1,0.2,0.1,0.3,0.1,0.5c0.3,0.1,0.7,0.3,1,0.3c0,0,0,0,0,0c-0.3-0.3-0.4-1.1,0-1.4
		c0.5-0.4,1.2-0.1,1.2,0.4c0.2-0.4,0.4-0.8,0.6-1.2c-0.1-0.1-0.1-0.4-0.1-0.7c0.1-0.1,0.5-0.4,0.7-0.3c0.1,0.1,0.1,0.6,0.1,0.8
		c0.1,0.3,1.1,1.5,1.2,1.5c0.4,0.1,0.8,0.2,1.1,0.2c0.3,0,0.6-0.1,0.9,0c0,0,0,0.1,0.1,0.1c0.1,0,0.3-0.1,0.4-0.1
		c-0.1-0.4-0.3-0.7-0.4-1.1c0.1-0.1,0.1-0.1,0.2-0.1c0,0,0,0,0,0c-0.3-0.7,0.7-1.2,1.2-1.1c0.3,0,0.4,0.3,0.7,0.4
		c0.3,0.6-0.3,1.2-0.6,1.6c0,0,0,0.1,0,0.1c0.1,0,0.1,0,0.2,0.1c0,0.1,0.1,0.2,0.1,0.3c0.3,0.1,0.8,0.2,1,0.5
		c0.2,0.3,0.4,0.8,0.5,1.2c0,0.1-0.1,0.2-0.1,0.4c0.1,0.2,0.1,0.4,0.2,0.6c0,0.3,0.1,0.6,0.1,0.9c0.1,0.5,0.3,1.1,0.2,1.7
		c-0.1,0.2-0.4,0.4-0.5,0.5l-0.1,0c0.1-0.2,0.2-0.4,0.2-0.6c0,0,0-0.1,0-0.1c0,0,0,0-0.1,0c0,0.1-0.1,0.2-0.1,0.3c0,0,0,0-0.1,0
		c-0.4-0.3,0.1-0.8,0.1-1.2c-0.1-0.3-0.2-0.5-0.3-0.8c-0.1-0.4-0.2-0.8-0.3-1.2c0,0,0,0,0,0c0,0-0.1,0-0.1,0c-0.1,0.1,0,0.5-0.1,0.7
		c0,0.2,0,0.3,0,0.6c-0.1,0.4-0.2,0.8-0.1,1.3c0,0.2,0.1,0.5,0.1,0.7c-0.1,0.9-0.4,1.7-0.6,2.5c0,0,0,0,0,0c0,0.1,0,0.1,0.1,0.2
		c0,0.1-0.1,0.3-0.1,0.4c0,0.2,0.2,0.4,0.1,0.7c-0.1,0.5-0.2,1-0.4,1.6c-0.2,0.1-0.5,0.1-0.7,0.2c0-0.2,0-0.4,0-0.6c0-0.1,0-0.9,0-1
		c-0.1-0.3-0.2-0.1-0.1-0.5c0,0-0.1,0-0.1,0c-0.1,0.2,0.1,0.5,0,0.6c-0.1,0.4-0.2,1-0.3,1.6c-0.2,0.1-0.4,0.1-0.6,0.2
		c-0.1-0.7-0.3-1.5-0.4-1.7c-0.1-0.3,0.2-0.7,0.2-0.9c0,0-0.1-0.2-0.1-0.4c0,0,0.1,0,0.1-0.1c-0.2-0.8-0.5-1.9-0.3-3
		c0-0.2,0.1-0.4,0.1-0.6c-0.1,0-0.2,0-0.2-0.1c-0.1-1.2,0.7-2.4,0.1-3.5c-0.1-0.2-0.3-0.2-0.4-0.3c-0.1-0.1-0.1-0.2-0.2-0.3
		c-0.2-0.1-0.4-0.3-0.7-0.4c-0.2-0.1-0.5-0.1-0.7-0.3c-0.2-0.2-0.8-1.5-1-1.6c-0.1,0.1-0.6,1.3-0.7,1.5c0.3,0.7,0.3,1.2-0.1,1.7
		c0,0,0,0.1,0,0.1c0.1,0.1,0.1,0,0.1,0.1c0,0.1,0,0.2,0,0.2c0,0-0.1,0.1-0.1,0.1s-0.1,0.4-0.2,0.4c-0.1,0-0.2,0-0.1-0.2
		c0-0.2,0.1-0.2,0-0.3c-0.1,0.1-0.2,0.2-0.4,0.3c-0.1,0.2,0,0.3,0.1,0.4c0,0-0.1,0.1-0.1,0.1c-0.2,0.1-0.7-0.1-0.7-0.2
		c-0.1-0.3,0.3-0.1,0.2-0.2c-0.1-0.3-0.3-0.7-0.1-1c-0.1-0.1-0.1-0.3-0.1-0.4c-0.4-0.2-0.8-0.3-1.2-0.5c0,0.4,0.2,1.1,0,1.6
		c-0.1,0.1-0.8,0.6-1,0.7c-0.1,0.2,0,0.5,0,0.7c-0.1,0.4-0.7,1.7-0.5,2.2c0.2,0.5,0.8,2.1,0.9,2.3c0.1,0.3,0.4,0.5,0.4,0.9
		c-0.3,0.2-0.7,0.1-0.9,0.4c-0.3,0.7,0,1.9-0.1,2.7c-0.1,0.6-0.4,1.3-0.5,2C69.8,122.4,69.7,122.4,69.5,122.5"/>
	<path class="st1" d="M127.7,60.7c0.3-0.1,0.8-0.1,1.1-0.1c0.1,0,0.3,0,0.4,0c0.1-0.2,0.1-0.3,0.1-0.5c0.1-0.3,0.1-0.7,0.1-1
		c0-0.2,0-0.5,0-0.7c0-0.4,0-0.8,0.1-1.2c0.1-0.9,0.1-1.9,0.1-2.9v-1.6c0-0.2-0.1-0.5,0-0.7v0c0,0,0,0.2,0,0.3c0-0.1,0-0.3,0-0.4
		c0-0.2,0-0.3,0-0.5c0-0.1-0.1-0.2-0.1-0.4c0,0,0,0.1,0,0.1h0c0-0.1-0.1-0.3-0.1-0.4c0,0,0,0,0,0c-0.1,0.2-0.1,0.4-0.2,0.6
		c0,0.5-0.1,1-0.1,1.4c0,0.2-0.1,0.4-0.2,0.6c0,0,0,0,0,0c0,0,0,0,0-0.1c0,0,0,0.1,0,0.2c0,0.1,0,0.2-0.1,0.3c0,0.1,0,0.3,0,0.4
		c-0.1,0.3-0.1,0.7-0.1,1.1c0,0.1,0,0.2,0,0.3c-0.1,0.8-0.2,1.7-0.4,2.5c-0.1,0.4-0.3,0.8-0.3,1.2c-0.1,0.3-0.2,0.6-0.3,0.9
		c0,0.1,0,0.2-0.1,0.3c0,0.1-0.2,0.4-0.2,0.4C127.3,60.8,127.6,60.7,127.7,60.7 M129,51.4L129,51.4L129,51.4
		C129,51.4,129,51.4,129,51.4 M128.2,61.8c0.1-0.1,0.3-0.1,0.4-0.2c0,0,0.1-0.1,0.1-0.1c0.1-0.1,0-0.1-0.1-0.1c-0.1,0-0.2,0-0.3,0
		c-0.3,0.1-0.6,0.1-0.9,0.1c-0.2,0.1-0.4,0.1-0.6,0.2c-0.1,0-0.2,0.1-0.3,0.2c0,0,0,0,0,0v0c0.5,0,0.9,0,1.3-0.1
		C128,61.8,128.1,61.8,128.2,61.8 M132.1,62.2c-0.4-0.2-1-0.2-1.6-0.2c-0.1,0-0.2,0-0.4,0c-0.3,0-0.7,0.1-1,0.1
		c-1,0.2-2,0.4-2.9,0.6c-0.7,0.2-1.2,0.6-1.7,1c-0.2,0.2-0.4,0.3-0.5,0.5v0c-0.3,0.2-0.4,0.6-0.6,0.9c-0.4,0.7-0.7,1.5-0.9,2.4
		c-0.1,0.5-0.1,1-0.1,1.5c0,0.2,0,0.4,0,0.6c-0.1,0.5,0,1.1-0.2,1.6c0,0.1-0.1,0.4-0.1,0.4c0,0,0.5-0.1,0.6-0.1
		c0.3-0.1,0.7-0.2,1-0.3c0.2,0,0.4,0,0.6-0.1c0.2-0.1,0.4-0.1,0.7-0.1c0.7-0.2,1.5-0.2,2.2-0.3c0.3,0,0.5,0,0.8-0.1
		c0.5,0,1,0,1.6-0.1c0.5,0,1.1,0,1.6,0.1c0.1,0,0.2,0,0.3,0c0,0,0,0,0,0c-0.1-0.3-0.3-0.5-0.4-0.8c-0.3-0.4-0.8-0.9-0.6-1.7
		c0.1-0.5,0.6-0.9,0.9-1.2c0.6-0.6,1.2-1.2,1.6-1.9c0.1-0.2,0.1-0.3,0.2-0.5c0.2-0.7-0.3-1.3-0.6-1.7
		C132.5,62.4,132.4,62.2,132.1,62.2 M129.4,71.1c-0.3,0-0.5,0-0.8,0c-0.4,0.1-1,0.1-1.4,0.1c-0.1,0-0.3,0-0.4,0
		c-0.7,0.1-1.5,0.2-2.2,0.3c-0.1,0-0.1,0-0.2,0c-0.5,0.1-0.9,0.2-1.4,0.3c-0.4,0.1-0.8,0.2-1.1,0.3c-0.1,0.2-0.1,0.5-0.3,0.7
		c-0.1,0.1-0.1,0.1-0.2,0.1c0,0,0,0,0,0c0,0,0,0,0.1,0.1c0.1,0,0.6-0.1,0.8-0.2c0.8-0.2,1.5-0.3,2.3-0.5c0.8-0.2,1.6-0.3,2.4-0.4
		c0.2,0,0.4,0,0.6-0.1c0.1,0,0.3,0,0.4,0c0.2,0,0.5,0,0.7-0.1h0.6c0.7,0,1.2,0.1,1.9,0.1c0,0,0,0-0.1-0.1c0.1-0.1,0.2-0.1,0.2-0.2
		c0.2-0.1,0.3-0.3,0.4-0.5c0,0,0,0,0-0.1C130.9,71.1,130.2,71.1,129.4,71.1 M115.8,76.3c0,0-0.9,0.3-1,0.3c0,0,0,0,0,0.1
		c-0.2,0-0.5,0.3-0.7,0.4c-0.6,0.4-1.1,0.8-1.6,1.2c-1.8,1.5-3.5,3.1-5.4,4.5c0,0,0,0,0,0c0.3,0.2,0.7,0.1,1-0.1
		c0.7-0.4,1.3-1,2-1.5c0.2-0.1,0.7-0.6,1.1-0.4c0.6,0.3-0.2,1.3,0.1,1.8c0.1,0.2,0.4,0.2,0.5,0.3c0.1,0.2-0.1,0.4-0.1,0.5
		c-0.2,0.5-0.5,0.9-0.8,1.3c-0.8,1.1-1.6,2.2-2.4,3.4c-0.2,0.3-0.8,1-0.8,1.4c0,0,0.1,0,0.1,0.1c0,0,0,0-0.1,0.1
		c0.1,0,0.2,0,0.3-0.1c0.3-0.1,0.6-0.2,0.9-0.3c0.8-0.2,1.6-0.4,2.3-0.7c0.4-0.1,0.8-0.2,1.1-0.3c0.1-0.1,0.2,0,0.4-0.1
		c0.2-0.1,0.4-0.2,0.6-0.2c0.1,0,0.3-0.1,0.3-0.1c0-0.5,0-1,0-1.6c0-0.2,0-0.4,0.1-0.7c0.1-0.7,0.3-1.4,0.6-1.9
		c0.1-0.2,0.2-0.4,0.3-0.6c0-0.1-0.1-0.3-0.1-0.5c0.1-0.6,0.2-1.1,0.3-1.6c0.1-0.4,0.1-0.8,0.2-1.2c0-0.1,0-0.2,0-0.3
		c0.1-0.4,0.1-0.9,0.3-1.3c0.1-0.2,0.2-0.3,0.2-0.5v-0.2c0-0.1,0.1-0.3,0.1-0.4c0-0.1,0-0.1,0-0.2C115.8,76.9,115.9,76.4,115.8,76.3
		C115.9,76.3,115.8,76.3,115.8,76.3 M101.7,81.4c-0.1-0.2-0.3-0.4-0.4-0.6c-0.1-0.1-0.3-0.3-0.2-0.6c0.1-0.5,0.4-0.8,0.6-1.2
		c0.1-0.2,0.2-0.4,0.2-0.5c0-0.1,0.2-0.5,0.2-0.7c-0.1-0.2-0.9-0.7-1.2-0.8v0c0,0,0,0,0,0c0,0,0,0,0,0h0c-0.1,0.1-0.4,0-0.5,0
		c-0.3,0.1-0.6,0.1-0.9,0.2c-0.1,0.1-0.2,0.1-0.2,0.2c0,0,0,0.1,0,0.1c-0.1,0.1-0.3,0.2-0.4,0.3c-0.3,0.4-0.7,0.9-1,1.3
		c-0.2,0.3-0.3,0.7-0.5,1c-0.2,0.3-0.3,0.5-0.4,0.8c0,0.1-0.1,0.2-0.1,0.3c0,0,0,0-0.1,0h0c0,0.2-0.1,0.3-0.2,0.5
		c-0.2,0.3-0.3,0.7-0.5,1c-0.3,0.3-0.6,0.6-0.8,0.9c0,0,0,0,0,0c0.2,0,0.4-0.1,0.6-0.1c0.3-0.1,0.6-0.1,0.8-0.1c0.1,0,0.2,0,0.3,0
		c0.3,0,0.7-0.1,1-0.1c0.2,0,0.3,0,0.5,0c0.2,0,0.4,0,0.6-0.1h1.3c0.3,0,0.5,0,0.8,0c0.4,0.1,1.3,0.1,1.5-0.2
		c0.1-0.2-0.2-0.6-0.3-0.7C102,82,101.8,81.7,101.7,81.4 M157.3,89.5C157.3,89.5,157.3,89.5,157.3,89.5L157.3,89.5L157.3,89.5
		C157.3,89.4,157.2,89.4,157.3,89.5C157.2,89.4,157.2,89.4,157.3,89.5c-0.2-0.2-0.4-0.3-0.6-0.4c-0.5-0.3-1-0.6-1.5-0.9
		c-0.1-0.1-0.6-0.4-0.7-0.4c0,0,0,0,0-0.1c-0.4-0.1-0.7-0.3-1-0.5c-0.5-0.3-1.1-0.5-1.7-0.8c-0.6-0.2-1.3-0.3-1.9-0.5
		c-0.9-0.3-1.8-0.6-2.7-1c-0.3-0.1-0.7-0.3-1-0.5c-0.2-0.1-0.5-0.2-0.7-0.3c-0.2-0.1-0.6-0.3-0.8-0.4c0,0,0,0,0,0c0,0,0,0,0,0v0
		c-0.5-0.1-0.9-0.3-1.4-0.4c-0.1,0-0.3,0-0.4,0c-0.1,0-0.4-0.1-0.5-0.1c-0.1,0-0.3-0.1-0.4-0.1c-0.1,0-0.2,0-0.3,0
		c-0.1-0.1-0.2-0.3-0.3-0.4c-0.2-0.2-0.6-0.8-0.7-1c0-0.1,0.1-0.1,0.2-0.1c0.2,0,0.4-0.1,0.5,0c0.1,0.1,0.2,0.3,0.5,0.2
		c-0.1-0.9-0.9-0.7-1.6-1c-0.2-0.2-0.5-0.3-0.7-0.5c-0.6-0.4-1.2-0.7-1.8-1.1c-0.2-0.1-0.4-0.3-0.5-0.5c0-0.1-0.1-0.1-0.1-0.2
		c0,0.1,0,0.2,0,0.3c0,0.3,0,0.6-0.1,0.9v0.4c0,0.1,0,0.3,0,0.4c-0.1,0.6,0,1.4-0.1,2.1c0,0.2,0,0.5,0,0.6c0,0,0,0-0.1,0
		c-0.1-0.1-0.1-0.9-0.1-1c0,0,0,0,0,0c0,0.6,0,1.1,0,1.7c0,0.1,0,0.5,0,0.6c0,0.1,0.1,0.1,0.2,0.1c0,0,0,0,0,0v0h-0.2
		c0.1,0.1,0.1,0.3,0.1,0.5c0.1,0.1,0.1,0.3,0.2,0.4c0,0.1,0.1,0.1,0.2,0.2h0c0.1,0.1,0.5,0.2,0.5,0.3c0.1-0.1,0.2-0.1,0.2-0.2
		c0.3-0.1,0.7,0.1,1,0.1c0.8,0.1,1.5,0.3,2.3,0.5c0.7,0.1,1.4,0.3,2,0.5c0.5,0.1,0.9,0.2,1.4,0.3c1,0.3,2.1,0.5,3.1,0.7
		c0.6,0.1,1.2,0.3,1.7,0.4c0.1,0,0.1,0,0.2,0c0.1,0,0.3,0.1,0.4,0.1c0.1,0,0.1,0,0.2,0c0,0,0.1,0,0.1,0.1c0.1,0,0.2,0,0.3,0
		c0,0,0,0,0,0v0c0,0-0.1,0-0.1,0c0.1,0.1,0.2,0,0.4,0c0.3,0.1,0.7,0.1,1,0.2c0.6,0.1,1.2,0.3,1.7,0.4c0.4,0.1,0.8,0.2,1.1,0.4
		c0.1,0,0.1,0,0.2,0c0,0,0,0,0,0c0,0,0,0-0.1,0c0.1,0,0.2,0,0.3,0c0,0,0,0,0,0h0c0.1,0.1,0.4,0.1,0.5,0.1c0.3,0.1,1.5,0.3,1.6,0
		C157.5,89.7,157.4,89.5,157.3,89.5 M151.1,88.7L151.1,88.7L151.1,88.7C151,88.7,151,88.7,151.1,88.7 M92.5,91.9
		c-0.1-0.2-0.2-0.4-0.3-0.6c-0.7-0.8-2-0.9-3.3-1.2c-0.2,0-0.9-0.1-1.1,0c-0.1,0.1-0.2,0.2-0.2,0.3c-0.2,0.2-0.5,0.4-0.7,0.5
		c-0.1,0-0.9,0.2-0.9-0.1c-0.2,0-0.3,0.3-0.4,0.3c-0.3,0.2-0.9,0.6-1.4,0.6c0,0,0,0,0,0c0.1-0.1,0.2-0.2,0.3-0.3c0,0,0.1,0,0.1,0
		c0.1-0.1,0.2-0.1,0.3-0.2c0.1-0.2,0.2-0.4,0.4-0.6c0.2-0.3,0.3-0.5,0.4-0.8c0,0,0,0,0,0v0.1h0c0-0.1,0-0.2,0-0.2c0,0,0,0-0.1,0
		c-0.1,0-0.1,0-0.2,0c-0.2,0-0.4,0.1-0.6,0.2c-0.2,0.1-0.4,0.3-0.6,0.4c0,0,0,0-0.1,0c0,0,0,0.1-0.1,0.1c-1,0.8-1.8,2-2.3,3.3
		c-0.3,0.7-0.6,2-0.3,3c0.3,0.7,0.9,1.2,1.5,1.6c0.3,0.2,0.6,0.5,0.7,0.9c0.1,0.2-0.1,0.4-0.2,0.5c-0.1,0.2-0.3,0.3-0.4,0.4
		c-0.2,0.2-0.4,0.4-0.6,0.6c-0.2,0.3-0.3,1-0.1,1.4c0.4,0.7,1.1,1.3,1.8,1.6c1,0.4,3.1,1,3.5-0.4c0.1-0.5,0-1.2,0.1-1.7
		c0-0.3,0.1-0.6,0.1-0.8c0.2-0.7,0.4-1.1,0.8-1.6c0.1-0.1,0.6-0.7,0.8-0.7v-0.2c0.1,0,0.2-0.1,0.3-0.1c0,0,0,0,0,0c0,0,0,0,0,0
		c-0.1-0.1-0.1-0.1-0.2-0.2c0-0.1-0.1-0.2-0.1-0.2c-0.2-0.2-0.5-0.3-0.6-0.6c0-0.2,0-0.4,0-0.5c0,0,0,0,0,0
		c-0.4,0.1-0.5-0.2-0.4-0.6c0-0.1,0.4-0.4,0.5-0.5c0.8-0.6,1.5-1.3,2.3-2c0.3-0.2,0.5-0.5,0.8-0.7c0.1-0.1,0.3-0.2,0.3-0.3
		C92.5,92.3,92.6,92,92.5,91.9 M156.5,90L156.5,90c0,0-0.1,0-0.2,0C156.4,90,156.4,90,156.5,90"/>
	<path class="st0" d="M163.5,111.3c-0.2-0.4-0.2-0.6-0.5-0.9c-0.8-1.2-1.8-2.1-3.4-2.5c-0.3-0.1-0.7-0.1-1.1-0.2c-0.2,0-0.4,0-0.5,0
		c-0.3-0.1-0.6,0.1-0.9,0.1h0c-0.1-0.1,0-0.4,0-0.6c0-0.5,0-1,0-1.5c0-0.7,0-1.5,0.1-2.2c0-0.3,0-0.5,0-0.8c0-0.1,0.2-0.2,0.2-0.4
		c0-0.2,0-0.4-0.1-0.5c0,0-0.1-0.1-0.1-0.1c0-0.1,0-0.2,0-0.2c0-0.1,0-0.2,0-0.3c0-0.2,0.2-0.3,0.2-0.5c0,0-0.1,0-0.1,0
		c-0.1,0-0.1-0.1-0.1-0.2c0.1-0.1,0.3-0.1,0.4-0.2c0.2-0.2,0.1-0.7-0.1-0.8c-0.1-0.1-0.4,0-0.5-0.1c0,0,0,0,0,0
		c0.2-0.2,0.5-0.3,0.5-0.7c0,0,0,0,0,0c-0.1-0.1-0.9-0.1-1-0.1c-0.1,0.1,0,0.2,0,0.3c0,0.1,0,0.1,0,0.2c0,0.1,0.1,0.2,0.1,0.2
		c-0.1,0-0.2,0-0.3,0c-0.3,0.1-0.4,0.5-0.3,0.8c0,0.1,0,0.1,0,0.2c0.1,0.2,0.7,0.2,1,0.2c0,0.1,0,0.1,0,0.1c-0.1,0.1-0.4,0-0.5,0
		c-0.1,0-0.1,0.1-0.1,0.1c0.1,0.2,0,0.5,0.1,0.6c0.1,0.1,0.2,0.1,0.3,0.1c0,0.1,0,0.1,0,0.2c-0.3,0.2-0.6-0.2-0.8,0.1
		c-0.1,0.1-0.2,0.8,0,0.9c0.2,0.1,0.5,0.2,0.8,0.2c0,0,0,0,0,0c0,0.1,0,0.2,0,0.2c-0.2,0.1-0.5-0.1-0.5,0.1c0,0.1,0,0.2,0,0.3
		c0,0.1,0,0.1,0,0.2c0.1,0.3,0.2,0.3,0.5,0.3c0.1,0.2,0,0.8,0,1c0,0.9,0.1,1.9,0.1,2.8c-0.1,0.1-0.3,0.1-0.4,0.1c0,0,0,0,0,0
		c0-0.2,0.1-0.3,0.1-0.5c0-0.1,0-0.3,0-0.4c0-0.2,0.1-0.6,0-0.9c0-0.2,0-0.4-0.1-0.6c-0.1-0.5-0.2-1-0.4-1.4
		c-0.2-0.6-0.7-1.3-1.2-1.7c-0.1-0.1-0.7-0.4-0.7-0.5c0,0,0-0.6,0.1-0.7c0-0.5-0.1-1.1-0.1-1.6c0-0.2,0-0.4,0-0.7
		c-0.1-0.4-0.4-0.2-0.7-0.3c-0.5-0.1-1.9-0.5-2.2,0c0,0.1,0.1,0.1,0.2,0.1c0.1,0.3,0,0.7,0,1c0,0.6,0,1.2,0,1.8
		c-0.1,0.1-0.7,0.1-0.9,0.1c-0.4,0.1-0.8,0.1-1.1,0.2c-0.1,0-0.5,0.2-0.6,0.1c0-0.3,0-0.6,0-0.9c0-0.6,0-1.2-0.1-1.7
		c-0.1-0.4,0.1-0.8-0.1-1.1c-0.1-0.1-0.6-0.1-0.8-0.2c-0.4-0.1-0.7-0.2-1.1-0.2c-0.1,0-0.4-0.1-0.6,0c-0.1,0-0.2,0-0.3,0.1
		c-0.1,0-0.1,0.1-0.2,0.1c-0.1-0.1-0.2-0.2-0.3-0.3c-0.2-0.2-0.5-0.4-0.7-0.6c-0.8-0.5-1.6-0.9-2.6-1.1c-0.3-0.1-0.5,0-0.8-0.1
		c-0.3-0.1-0.8,0-1.1,0c-0.6,0.1-1.2,0.2-1.7,0.4c-0.2,0.1-0.6,0.3-0.8,0.3c0,0,0,0,0,0c0-0.2,0-0.4,0-0.5c-0.1-0.3-0.7-0.3-0.9,0
		c-0.1,0.2,0.1,0.9,0,1.1c-0.1,0-0.2,0.1-0.2,0.1c-0.2,0.1-0.4,0.3-0.7,0.4c-0.6,0.4-1.1,0.9-1.6,1.4c-0.1,0.2-0.5,0.5-0.5,0.7
		c0,0,0,0-0.1,0c-0.1-0.1-0.1-0.3-0.2-0.4c-0.2-0.4-0.3-0.7-0.6-1c-0.7-1-1.9-1.6-3.3-1.9c-1.3-0.3-3-0.2-4.2,0.1
		c-0.2,0-0.3,0.1-0.5,0.1c-0.5,0.2-1,0.3-1.5,0.5c-0.1,0-0.4,0.2-0.5,0.2c-0.1-0.1-0.1-0.3-0.1-0.4c-0.1-0.4-0.2-0.8-0.3-1.3
		c0-0.6,0.5-1.8,0.6-2.2c0,0,0,0,0,0c0-0.5,0.1-1,0.1-1.5c0-0.2,0-0.4,0-0.6v-1.8l-0.1-2.2c-0.1-0.5-0.1-1.1-0.2-1.6
		c0-0.1-0.1-0.6-0.1-0.7c0,0-0.1-0.4-0.2-0.9c0-0.4,0-0.8,0-1c-0.1,0,0-0.4,0-0.5c0-0.5,0-1,0-1.5c0.1-0.5,0-1,0-1.5
		c0-1.1,0-2.2,0-3.2c0-0.6,0-1.3,0-1.9c-0.1-0.2-0.4-0.2-0.7-0.2c0,0,0,0,0,0c-0.7-0.1-0.3-0.9-0.1-1c0.6-0.1,4.4-1.6,9.4-1.1
		c0,0,0.1,0,0.1-0.1c0.2-0.1,0.3-0.3,0.4-0.6c0.1-0.1,0.7,0,0.9,0c0.7,0.1,1.4,0.1,2.1,0.3c0.1,0,0.2,0,0.3,0h0
		c-0.1-0.2-0.4-0.2-0.5-0.3c-0.6-0.4-1.3-0.4-2.1-0.6c-0.8-0.2-1.6-0.2-2.6-0.2c-0.5,0-1,0-1.5,0.1c-0.2,0-0.3,0-0.5,0
		c-0.5,0.1-1,0.1-1.5,0.2c-0.5,0.1-1,0.1-1.5,0.2c-0.5,0.1-1.1,0.2-1.6,0.4c-0.3,0.1-0.6,0.2-0.9,0.2c0-0.1,0.1-0.5,0.1-0.7
		c0.1-0.5,0-1.2,0.1-1.7c0-0.2,0-0.4,0-0.7c0.1-0.5,0.1-1,0.2-1.4c0.6-1.7,1.4-3.1,2.7-4.1c0.4-0.3,0.7-0.6,1.1-0.8
		c0.1-0.1,0.3,0,0.5,0c0.3,0,0.7-0.1,1-0.1c0.3-0.1,0.5-0.1,0.7-0.3c0.1-0.1,0.1-0.1,0.2-0.2c0.2,0,0.3,0,0.5,0c0.8,0,1.4,0.1,2,0.2
		c0.2,0,0.4,0.1,0.5,0.2c0.8,0.4,1.4,0.9,2,1.5c0.9,0.8,1.5,1.8,1.8,3.1c0.1,0.6,0.1,1.7,0,2.3c0,0.3,0,0.7,0,1
		c-0.1,0.5-0.1,1.3,0,1.7c0.1,0.5,0.3,0.8,0.5,1.2c0.1,0.1,0.5,0.4,0.5,0.4c-0.1,0-0.4-0.1-0.5-0.2c-0.3-0.1-0.7-0.2-1-0.3
		c-0.2,0-0.3-0.1-0.5-0.1c0,0,0,0,0,0c0.9,0.2,2.3,0.7,2.6,1.1c0,0.1,0.1,0.1,0.1,0.2c0,0.1-0.4,0.4-0.5,0.4c-0.1,0-0.1,0-0.2,0
		c-0.2,0-0.4,0.2-0.5,0.4c0,0.1,0.1,0.2,0.1,0.3c0,0.1,0,0.2,0,0.3c0,0.7,0.1,1.3,0.1,2c0,0.3,0,0.7,0,1c0.1,0.4,0,0.8,0.1,1.3
		c0,0.9,0.1,1.7,0.1,2.6v1.1c0,0.1,0.1,0.2,0.1,0.3c0,0,0,0,0.1,0c0,0,0,0,0,0c0.1-0.1,0.1-0.3,0.1-0.5c0.1-0.4,0-0.9,0.1-1.3
		c0.1-0.7,0-1.6,0.1-2.4c0-0.2,0-0.3,0-0.5c0,0,0-0.1,0-0.1c0,0,0-0.1,0-0.1c0-0.8,0.1-1.5,0.1-2.3c0,0,0,0,0,0
		c1.7,1.3,3.4,2.5,5.1,3.8c2.6,1.7,5.2,3.3,7.8,5c1.1,0.7,2.2,1.3,3.2,2c0.3,0.2,0.5,0.3,0.8,0.5c0.1,0.1,0.2,0.1,0.2,0.2h0.1
		c0,0,0,0,0,0c0,0,0,0,0,0c0.1,0.1,0.3,0.2,0.4,0.2c0.2,0.1,0.4,0.3,0.6,0.4c0.2,0.1,0.5,0.3,0.7,0.5c0.5,0.3,1,0.6,1.5,0.9
		c0.3,0.2,0.6,0.4,0.9,0.6c0.1,0.1,0.2,0.2,0.3,0.2c0,0,0.1-0.1,0.1-0.1c0-0.1-0.2-0.2-0.3-0.3c-0.3-0.2-0.7-0.5-1-0.7
		c-1.3-1-2.7-1.9-4-2.8c-3.5-2.5-7-5-10.5-7.4c-1.4-0.9-2.7-2-4.1-2.9c-0.5-0.4-1-0.7-1.5-1.1c-0.1-0.1-0.2-0.1-0.3-0.1
		c0-0.1,0-0.2,0-0.4c0.5-0.3,0.9-0.8,0.5-1.4c-0.2-0.2-0.4-0.3-0.7-0.5c-0.2-0.1-0.3-0.4-0.4-0.6c-0.2-0.4-0.6-1-0.5-1.8
		c0-0.4,0.1-0.9,0.1-1.3c0.2-0.8,0.3-2,0.1-2.9c-0.4-1.9-1.3-3.1-2.6-4.1c-1.2-1-2.5-1.7-4.7-1.7c0,0,0,0,0-0.1
		c-0.1,0.1-0.4,0-0.6,0.1c-0.2,0-0.5,0.1-0.7,0.1c-0.2,0-0.4,0.1-0.6,0.1c0-0.2,0.1-0.3,0.2-0.4c0.1-0.3,0.3-0.5,0.4-0.8
		c0.2-0.5,0.4-1.2,0.5-1.8c0.2-0.9,0.3-1.8,0.4-2.7c0.1-0.5,0.1-1,0.1-1.5c0-0.1,0-0.3,0-0.4c0.1-0.3,0-0.7,0.1-1.1
		c0.1-0.6,0-1.2,0.1-1.8c0-0.3,0.1-0.6,0.1-1c0,0,0,0,0,0h0.2c0,0.3,0,0.7,0,1c0,0.2,0,0.4,0.1,0.6c0,0.1,0,0.2,0,0.4
		c0,0.1,0,0.2,0.1,0.2c0,0.2,0,0.3,0,0.5h0c0,0,0,0,0,0c0.1,0.1,0.1,0.6,0.1,0.7c0.1,0.5,0.1,1.1,0.2,1.5c0.3,1,0.5,2,0.8,3
		c0.1,0.4,0.2,0.8,0.3,1.3c0.2,0.5,0.5,1,0.8,1.4c0.3,0.4,0.7,0.8,1.1,1.1c0.1,0.1,0.3,0.3,0.5,0.2c0.2-0.1,0.2-0.3,0.1-0.5
		c-0.1-0.1-0.2-0.2-0.3-0.2c-0.2-0.1-0.3-0.3-0.5-0.5c-0.3-0.4-0.5-0.9-0.8-1.3c-0.2-0.4-0.4-0.9-0.5-1.3c-0.3-0.9-0.5-1.9-0.8-2.9
		c-0.2-0.8-0.3-1.6-0.4-2.4c-0.1-0.4-0.2-0.9-0.3-1.3c0-0.2-0.1-0.4-0.1-0.6c-0.1-0.3-0.2-0.6-0.2-0.9c0.2-0.1,0.4-0.2,0.5-0.4
		c0.2-0.5-0.1-1.2-0.3-1.4c-0.1-0.1-0.2,0-0.3-0.1c-0.1-0.7-0.1-1.3-0.2-2c0-0.3,0-0.6-0.1-0.8c0,0,0,0-0.1,0c0,0.7-0.2,2.6-0.2,2.9
		c0,0.1-0.4,0.1-0.5,0.2c-0.5,0.4-0.7,1.5,0.2,1.6c0,0.2-0.1,0.6-0.2,0.7c-0.1,0.6-0.2,1.2-0.4,1.8c-0.1,0.4-0.2,0.7-0.2,1.1
		c-0.3,1-0.5,2.2-0.8,3.2c-0.1,0.3-0.1,0.7-0.2,1c-0.1,0.5-0.4,1.1-0.6,1.5c-0.1,0.2-0.3,0.5-0.4,0.7c-0.3,0.3-0.5,0.6-0.8,0.9
		c-0.2,0.2-0.5,0.5-0.6,0.8c0,0.2,0.1,0.2,0.1,0.3c0,0,0,0,0,0c-0.3,0.1-0.6,0.3-0.3,0.6c0,0.1-0.3,0.2-0.4,0.3
		c-0.3,0.2-0.6,0.5-0.9,0.7c-0.2,0.1-0.3,0.3-0.5,0.5c-0.5,0.7-1,1.4-1.3,2.4c-0.2,0.7-0.4,1.8-0.2,2.7c0,0.4,0,0.7,0,1.1
		c0,0.2,0,0.5,0,0.8c0,0.3,0.1,0.7,0,1c0,0.1,0,0.2,0,0.4c0,0,0,0,0,0c-0.1-0.1,0-0.2-0.1-0.3c-0.1-0.3-0.1-0.6-0.1-0.8
		c-0.1-0.4-0.1-0.8-0.2-1.2c-0.2-0.7-0.4-1.4-0.7-2c-0.1-0.2-0.5-0.7-0.7-0.6c-0.3,0-0.4,0.4-0.3,0.7c0.1,0.1,0.2,0.2,0.3,0.4
		c0.4,0.8,0.6,1.8,0.8,2.9c0,0.2,0,0.3,0,0.5c0.1,0.6,0.1,1.2,0.2,1.8c0,0.3,0,0.7,0.1,0.9c0.1,0.2,0.5,0.2,0.6,0.4
		c0.1,0.8,0.2,1.6,0.2,2.4c0.2,1.6,0.3,3.3,0.5,4.9c0,0.5,0,1,0,1.6c0,0.1,0,0.3,0,0.4c0,0.2,0.1,0.3,0.2,0.5
		c0.1,0.4,0.2,0.7,0.3,1.1c0.1,0.6,0.2,1.3,0.3,2c0,0.3,0,0.5,0,0.8v0.9c0,0.3,0,0.6,0,0.9c0,0.6-0.1,1.1-0.1,1.7c0,0.1,0,0.2,0,0.4
		c-0.1,0.5,0,1.2-0.1,1.7c-0.1,0.4-0.4,0.8-0.5,1.2c-0.1,0.6,0,1.4,0.1,1.9c0,0.2,0.1,0.4,0.1,0.6c0,0.1-0.2,0.1-0.3,0.2
		c-0.2,0.1-0.4,0.2-0.6,0.4c-0.6,0.4-1.1,0.8-1.7,1.2c-0.2,0.2-0.4,0.5-0.7,0.6c0-0.1,0-0.5,0-0.6c0-0.6,0-1.2,0-1.7
		c0-2.3,0.1-4.5,0.1-6.8c0-1,0.3-2.7-0.6-2.8c-0.1,0-0.2,0-0.3,0.1c-0.3,0.1-0.2,0.4-0.2,0.8c0,0.7,0,1.4,0,2
		c-0.1,2.5-0.1,5-0.2,7.5c0,0.9,0,1.8-0.1,2.7c-0.2,0.2-0.3,0.3-0.5,0.5c-0.3,0.3-0.6,0.7-0.9,1c-0.1,0.2-0.4,0.4-0.5,0.6
		c0,0,0,0-0.1,0c-0.1-0.3-0.4-1.1-0.3-1.5c0-0.2,0.1-0.3,0.1-0.5c0.1-0.3,0.3-0.2,0.2-0.6c0-0.1-0.1-0.2-0.2-0.3
		c-0.3-0.3-0.7-0.8-0.9-1.2c-0.1-0.4,0-0.9,0.1-1.3c0.1-0.3,0.1-0.7,0-0.9c0-0.2-0.1-0.4-0.2-0.6c-0.2-0.5-0.3-0.9-0.4-1.4
		c0-0.2,0-0.4,0.1-0.6c0-0.1,0-0.2,0-0.3c0-0.2,0-0.3,0-0.5c0-0.4,0.1-0.8,0.1-1.3c0-0.1-0.1-0.2-0.1-0.3c0-0.1,0-0.1,0.1-0.1v-0.5
		c0-0.3,0-0.7,0-1c0-0.3,0-0.5,0-0.8c0-0.5,0-1,0.1-1.5v-0.3c0-0.1,0-0.3,0.1-0.4c0-0.1,0-0.1,0-0.2c0.2-0.7,0.5-1.4,0.8-2
		c0.1-0.1,0.2-0.3,0.3-0.4c0.2-0.3,0.3-0.6,0.4-1c0.1-0.4,0.1-0.9,0.2-1.3c0-0.2,0-0.4,0-0.6c0-0.3,0-0.5,0-0.8
		c-0.1-0.3-0.2-0.8-0.1-1.2c0-0.4,0.1-0.8,0.1-1.3c0-0.2,0-0.3,0-0.5c0-0.2,0.1-0.4,0.2-0.5c0.1-0.3,0.2-0.5,0.2-0.9
		c0-0.1,0-0.2,0-0.4c0-0.2,0-0.4-0.1-0.6c-0.1-0.7-0.4-1.3-0.5-2c-0.1-0.4,0-1.1,0.1-1.4c0.3-1.1,0.6-2,1-2.9
		c0.1-0.2,0.2-0.5,0.4-0.6c0.2-0.1,0.6-0.1,0.4-0.5c-0.1-0.2-0.5-0.2-0.7-0.1c-0.2,0.1-0.4,0.1-0.5,0.3c-0.3,0.2-0.4,0.7-0.6,1.1
		c-0.1,0.3-0.2,0.5-0.3,0.8c-0.4,0.8-0.8,2.3-0.5,3.5c0.1,0.5,0.2,0.9,0.3,1.4c0,0.2,0.1,0.3,0.1,0.5c0,0.1,0.1,0.2,0.1,0.3v0
		c-0.2,0.1-0.4,0.1-0.6,0.2c-0.3,0.1-0.7,0.2-1,0.3c-0.5,0.1-1.1,0.3-1.6,0.5c-0.6,0.2-1.1,0.3-1.7,0.6c-0.6,0.3-1.1,0.8-1.7,1.3
		c-0.9,0.7-1.8,1.4-2.8,2.1c-0.4,0.3-0.8,0.7-1.2,1c-0.1,0.1-0.3,0.3-0.4,0.3c-0.1-0.1-0.1-0.4-0.2-0.5c-0.1-0.4-0.2-0.8-0.4-1.2
		c-0.4-1-1.2-1.7-2.1-2.3c-0.1-0.1-0.2-0.3-0.3-0.4c-0.2-0.1-0.4-0.2-0.6-0.3c-0.1,0-0.4-0.1-0.4,0c0.1,0.1,0.2,0.1,0.2,0.1
		c0.3,0.1,0.5,0.3,0.7,0.5c0.1,0.1,0.3,0.2,0.3,0.3c0,0,0,0,0.1,0c0.2,0.2,0.4,0.4,0.6,0.7c0.3,0.4,0.6,0.9,0.8,1.4
		c0.1,0.3,0.2,0.7,0.3,1c0.2,0.5,0.3,1.1,0.5,1.5c0.1,0.2,0.1,0.4,0.2,0.6c0.2,0.3,0.5,0.5,0.8,0.7c0.2,0.1,0.3,0.3,0.5,0.4
		c0.2,0.1,0.4-0.2,0.3-0.4c-0.1-0.1-0.2-0.2-0.3-0.3c-0.2-0.2-0.3-0.4-0.4-0.6c-0.1-0.1-0.2-0.3-0.2-0.4c0.3-0.2,0.6-0.5,0.9-0.7
		c0.6-0.5,1.2-1,1.8-1.4c0.8-0.6,1.6-1.2,2.4-1.8c0.3-0.2,0.5-0.4,0.8-0.6c0.1-0.1,0.3-0.1,0.4-0.2c0.1-0.1,0.2-0.1,0.3-0.2
		c0.4-0.1,0.9-0.3,1.3-0.4c0.2-0.1,0.5-0.2,0.8-0.3c0.3-0.1,0.6-0.3,0.9-0.3c0,0,0,0-0.1,0v0c0,0,0,0,0,0c0.3,0,0.5-0.1,0.8-0.2
		c0.1,0,0.1-0.1,0.3-0.1c0.1,0.2-0.1,0.5-0.1,0.7c0,0.2-0.1,0.4-0.1,0.5c0,0.1,0,0.2,0,0.3c0,0.1-0.1,0.3-0.2,0.4
		c-0.1,0.2-0.1,0.3-0.1,0.5c0,0.1,0,0.2,0,0.2c-0.1,0.3-0.1,0.7-0.2,1.1c-0.1,0.8-0.3,1.6-0.4,2.4c0,0.2,0,0.4,0,0.6
		c0,0.1,0,0.1,0,0.2c0,0.1-0.3,0.5-0.4,0.6c-0.2,0.4-0.4,0.9-0.5,1.3c-0.1,0.5-0.1,1.1-0.2,1.7c0,0.2,0.1,0.9,0,1
		c-0.1,0.1-0.5,0.1-0.6,0.2c-0.4,0.2-0.9,0.3-1.3,0.4c-0.3,0.1-0.5,0.2-0.8,0.3c-0.5,0.1-0.9,0.3-1.4,0.4c-0.4,0.1-0.8,0.2-1.2,0.4
		c-0.2,0.1-0.3,0-0.4,0.1c0,0-0.1,0-0.1,0.1c-0.1,0-0.2,0.1-0.3,0.1c-0.4,0.1-0.8,0.2-1.2,0.4c-0.2,0.1-0.5,0.2-0.8,0.2
		c0-0.1,0-0.2,0-0.4c0-0.3,0-0.6,0-0.9c0-0.9,0-1.9,0-2.8c0-0.4,0.1-1.3-0.1-1.4c-0.3-0.2-0.6,0-0.7,0.2c0,1.3,0,2.5,0.1,3.8
		c0.1,4.3,0.2,8.6,0.2,12.9c-0.2,0.2-0.4,0.3-0.6,0.5c-0.3,0.2-0.6,0.5-0.8,0.8c-0.1,0.1-0.2,0.2-0.3,0.3c-0.1,0.1-0.6,0.7-0.7,0.8
		c-0.2,0-0.4-0.1-0.6-0.1c-0.5-0.1-1.1-0.1-1.5,0c0,0.1,0,0.1,0,0.2c0.1,0.1,0.3,0.1,0.5,0.1c0.2,0,0.4,0,0.6,0.1
		c0.2,0,0.6,0.1,0.8,0c0,0,0,0,0,0c-0.5,0.8-1.1,1.6-1.5,2.5c-0.2,0.5-0.4,0.9-0.6,1.5c-0.2,0.5-0.4,1.1-0.5,1.6c0,0,0,0-0.1,0
		c-0.2-0.1-0.4-0.3-0.7-0.3c-1.1-0.3-2.3,0.2-3,0.6c-0.2,0.1-0.5,0.3-0.6,0.4c0,0,0,0-0.1,0c0-0.7,0-1.3,0.1-2c0-0.2,0.1-0.5,0-0.7
		c-0.1-0.3-0.7-0.2-0.9-0.1c-0.1,0-0.1,0-0.1-0.1c-0.2-0.1-0.4-0.1-0.7-0.1c-0.3,0-0.7,0.1-0.9,0c0-0.1,0-0.2-0.1-0.3
		c-0.1-0.1-0.2-0.1-0.3-0.2c0,0,0-0.1,0-0.1c0.1-0.2,0.3-0.2,0.5-0.3c0.2-0.1,0.3-0.2,0.5-0.4c0.1-0.1,0.2-0.4,0.3-0.5
		c0.3-0.1,0.4,0.2,0.5,0.3c0.3,0.4,0.7,0.8,1.2,0.9c0.2,0.1,0.7,0.2,0.9,0c-0.1-0.1-0.3-0.1-0.4-0.2c-0.2-0.1-0.4-0.2-0.6-0.3
		c-0.1-0.1-0.2-0.2-0.4-0.3c0,0,0-0.1,0-0.1c0-0.1-0.1-0.1-0.2-0.1c-0.1-0.3-0.1-0.6-0.2-0.8c0-0.1,0-0.2-0.1-0.3
		c0-0.1-0.1-0.2-0.1-0.4c0.3-0.3,0-0.8-0.4-0.9c-0.2,0-0.5,0.2-0.5-0.1c0-0.1,0.1-0.3,0-0.3c-0.3-0.1-0.6,0.6-0.5,0.9
		c0,0.2,0.2,0.3,0.3,0.4v0c0,0-0.3,0.1-0.3,0.2c-0.1,0-0.1,0-0.2,0c-0.1,0-0.4,0.2-0.3,0.4c0,0,0.1,0.1,0.1,0.1
		c0.1,0.1-0.1,0.2-0.1,0.3c-0.1,0.2-0.2,0.3-0.4,0.4c-0.2,0.1-0.5,0.1-0.7,0.3v0c0.2,0.1,0.5,0.2,0.8,0.2c0.1,0,0.3-0.1,0.4-0.1
		c0.1,0.4-0.8,0.3-1,0.5c-0.1,0.6,0.8,0.5,0.9,0.9c0,0.1-0.1,0.1-0.1,0.1c0,0.1,0,0.2,0,0.3c-0.1,0.4-0.1,0.9,0,1.3
		c0.1,1.5,0.1,2.9,0.2,4.4c-0.2,0.3-0.4,0.6-0.6,0.9c-0.3,0.5-0.1,0.2-0.4,0.7c0,0,16.1-4,37.5-5.3c18.4-1.1,34.3,1.6,34.3,1.6
		C163.6,111.6,163.6,111.6,163.5,111.3 M93.1,113.5C93.1,113.5,93.1,113.5,93.1,113.5c-0.1-0.2,0-0.9-0.1-1.2c0-0.7,0-1.4-0.1-2
		v-0.4c0-0.3,0-0.6,0-0.9c0-0.2,0-0.5,0-0.6c0.1,0,0.3,0,0.4-0.1c0.1,0,0.1,0,0.1,0v1.2c0,0.8,0,1.6,0,2.4c0,0.3,0,0.6,0,1
		C93.4,113.2,93.2,113.3,93.1,113.5 M94.7,109.2c0,0.5,0,0.9,0,1.4c0,0.3,0,0.7,0,1c-0.1,0.2-0.3,0.3-0.4,0.5c0,0,0,0,0,0
		c-0.1-0.2,0-0.9,0-1.1c0-0.9,0-1.8,0-2.7c0.1-0.1,0.3,0,0.5-0.1c0,0,0,0,0.1,0C94.7,108.6,94.7,108.9,94.7,109.2 M114.8,104.4
		c-0.1,0.2-0.3,0.4-0.4,0.6c0,0,0,0,0,0c-0.1-0.3-0.1-0.6-0.2-0.8c-0.1-0.5-0.3-0.9-0.5-1.3c-0.9-1.8-3-3.2-5.7-2.5
		c-0.5,0.1-1.2,0.4-1.7,0.7c-0.1,0.1-0.7,0.4-0.8,0.4c0-0.2,0-0.4,0-0.6c0-0.5,0-1.1,0-1.6c0-1.8,0-3.6,0-5.4v-1.8
		c0-0.1,0-0.6,0-0.6c0.1-0.1,0.4-0.1,0.5-0.2c0.5-0.2,1.1-0.3,1.6-0.5c1.3-0.4,2.7-0.8,4-1.2c0.7-0.2,1.3-0.4,2-0.5c0,0,0,0,0.1,0
		c0.1,0.4,0,0.8,0,1.2c0,0.3,0,0.6,0,0.9c0,0.2,0,0.5,0,0.7c0,0.2,0,0.4,0,0.6c-0.1,0.4-0.2,0.8-0.3,1.2c0,0.1-0.1,0.4-0.1,0.6
		c0.1,0.4,0.1,0.8,0.3,1.1c0.2,0.4,0.4,0.8,0.5,1.3c0,0.2,0,0.5,0,0.7c-0.1,0.4-0.2,1.2,0,1.6c0.1,0.3,0.3,0.6,0.5,0.8
		c0.2,0.2,0.4,0.3,0.5,0.6c-0.1,0.2-0.2,0.4-0.3,0.6c-0.1,0.7,0.1,1.4,0.3,1.9c0.1,0.2,0.2,0.3,0.2,0.5
		C115.3,103.6,115,104.1,114.8,104.4 M148.2,101c0,0.3,0,0.6,0,0.9c-0.1,0.1-0.8,0.1-0.9,0c-0.1-0.2,0-0.5-0.1-0.7
		c0-0.3,0-0.6-0.1-0.9c-0.1-0.3-0.1-0.8,0-1.2c0-0.3,0-0.6,0.2-0.7c0.2,0,0.4,0.1,0.6,0.1c0.1,0,0.3,0,0.3,0c0,0.4,0,0.8,0,1.2v0.6
		C148.2,100.5,148.2,100.7,148.2,101 M153.6,101.1c0,0.2,0.1,0.4,0,0.6c-0.1,0-0.7-0.3-0.7-0.3c-0.1-0.1,0-0.4-0.1-0.6
		c-0.1-0.4-0.2-1.7,0.1-2c0.2,0,0.3,0.1,0.4,0.2c0.1,0,0.3,0,0.3,0.1c0,0.2,0,0.5,0,0.7C153.6,100.2,153.5,100.7,153.6,101.1
		 M131.3,71.8C131.2,71.8,131.2,71.8,131.3,71.8C131.2,71.9,131.2,71.9,131.3,71.8c0.4,0.1,0.9,0.2,1.4,0.2c0.7,0.1,1.5,0.2,2.2,0.4
		c-0.5-0.1-1-0.2-1-0.2C133,72,132.1,71.9,131.3,71.8 M95.3,74.1c0.1-0.1,0.1-0.4,0.1-0.5c-0.2-0.3-0.4-0.5-0.6-0.9
		c-0.2-0.4-0.1-1,0-1.4c0.3-0.8,1-1.6,1.9-1.9c0.2,0,0.4,0,0.5,0c0.5,0.1,0.9,0.4,1.5,0.3c0-0.1,0.1-0.2,0.1-0.3
		c0.2-0.4-0.5-0.6-0.5-0.8c-0.1-0.1,0.1-0.5,0.2-0.6c0.6-1.2,1.6-1.8,3.1-2.1c1-0.2,2.2,0,2.6,0.7c0.6,1,0.2,2.6-0.2,3.4
		c-0.1,0.2-0.5,1-0.3,1.4c0.1,0.1,0.5,0.5,0.7,0.4c0.5-0.1,1.2-0.6,1.8-0.2c0.1,0.1,0.2,0.4,0.1,0.6c-0.1,0.1-0.1,0.3-0.2,0.4
		c-0.2,0.2-0.5,0.4-0.5,0.8c0.1,0.1,0.3,0.5,0.5,0.5c0.1,0,0.3-0.3,0.4-0.3c0.2-0.2,0.5-0.3,0.8-0.4c0.2,0,0.4,0,0.5-0.1
		c0.2-0.3-0.1-0.6-0.2-0.8c0-0.1,0.2-0.5,0.2-0.5c0.4-0.5,1-0.9,1.5-1.3c0.1-0.1,0.3-0.1,0.4-0.2c0.4-0.2,0.7-0.3,1.2-0.4
		c0.4-0.1,1.1-0.4,1.4-0.1c0.1,0.1,0.5,0.6,0.5,0.8c0,0.2-0.2,0.4-0.2,0.6c0.1,0.2,0.6,0.3,0.7,0.1c0,0,0.1-0.4,0.1-0.5
		c0,0,0-0.1-0.1-0.1c0-0.2,0-0.5,0-0.6c-0.2-0.5-0.6-0.9-1.2-1.1c-0.5-0.1-1.2,0-1.7,0.1c-1.3,0.3-2.3,0.7-3,1.5
		c-0.2,0.2-0.5,0.5-0.6,0.8c-0.1,0.1-0.1,0.3-0.2,0.4c-0.1-0.1-0.1-0.2-0.1-0.3c-0.1-0.1-0.2-0.2-0.3-0.3c-0.3-0.2-0.7-0.1-1.1-0.2
		c0,0,0,0,0,0c0-0.2,0.1-0.4,0.2-0.6c0.1-0.4,0.2-0.8,0.3-1.3c0.1-0.6-0.1-1.2-0.2-1.7c-0.3-1.3-1.4-2.2-3-2.2c-0.2,0-0.4,0-0.6,0.1
		c-0.3,0.1-0.6,0.1-1,0.2c-0.4,0.1-0.8,0.3-1.2,0.4c-0.2,0.1-0.4,0.2-0.6,0.3c-0.9,0.5-1.8,1.3-2.1,2.3c-0.1,0.1-0.2,0-0.4,0.1
		c-0.1,0.1-0.3,0.1-0.4,0.2c-0.8,0.5-1.8,1.4-2,2.4c-0.2,1,0,1.9,0.4,2.5C94.7,73.8,94.9,74.2,95.3,74.1 M89.7,75
		c0,0.1-0.1,0.3,0,0.4c0.1,0.3,0.5,0.6,0.8,0.7c0.2,0.1,0.5-0.1,0.5-0.2c-0.2-0.2-0.7-0.2-0.8-0.5c-0.1-0.3,0.2-0.7,0.3-0.9
		c0.4-0.6,0.9-1.1,1.8-1.2c0.1,0,0.4,0,0.5,0c0.3,0.1,0.5,0.4,0.7,0.6c0.1,0.1,0.1,0.3,0.2,0.3c0,0,0,0,0,0c0.3-0.2,0.1-0.5,0-0.8
		c0-0.1,0-0.1,0-0.2c0-0.2-0.1-0.3-0.2-0.4c0-0.1-0.1-0.2-0.1-0.3c-0.2-0.3-0.6-0.4-1.1-0.4c-0.1,0-0.2,0-0.3,0
		c-0.2,0-0.4,0.1-0.6,0.2c-0.7,0.3-1.2,1-1.6,1.6c-0.1,0.1-0.3,0.6-0.3,0.8C89.7,74.9,89.7,75,89.7,75 M90.6,98.1
		c0.1-0.1,0.4-0.1,0.5-0.2c0.1-0.2,0.1-0.7,0-0.9c-0.1-0.1-0.1-0.1-0.2-0.1c-0.1-0.1-0.1-0.2-0.2-0.2c-0.1-0.1,0.1-0.3,0-0.4
		c-0.1-0.1-0.3,0-0.4,0c0,0,0,0,0-0.1c0.1-0.1,0.7-0.2,0.8-0.3c0.6-0.3,1.2-0.4,1.8-0.6c0.2-0.1,0.7-0.3,0.9-0.3c0.1,0.3,0,0.7,0,1
		c0,0.5,0,1.1,0,1.6c0,0.8,0,1.7,0.1,2.5c0,0.4,0,0.9,0,1.3c0,0.5,0,1,0,1.5c0.1,0,0.2,0,0.4,0c0.3,0.1,0.6,0.4,0.7,0.8c0,0,0,0,0,0
		v0c0.1-0.1,0-1,0-1.2c0-1.1,0-2.2,0-3.3c0-3.6-0.1-7.1-0.1-10.7v-0.7c0-0.9,0-1.9,0-2.8c0-0.1-0.1-0.2-0.1-0.3
		c0.1-0.1,0.2-0.1,0.4-0.2c0.4-0.1,0.9-0.2,1.3-0.3c2.2-0.5,5.3-0.6,7.3,0.1c0.5,0.2,1.1,0.3,1.6,0.5c0.2,0.1,0.5,0.1,0.5-0.1
		c-0.1-0.3-0.6-0.3-0.9-0.4c-0.7-0.2-1.5-0.4-2.3-0.6c-0.2,0-0.5-0.1-0.7-0.1c-0.1,0-0.2,0-0.3,0c0,0,0.1,0,0.1,0
		c-0.1,0-0.3,0-0.4,0c-0.3-0.1-0.7,0-1.1-0.1h-0.4c-0.4,0-0.7,0-1.1,0c-0.2,0-0.3,0-0.5,0c-0.5,0.1-1.2,0.1-1.7,0.2
		c-0.4,0.1-0.8,0.1-1.2,0.2c-0.1,0-0.2,0-0.3,0.1h0c0.1-0.2,0.3-0.4,0.4-0.5c0.3-0.3,0.5-0.6,0.7-1c0.3-0.5,0.4-1.1,0.6-1.8
		c0.1-0.2,0.1-0.4,0.2-0.7c0.2-0.6,0.7-1.2,1-1.7c0.2-0.3,0.4-0.5,0.7-0.8c0.1,0,0.2,0,0.3-0.1c0.2,0,0.4-0.1,0.5-0.2
		c0.1-0.1,0.1-0.2,0.2-0.3c0.1-0.1,0.2-0.2,0.3-0.4c0.1-0.3,0-0.7,0-1.1c0.2-0.2,0.3-0.5,0.1-0.8c-0.1-0.1-0.2-0.1-0.3-0.2
		c-0.1-0.3-0.1-0.7-0.1-1.1c0,0,0,0-0.1,0c-0.2,0.2-0.1,0.8-0.1,1.1c-0.1,0.1-0.3,0.1-0.3,0.1c-0.1,0.1,0,0.1-0.1,0.2
		c0,0.3,0,0.5,0.2,0.6c0.1,0,0.1,0.1,0.2,0.1c0,0.2,0,0.4,0,0.6c0,0.3,0,0.5-0.1,0.7c-0.1,0-0.1,0.1-0.2,0.1c0,0-0.1,0.1-0.1,0.1
		c-0.2,0.2-0.7,0.2-1,0.3c-0.3,0.1-0.7,0.3-0.9,0.4c-1.1,0.7-1.9,2.1-2.4,3.4c-0.2,0.5-0.4,0.9-0.6,1.3c-0.1,0.2-0.2,0.5-0.3,0.7
		c-0.3,0.4-0.5,0.8-0.9,1.1c-0.2,0.1-0.4,0.3-0.5,0.5c0,0.1,0,0.2,0,0.4c-0.2,0.8,0.5,0.7,0.9,0.4c0,0,0,0,0.1,0
		c0.1,0.1,0,0.3,0,0.5c0,0.5,0,0.9,0,1.4c0,1.4,0,2.8,0.1,4.2c0,0,0,0,0,0c-0.2-0.4-0.6-0.7-0.8-1.1c-0.8-1-2-1.7-3.5-2
		c-1.4-0.3-2.6,0.1-3.1,0.9c-0.1,0.2-0.3,0.4-0.3,0.6c0,0-0.1,0-0.1,0c0,0,0,0.1,0,0.1c0,0,0,0,0,0c-0.1,0.3-0.3,0.5-0.4,0.7
		c-0.1,0.2-0.2,0.4-0.3,0.6c-0.1,0.2-0.2,0.2-0.4,0.3c-0.1,0.1-0.2,0.3-0.4,0.4v0c0.3,0.2,1-0.3,1.2-0.5c0.4-0.3,0.9-0.7,1.2-1
		c0.4-0.5,0.8-0.8,1.5-1c2-0.4,3.4,0.7,4.5,1.5c0.3,0.3,0.6,0.5,0.8,0.8c0,0.1-0.2,0.3-0.3,0.3c-0.3,0.3-0.7,0.6-1,0.9
		c-1.1,1-2.2,1.9-3.3,2.9c-0.1,0.1-0.1,0.2-0.1,0.2c0,0.3,0.2,0.5,0.5,0.5c0,0,0,0,0,0c0,0.1,0,0.4,0,0.5c0.1,0.2,0.4,0.5,0.6,0.6
		c0,0.2,0.2,0.3,0.3,0.4v0c-0.1,0-0.3,0-0.3,0.1c-0.1,0.4,0.2,0.6,0.4,0.7v0c-0.4,0.1-0.5,0.5-0.3,0.9c0,0-0.1,0.1-0.2,0.1
		c-0.2,0.3,0.2,0.9,0.3,1c0,0,0,0,0,0c-0.1,0.1-0.2,0.1-0.2,0.3c-0.1,0.3,0,0.7,0.2,0.8v0c-0.1,0-0.2,0-0.3,0.1
		c-0.1,0.2,0.2,0.5,0.3,0.6c0,0.1-0.2,0.1-0.3,0.2c-0.2,0.3-0.1,0.7,0.2,0.9c0.1,0.1,0.3,0,0.4,0.1c0,0.7,0,1.5,0,2.2
		c0,0.7,0,1.5,0,2.2c0,0.4,0,0.8,0,1.1c0,0.5,0,1,0,1.5c0,0.7,0,1.5,0,2.2c0,0.7,0,1.5,0.1,2.2c0,0.1,0,0.6,0,0.6
		c0.1-0.1,0.2-0.2,0.2-0.2c0.1-0.1,0.2-0.2,0.2-0.3c0-0.9,0-1.7,0-2.6c0-2.6,0.1-5.2,0.1-7.8c0-0.7,0-1.4,0-2.1
		c0-0.1-0.1-0.1-0.2-0.2c-0.1-0.1-0.1-0.2-0.2-0.2c-0.1,0-0.2,0-0.3,0c0,0,0,0,0,0c0,0,0.1-0.6,0.1-0.6c0-0.1,0.4-0.1,0.4-0.2
		c0.1,0,0-0.1,0.1-0.2c0.1-0.3,0.1-0.7-0.2-0.8c-0.1,0-0.3,0-0.4,0c0,0,0,0,0,0c0-0.1,0-0.2,0.1-0.2c0-0.2,0-0.4,0-0.6
		c0.1-0.1,0.3-0.1,0.5-0.2c0.2-0.1,0.1-0.9,0-1c-0.1-0.1-0.3,0-0.5,0c0,0,0,0,0-0.1C90.6,98.6,90.5,98.4,90.6,98.1 M124,77.9
		c-0.1,0.4-0.1,1,0,1.4c0.1,0.3,0,1.1,0.2,1.3c0.5,0.4,1.6,0,2.2-0.1c0.2,0,0.5,0,0.6-0.1c0.1-0.1,0-0.3,0-0.5
		c-0.1-0.1-0.8,0.1-1,0.1c-0.1-0.2-0.1-0.6-0.1-0.8c-0.2-0.8-0.2-2.1-0.1-2.9c0-0.2,0.1-0.7,0.2-0.8c0.1-0.1,0.5-0.2,0.6-0.1
		c0.1,0.2,0,0.8,0,1c-0.1,0.7,0,1.7,0.1,2.4c0.1,0.1,0.4,0.1,0.5,0.1c0,0,0,0,0,0c0.1-0.3,0-0.7,0-1c0-0.3,0-0.5,0-0.8
		c0-0.7,0-1.3,0-1.9c-0.2-0.2-0.4-0.3-0.8-0.3c-0.1,0-0.2,0-0.3,0c-0.1,0-0.2,0-0.3,0.1c-0.4,0.1-0.7,0.2-1.1,0.3
		c-0.3,0.1-0.7,0-0.6,0.3c0,0,0,0-0.1,0.1c-0.1,0.3,0.1,0.8,0,1.2C124,77.1,124,77.5,124,77.9 M141.7,83.2c0.1,0,0.5,0.1,0.6,0.1
		c0.2,0,0.4,0.1,0.6,0.1h0.3c0.1,0,0.3,0,0.4,0.1c0.2,0.1,1,0.4,1.3,0.3c0,0,0,0,0,0c0-0.2-0.6-0.7-0.7-0.8c-0.3-0.3-0.6-0.7-1-0.8
		c-0.3-0.1-0.8-0.2-1.2-0.3c0,0-0.2,0-0.3,0c0,0-0.1-0.1-0.1-0.1c-0.1-0.1-0.3-0.1-0.5-0.1c-0.1,0-0.3,0-0.3,0.1
		c0,0.1,0.3,0.5,0.3,0.6c0.1,0.2,0.3,0.5,0.5,0.7C141.6,83.1,141.7,83.2,141.7,83.2 M137,85.7c-0.2,0.1-0.3,0.1-0.4,0.2
		c-0.1,0.1,0,0.4,0,0.5c0,0.5,0.1,0.9,0.1,1.4c0,0.2,0,0.4,0,0.7c0.1,1.3,0.2,2.5,0.3,3.8c0,0.2,0,0.4,0,0.6
		c0.1,0.4,0.1,0.8,0.1,1.2c0,0,0,0,0.1,0c0.2-0.4,0-1,0.1-1.6c0.1-1.5,0.1-3,0.2-4.5c0-0.5,0-1,0.1-1.5c0-0.2,0-0.5,0-0.5
		C137.4,85.8,137.2,85.7,137,85.7 M158.5,91c0.2,0,0.4-0.1,0.3-0.3c-0.1-0.2-0.5-0.2-0.8-0.3c-0.5-0.1-1-0.2-1.5-0.3
		c-0.1,0-0.2,0-0.2,0c0,0,0,0,0,0c0,0,0.1,0,0.1,0v0c-0.1,0-0.2,0-0.3,0c0,0-0.1,0-0.1-0.1c-0.1,0-0.1,0-0.2,0c0,0-0.1,0-0.1-0.1
		c-0.1,0-0.1,0-0.2,0c0,0-0.1,0-0.1-0.1h-0.3c-0.8-0.2-1.8-0.4-2.6-0.6c-0.3-0.1-0.7-0.2-1-0.3c-0.2-0.1-0.3,0-0.5-0.1c0,0,0,0,0,0
		v0c0,0,0.1,0,0.1,0c-0.1,0-0.2,0-0.3,0v0c0,0,0,0,0,0c0,0,0,0,0,0c-0.7-0.1-1.4-0.3-2.1-0.5c-0.3-0.1-0.5-0.1-0.8-0.2
		c-0.8-0.2-1.6-0.4-2.3-0.6c-0.9-0.2-1.9-0.4-2.8-0.6c-0.3-0.1-0.5-0.1-0.8-0.2c-0.8-0.2-1.6-0.4-2.5-0.6c-0.3-0.1-0.6-0.1-0.9-0.2
		c-0.1,0-0.1-0.1-0.3-0.1c-0.1,0.1-0.3,0.1-0.4,0.2c-0.1,0.3,0,0.7,0.2,0.8c1.3,0.3,2.6,0.5,3.9,0.8c0.7,0.2,1.4,0.2,2.1,0.4
		c0.5,0.1,0.9,0.2,1.4,0.3c1.5,0.3,3,0.5,4.5,0.9c0.2,0,0.4,0.1,0.5,0.1c0.8,0.2,1.7,0.3,2.5,0.6c0.8,0.2,1.6,0.4,2.3,0.6
		c0.3,0.1,0.7,0.1,1,0.2v0c0,0-0.1,0-0.1,0c-0.1,0.1,0,0.2,0,0.3c0,0.2-0.1,0.2,0.1,0.4v0c-0.1,0.1-0.4-0.1-0.6,0
		c-0.1,0-0.2,0.1-0.2,0.2c-0.1,0.2,0,0.7,0.1,0.8c0.2,0.1,0.4,0.1,0.6,0.2c0,0,0,0,0,0c0,0.3,0,0.6,0.2,0.7l0,0
		c-0.2,0-0.5-0.1-0.7,0c-0.3,0.1-0.3,0.5-0.2,0.8c0,0.1,0,0.1,0.1,0.2c0.1,0.1,0.3,0.1,0.4,0.1c0.5,0.1,1.3,0,1.2-0.6
		c0-0.1,0-0.2-0.1-0.3c-0.1-0.1-0.3-0.2-0.4-0.2c0,0,0,0,0,0c0.2-0.1,0.7-0.4,0.6-0.7c0,0,0,0,0,0c-0.2,0-0.3,0-0.5,0h0v0
		c0.1-0.1,0.2-0.2,0.3-0.3c0.2-0.3,0-0.7-0.3-0.8c0,0,0,0,0,0c0.1,0,0.2-0.1,0.3-0.1c0.2-0.1,0.3-0.2,0.4-0.4
		C157.9,90.9,158.2,91,158.5,91 M155.4,89.8C155.4,89.8,155.4,89.8,155.4,89.8C155.4,89.8,155.4,89.8,155.4,89.8L155.4,89.8z
		 M127.4,88.4c0.1-0.3,0-1.1,0-1.4c0-0.3,0-0.5,0-0.8c0-0.1,0-0.1,0-0.2c-0.1-0.2-0.4-0.3-0.8-0.3c-0.1,0-0.1,0-0.2,0
		c-0.1,0-0.3,0.1-0.4,0.1c-0.4,0.1-0.7,0.2-1.1,0.3c-0.2,0-0.4,0-0.5,0.1c-0.1,0.1,0,0.2-0.1,0.3c0,0-0.1,0-0.1,0.1
		c0,0.1,0,0.1,0,0.2c0,0.3,0,0.5,0,0.8c0,0.6-0.1,1.2-0.1,1.8c-0.1,0.4-0.1,1,0,1.4c0,0.3,0,0.8,0.2,0.9c0.5,0.4,1.6,0.1,2.2-0.1
		c0.2,0,0.5,0,0.6-0.1c0.1-0.1,0-0.3,0-0.4c0,0,0,0,0,0c-0.3,0-0.6,0.1-1,0.1c-0.1-0.1-0.1-0.2-0.1-0.4c-0.1-0.3-0.1-0.7-0.1-1
		c-0.1-0.7-0.1-1.7,0-2.3c0-0.2,0.1-0.7,0.2-0.8c0.1-0.1,0.4-0.2,0.6-0.1c0.1,0.2,0,0.9,0,1.1c-0.1,0.7-0.1,1.7,0.1,2.3
		c0.1,0.1,0.4,0.1,0.6,0.1c0.1-0.2,0-0.5,0-0.7C127.3,88.9,127.4,88.7,127.4,88.4 M100.3,89.3c0,0,0,0.1-0.1,0.1
		c0,0.2,0.5,0.1,0.7,0.1c0.5,0,1.6,0.2,1.8-0.2c-0.1-0.1-0.2,0-0.3-0.1c0-0.1,0.1-0.5,0.1-0.6c0.1,0,0.1,0,0.2,0
		c0.2-0.3,0.1-1.3,0-1.7c0-0.3,0.1-0.5-0.1-0.6c-0.1-0.1-0.4,0-0.5-0.1c-0.5-0.1-0.9-0.2-1.4-0.2c-0.1,0.1-0.3,0-0.3,0.2
		c0,0,0,0,0,0c0.6,0.1,1.3,0.3,2,0.3c0,0,0,0,0,0.1c0,0,0,0,0,0c-0.5,0-1,0-1.6,0c-0.3,0.3-0.6,1.3-0.4,1.9c0,0.1,0.1,0.3,0.1,0.4
		c0,0.1,0.1,0.2,0.1,0.2c0,0,0,0,0,0C100.7,89.3,100.5,89.2,100.3,89.3 M142.8,91c0-0.3,0-0.5,0-0.8c-0.1-0.4,0.1-0.7,0-0.9
		c-0.1-0.1-0.4-0.1-0.6-0.1c-0.3-0.1-0.6-0.1-1-0.2c-0.3-0.1-0.6-0.1-0.9-0.1c-0.1,0-0.1,0-0.2,0c-0.2,0-0.2,0.1-0.3,0.2v0
		c0.1,0,0.1,0,0.2,0.1c0.1,0.3,0,0.6,0,1c0,0.5,0,1,0,1.4c0,0.2,0,0.3,0,0.5c0,0.1-0.2,1-0.1,1c0.1,0.1,0.3,0.1,0.4,0.1
		c0.4,0.1,0.8,0.2,1.2,0.2c0.1-0.1,0-1.1,0-1.3c0-0.7-0.1-1.5,0.1-2.1c0.1-0.1,0.1-0.3,0.2-0.4c0.1,0,0.4-0.1,0.5,0
		c0.1,0.1,0.1,0.6,0.1,0.8c0,0.3,0,0.6,0,0.9c0,0.6,0,1.1,0,1.6c0,0,0,0,0,0c0.1,0,0.4,0,0.5,0c0.2-0.1,0.1-0.6,0.2-0.8
		C142.9,91.7,142.9,91.3,142.8,91 M157.3,89.4C157.4,89.4,157.4,89.4,157.3,89.4C157.3,89.4,157.4,89.4,157.3,89.4 M155.1,89.7
		c0,0-0.1,0-0.1,0C155,89.7,155.1,89.7,155.1,89.7 M148.7,91.5c-0.1-0.4,0-0.8,0-1.1c-0.1-0.1-0.1-0.2-0.1-0.2
		c-0.1-0.1-0.5-0.1-0.6-0.1c-0.6-0.1-1.1-0.3-1.9-0.3c-0.2,0.1-0.4,0-0.4,0.2c0,0,0,0,0,0c0,0,0.1,0.1,0.1,0.1c0.1,0.1,0,0.9,0,1.1
		c0,0.7,0,1.4-0.1,2c0,0.3-0.1,0.6-0.1,0.8c0,0,0,0,0,0c0.4,0.1,0.8,0.1,1.2,0.2c0.1,0,0.4,0.1,0.4,0c0-0.3,0-0.5,0-0.8
		c0-0.8-0.1-1.8,0.1-2.5c0-0.2,0.1-0.5,0.2-0.5c0.1,0,0.5,0,0.5,0c0.1,0.2,0.1,0.6,0,0.9c0,0.5,0,1,0,1.4c0,0.3,0,0.7,0,1
		c0,0,0,0,0,0.1c0.1,0,0.3,0,0.5,0c0.1-0.2,0.1-0.4,0.1-0.7C148.8,92.6,148.8,92,148.7,91.5 M86.3,109c-0.2-0.2-0.1-0.6-0.2-0.9
		c-0.1-0.2-0.3-0.4-0.4-0.6c-0.2-0.3-0.3-0.6-0.6-0.8c-0.9-0.7-2.3-0.9-3.1-1.8c-0.3-0.4-0.1-0.8-0.4-1.4c0-0.1-0.2-0.4-0.2-0.5
		c0.2-0.3-0.1-0.5,0-0.8c0.4-0.6,0.7-1.3,1-1.9c0.1-0.1,0.1-0.2,0.2-0.4c0.1-0.1,0.3-0.2,0.3-0.3c-0.2-0.1-0.3-0.3-0.5-0.4
		c-0.4-0.3-0.8-0.7-1-1.2c-0.2-0.4-0.3-0.8-0.4-1.2c-0.5-2.1,0.8-3.9,1.6-5c0.2-0.2,0.3-0.4,0.5-0.6c0.1-0.1,0.2-0.2,0.3-0.3
		c0,0,0,0,0,0c0,0,0,0,0-0.1c0,0,0,0,0,0c0,0,0,0,0,0c0.3-0.2,0.5-0.4,0.8-0.6c0,0,0.1-0.1,0.1-0.1c0,0,0,0,0,0c0,0,0,0-0.1,0
		c-0.1,0.1-0.4,0.2-0.5,0.3c-0.3,0.2-0.6,0.4-1,0.6c-0.2,0.1-0.4,0.3-0.7,0.5c-1,0.7-1.8,1.6-2.4,2.7c-0.2,0.5-0.5,1-0.5,1.7h0v0.8
		h0c0.1,1.4,0.9,2.2,1.7,2.8c0.2,0.1,0.4,0.2,0.6,0.4c0.1,0.1,0.2,0.1,0.2,0.1c0,0,0,0,0,0c-0.1,0-0.1,0.1-0.2,0.1
		c-0.1,0.1-0.3,0.2-0.4,0.4c-0.3,0.3-0.5,0.7-0.8,1.1c-0.1,0.1-0.1,0.3-0.2,0.4c-0.1,0.2,0.2,0.4,0.2,0.6c-0.1,0.4,0.2,0.9,0.3,1.1
		c0.6,0.9,0.8,1.8,1.7,2.3c0.7,0.4,1.5,0.5,1.9,1.1c0.3,0.4,0.6,0.9,0.8,1.4c0.2,0.3,0.2,0.8,0.4,1.1c0.2,0.3,0.6,0.4,0.9,0.5
		c0.1,0,0.3,0.2,0.5,0.2c0,0,0,0,0,0c0-0.2,0-0.4,0-0.6C87,109.4,86.5,109.3,86.3,109 M153.9,91.8c0-0.3,0.1-0.7-0.1-0.9
		c-0.1-0.1-0.5-0.1-0.7-0.1c-0.6-0.1-1.1-0.3-1.8-0.3c-0.1,0-0.2,0-0.3,0c-0.1,0-0.1,0.1-0.2,0.1c0,0,0,0,0,0.1c0,0.1,0.1,0,0.2,0.1
		v1.1c0,1,0,2-0.2,2.8c0.1,0.1,0.3,0.1,0.5,0.1c0.4,0.1,0.7,0.2,1.1,0.2c0,0,0,0,0,0c0.1-0.1,0-0.7,0-0.9c0-0.8,0-1.6,0.1-2.2
		c0-0.2,0.1-0.6,0.2-0.7c0.1,0,0.2,0,0.2,0c0.2,0,0.2,0,0.3,0.1c0,0.2,0,0.6,0,0.8c0,0.5,0,1.1,0,1.6c0,0.2-0.1,0.8,0,0.9
		c0.1,0,0.4,0,0.5,0c0.1-0.1,0.1-0.6,0.1-0.8C154,93.1,153.9,92.5,153.9,91.8 M103,93c0-0.3,0.1-0.6-0.1-0.7c-0.1-0.1-0.3,0-0.5,0
		c-0.4-0.1-0.9-0.2-1.4-0.2c-0.1,0.1-0.3,0-0.4,0.1c0,0,0,0,0,0c0.1,0.1,0.3,0.1,0.4,0.1v0c0,0-0.2,0.7-0.3,0.9
		c-0.1,0.6,0.1,1.1,0.3,1.5h1.1c0.2,0,0.5,0,0.7,0C103.1,94.3,103,93.4,103,93 M112.5,96c0-0.3,0-0.5,0-0.8c0-0.3,0-0.6,0-0.8
		c0-0.3,0-0.6,0-0.9c0-0.3-0.1-1,0-1.3c-0.1-0.1-0.2-0.1-0.4-0.1c-0.1,0-0.2,0-0.3,0c-0.4,0.1-0.8,0.2-1.2,0.3
		c-0.2,0.1-0.4,0-0.5,0.1c0,0.2,0.1,0.2,0.1,0.3c0,0.2,0,0.4,0,0.6c0,0.2,0,0.4,0,0.6c-0.1,0.8,0,1.7,0,2.4c0,0,0,0,0,0
		c0.1,0,0.3,0,0.3,0c0.1-0.2,0-0.7,0.1-1c0.1-0.4,0-0.8,0-1.3v-0.6c0-0.2-0.1-0.8,0-0.9c0.1-0.1,0.3-0.1,0.4-0.1
		c0.2,0,0.4-0.1,0.6-0.1c0.2,0,0.4-0.1,0.6-0.2c0,0,0,0,0,0c0,0.1,0.1,0.2,0,0.3c0,0,0,0,0,0h-0.3c-0.2,0.1-0.3,0.1-0.5,0.2
		c-0.1,0-0.2,0-0.3,0.1c-0.2,0.3,0.1,0.4,0.1,0.5v0.4c0,1,0,2,0,3c-0.2,0.1-0.6,0.2-0.8,0.2c0,0,0,0,0,0c0.2,0.3,1.4,0,1.7-0.1
		c0.1,0,0.4,0,0.5-0.1c0-0.1-0.1-0.2-0.1-0.2C112.5,96.4,112.5,96.2,112.5,96 M108.8,94.2c0-0.2,0-0.4,0-0.6c0-0.1-0.1-0.2-0.1-0.3
		c0,0,0.1-0.1,0.1-0.1v0c-0.1-0.1-0.3-0.1-0.6-0.1c-0.2,0-0.3,0.1-0.5,0.1c-0.3,0.1-0.6,0.1-0.8,0.2c-0.2,0-0.5,0-0.5,0.2
		c0,0.1,0,0.1,0,0.1c0,0.3,0,0.5,0,0.8c0,0.2,0,0.4,0,0.6c-0.1,0.6,0,1.2,0,1.9c0,0.2,0,0.4,0,0.6c0,0.1,0,0.2,0,0.3
		c0,0.1-0.1,0-0.1,0.1c0.1,0.1,0.2,0.2,0.3,0.2c0.2,0.1,0.5,0,0.7,0c0.4-0.1,0.8-0.2,1.3-0.2c0.1-0.1,0-0.2,0-0.4
		c-0.1-0.1-0.3,0-0.5,0c-0.3,0-0.9,0.1-1.1,0.2c0,0,0,0-0.1,0c-0.1-0.1,0-0.9,0-1.1c0-1,0-1.9,0-2.9c0.1,0,0.6-0.2,0.7-0.1
		c0,1.2,0,2.4,0,3.6c0,0,0,0,0,0c0.3,0.1,0.7-0.1,0.9-0.2c0.1,0,0.2,0,0.3,0c0,0,0,0,0,0c0-0.3,0-0.7,0-1c0-0.3,0.1-0.9,0-1.2
		C108.8,94.6,108.8,94.4,108.8,94.2 M139.5,93.4C139.5,93.4,139.4,93.4,139.5,93.4c-0.1,0.2-0.2,0.4-0.1,0.6
		c0.1,0.1,0.7,0.1,0.9,0.1c0.5,0.1,1.7,0.4,2.2,0.2c0.1,0,0.2-0.2,0.2-0.3c0,0,0,0,0,0c-0.1-0.1-0.5-0.1-0.7-0.2
		C141.3,93.5,140.4,93.4,139.5,93.4 M145.4,94.3c0,0.1-0.1,0.4-0.1,0.5c0.1,0.1,0.6,0.1,0.8,0.1c0.4,0.1,0.8,0.1,1.3,0.2
		c0.2,0,0.4,0,0.5,0c0.4,0.1,0.8-0.1,0.8-0.4c-0.2-0.1-0.6-0.1-0.9-0.2C147.1,94.4,146.2,94.3,145.4,94.3 M155.9,97.2
		c-0.3,0.2-0.3,0.9,0.1,1c0.4,0.2,1.2,0.1,1.4-0.2c0.2-0.3,0-0.9-0.4-0.9c0,0,0,0,0,0c0.1-0.2,0.5-0.3,0.4-0.7c-0.1,0-0.2,0-0.3-0.1
		c0,0,0,0,0,0v0c0.1-0.1,0.2-0.1,0.3-0.2c0.1-0.3-0.1-0.7-0.3-0.7c0,0,0,0,0,0c0-0.1,0.1-0.1,0.1-0.1c0.1-0.1,0.4-0.3,0.3-0.6v0
		c-0.1-0.1-0.7-0.1-0.9-0.1c-0.1,0-0.1,0-0.2,0.1c-0.1,0.1,0.1,0.6,0.1,0.7c-0.3,0.1-0.5-0.1-0.7,0c-0.2,0.1-0.3,0.7-0.1,1
		c0.1,0.1,0.5,0.2,0.7,0.2c0.1,0.2,0.1,0.4,0.1,0.6v0.1C156.2,97.2,156.1,97.1,155.9,97.2 M150.6,95.1c-0.1,0.1-0.1,0.4-0.1,0.6
		c0.2,0.1,0.5,0.1,0.7,0.1c0.4,0.1,0.8,0.1,1.3,0.2c0.2,0,0.3,0,0.5,0c0.4,0.1,0.9-0.1,0.9-0.4c-0.2-0.1-0.6-0.1-0.9-0.2
		C152.3,95.2,151.5,95.1,150.6,95.1 M102.9,95.3c-0.1,0-0.3,0-0.5-0.1c-0.4-0.1-0.8-0.1-1.3-0.1c-0.2,0.1-0.5,0-0.7,0.1
		c-0.1,0-0.1,0.1-0.1,0.2c0.1,0.1,0.3,0,0.6,0.1C101.4,95.6,102.7,95.6,102.9,95.3L102.9,95.3z M93,100.3c0.1,0,0.3,0,0.3-0.1
		c0-0.2,0-0.3,0-0.5c0.1-0.4,0.1-1,0-1.4c0-0.2,0.1-0.6-0.2-0.5c0,0,0,0,0,0c0,0.1,0,0.3,0,0.5c-0.1,0.6,0,1.2,0,1.7c0,0,0,0,0,0
		c-0.1,0-0.2,0-0.3,0c-0.1-0.2,0-0.5,0-0.7c0-0.5,0-1,0.1-1.5c0-0.1,0-0.3,0-0.4c0-0.1,0.2-0.1,0.3-0.1v0c-0.1-0.1-0.2-0.1-0.4-0.1
		c-0.1,0-0.3,0.1-0.4,0.1c-0.2,0.1-0.5,0.1-0.7,0.2c-0.1,0.2-0.1,0.6-0.1,0.9c0,0.7,0,1.4,0.1,2.1C91.9,100.5,92.7,100.3,93,100.3
		 M101,102c-0.1,0.6,0.1,1.4,0.3,1.7c0.1,0,0.4,0,0.5,0c0.3,0,0.6,0,0.9,0c0.1-0.3,0.1-1.7,0-2.2c0-0.2,0-0.4,0-0.6
		c0-0.1-0.2-0.3-0.3-0.3c-0.4-0.2-1.3,0-1.8-0.1c0,0-0.1,0-0.1,0.1c0,0.2,0,0.4-0.1,0.6c0,0.2,0,0.5,0,0.8c0,0.5,0,1,0.1,1.5
		c0,0,0.1,0,0.2,0c0.2-0.3,0.1-1.5,0.1-1.9c0-0.1-0.1-0.6,0-0.7c0,0,0,0,0,0c0.1,0,0.2,0,0.4,0c0,0.1,0,0.2-0.1,0.3
		C101.1,101.4,101.1,101.7,101,102 M88.5,113c-0.1-2.1-0.1-4.1-0.2-6.2c0-0.5,0-1,0-1.5c0-0.4,0-0.8-0.4-0.8
		c-0.1,0.1-0.3,0.1-0.3,0.3c0,0.8,0,1.5,0.1,2.3c0.1,2.1,0.2,4.2,0.2,6.3c0,0.6,0,1.3,0.1,1.9c0,0,0.5,0,0.6,0c0.1-0.1,0-0.5,0-0.6
		C88.5,114.1,88.5,113.5,88.5,113"/>
	<path class="st2" d="M54.7,131.8C42,137.7,35.6,142.5,32.6,145c0.3,0.5,0.4,1.1,0.2,1.5c-0.1,0.1-0.1,0.2-0.2,0.4l0,0
		c0,0,7.3-5.8,12.8-9.6C48,135.5,51.6,133.4,54.7,131.8"/>
	<path class="st3" d="M78.7,148l1.5-0.1c0.1,0.5,0.2,0.9,0.5,1.2c0.3,0.3,0.7,0.6,1.2,0.7c0.6,0.2,1.2,0.3,1.9,0.3
		c0.6,0,1.2-0.1,1.6-0.2c0.5-0.1,0.8-0.3,1.1-0.6c0.2-0.2,0.3-0.5,0.3-0.8c0-0.3-0.1-0.6-0.3-0.8c-0.2-0.2-0.6-0.4-1.1-0.6
		c-0.3-0.1-1.1-0.3-2.2-0.5c-1.1-0.2-1.9-0.4-2.4-0.6c-0.6-0.2-1-0.5-1.3-0.9c-0.3-0.4-0.4-0.7-0.4-1.2c0-0.5,0.2-0.9,0.5-1.3
		c0.4-0.4,0.9-0.7,1.5-1c0.7-0.2,1.4-0.3,2.3-0.3c0.9,0,1.7,0.1,2.4,0.3c0.7,0.2,1.2,0.6,1.6,1c0.4,0.4,0.6,0.9,0.6,1.5l-1.6,0.1
		c-0.1-0.6-0.4-1.1-0.9-1.4c-0.5-0.3-1.2-0.5-2.1-0.5c-1,0-1.7,0.1-2.2,0.4c-0.5,0.3-0.7,0.6-0.7,1c0,0.3,0.2,0.6,0.5,0.8
		c0.3,0.2,1.1,0.4,2.5,0.7c1.3,0.2,2.2,0.4,2.7,0.6c0.7,0.3,1.2,0.6,1.6,1c0.3,0.4,0.5,0.8,0.5,1.4c0,0.5-0.2,1-0.6,1.4
		c-0.4,0.4-0.9,0.8-1.6,1c-0.7,0.2-1.5,0.4-2.4,0.4c-1.1,0-2-0.1-2.8-0.4c-0.8-0.3-1.3-0.6-1.8-1.1C78.9,149.2,78.7,148.6,78.7,148"
		/>
	<path class="st3" d="M91.8,151.1v-9.5h2.5l2.9,6.7c0.3,0.6,0.5,1.1,0.6,1.4c0.1-0.3,0.4-0.9,0.7-1.5l2.9-6.6h2.2v9.5H102v-8l-3.6,8
		H97l-3.6-8.1v8.1H91.8z"/>
	<path class="st3" d="M106,151.1l4.7-9.5h1.8l5,9.5h-1.9l-1.4-2.9h-5.2l-1.4,2.9H106z M109.6,147.1h4.2l-1.3-2.6
		c-0.4-0.8-0.7-1.5-0.9-2c-0.2,0.6-0.4,1.2-0.7,1.8L109.6,147.1z"/>
	<path class="st3" d="M120.1,151.1v-9.5h5.5c1.1,0,1.9,0.1,2.5,0.3c0.6,0.2,1,0.5,1.4,0.9c0.3,0.4,0.5,0.9,0.5,1.4
		c0,0.7-0.3,1.2-0.8,1.7c-0.6,0.5-1.4,0.8-2.6,0.9c0.4,0.2,0.8,0.3,1,0.5c0.5,0.3,0.9,0.8,1.4,1.3l2.1,2.6h-2l-1.6-2
		c-0.5-0.6-0.9-1-1.2-1.3c-0.3-0.3-0.6-0.5-0.8-0.6c-0.2-0.1-0.5-0.2-0.7-0.3c-0.2,0-0.5,0-0.9,0h-1.9v4.2H120.1z M121.7,145.7h3.5
		c0.7,0,1.3-0.1,1.7-0.2c0.4-0.1,0.7-0.3,1-0.6c0.2-0.3,0.3-0.5,0.3-0.9c0-0.4-0.2-0.8-0.6-1.1c-0.4-0.3-1.1-0.4-2-0.4h-3.9V145.7z"
		/>
	<polygon class="st3" points="136.5,151.1 136.5,142.7 132.4,142.7 132.4,141.5 142.2,141.5 142.2,142.7 138.1,142.7 138.1,151.1 	
		"/>
	<path class="st3" d="M153.8,147.7l1.6,0.3c-0.3,1-1,1.8-1.8,2.4c-0.9,0.5-2,0.8-3.3,0.8c-1.3,0-2.4-0.2-3.2-0.6
		c-0.8-0.4-1.5-1-1.9-1.8c-0.4-0.8-0.7-1.6-0.7-2.6c0-1,0.2-1.9,0.7-2.6c0.5-0.7,1.2-1.3,2.1-1.7c0.9-0.4,1.9-0.6,3-0.6
		c1.2,0,2.3,0.2,3.1,0.7c0.8,0.5,1.4,1.2,1.8,2l-1.6,0.3c-0.3-0.7-0.7-1.2-1.2-1.5c-0.5-0.3-1.2-0.5-2.1-0.5c-0.9,0-1.7,0.2-2.4,0.5
		c-0.6,0.4-1.1,0.8-1.3,1.4c-0.3,0.6-0.4,1.2-0.4,1.8c0,0.8,0.2,1.5,0.5,2.1c0.3,0.6,0.8,1.1,1.4,1.4c0.6,0.3,1.3,0.4,2.1,0.4
		c0.9,0,1.7-0.2,2.3-0.6C153.2,149.1,153.6,148.5,153.8,147.7"/>
	<rect x="158.9" y="141.5" class="st3" width="1.6" height="9.5"/>
	<polygon class="st3" points="167.7,151.1 167.7,142.7 163.6,142.7 163.6,141.5 173.4,141.5 173.4,142.7 169.3,142.7 169.3,151.1 	
		"/>
	<path class="st3" d="M179.7,151.1v-4l-4.7-5.5h2l2.4,2.9c0.4,0.5,0.9,1.1,1.3,1.6c0.4-0.5,0.8-1.1,1.3-1.7l2.4-2.8h1.9l-4.9,5.5v4
		H179.7z"/>
	<polygon class="st3" points="78.7,169.2 78.7,156.4 91.8,156.4 91.8,158.5 82.3,158.5 82.3,161.4 91.2,161.4 91.2,163.6 
		82.3,163.6 82.3,167.1 92.2,167.1 92.2,169.2 	"/>
	<rect x="97.7" y="156.4" class="st3" width="3.6" height="12.9"/>
	<path class="st3" d="M118.7,164.5l3.5,0.8c-0.5,1.4-1.4,2.4-2.7,3.1c-1.2,0.7-2.8,1-4.7,1c-2.4,0-4.3-0.6-5.8-1.8
		c-1.5-1.2-2.3-2.8-2.3-4.8c0-2.1,0.8-3.8,2.3-5c1.5-1.2,3.5-1.8,6-1.8c2.2,0,3.9,0.5,5.3,1.4c0.8,0.5,1.4,1.3,1.8,2.4l-3.5,0.6
		c-0.2-0.7-0.6-1.2-1.3-1.6c-0.7-0.4-1.5-0.6-2.4-0.6c-1.3,0-2.4,0.3-3.2,1c-0.8,0.7-1.2,1.8-1.2,3.3c0,1.6,0.4,2.8,1.2,3.5
		c0.8,0.7,1.9,1,3.1,1c1,0,1.8-0.2,2.5-0.7C117.9,166.1,118.4,165.4,118.7,164.5"/>
	<polygon class="st3" points="127.8,169.2 127.8,156.4 131.4,156.4 131.4,161.4 138.4,161.4 138.4,156.4 142,156.4 142,169.2 
		138.4,169.2 138.4,163.6 131.4,163.6 131.4,169.2 	"/>
	<polygon class="st3" points="148.3,169.2 148.3,156.4 161.4,156.4 161.4,158.5 151.9,158.5 151.9,161.4 160.8,161.4 160.8,163.6 
		151.9,163.6 151.9,167.1 161.8,167.1 161.8,169.2 	"/>
	<polygon class="st3" points="167.5,169.2 167.5,156.4 171,156.4 178.2,165 178.2,156.4 181.5,156.4 181.5,169.2 177.9,169.2 
		170.8,160.8 170.8,169.2 	"/>
	<polygon class="st3" points="186.4,169.2 186.4,166.9 195.7,158.5 187.5,158.5 187.5,156.4 200.4,156.4 200.4,158.4 190.7,167.1 
		200.8,167.1 200.8,169.2 	"/>
	<polygon class="st3" points="205.7,169.2 205.7,156.4 218.8,156.4 218.8,158.5 209.3,158.5 209.3,161.4 218.1,161.4 218.1,163.6 
		209.3,163.6 209.3,167.1 219.2,167.1 219.2,169.2 	"/>
	<polygon class="st3" points="224.9,169.2 224.9,156.5 228.5,156.5 228.5,167.1 237.4,167.1 237.4,169.2 	"/>
	<polygon class="st3" points="242.6,169.2 242.6,156.5 246.2,156.5 246.2,167.1 255.1,167.1 255.1,169.2 	"/>
	<path class="st2" d="M123.3,118.4c0,0,3.7,0.9,5.9,2.2c2.3,1.4,3.1,3,3.1,3s-1.4-1.6-3.8-2.5c-2.4-0.9-7.2-2.6-7.2-2.6L123.3,118.4
		z"/>
	<path class="st2" d="M109.1,120.5c0,0,2.4,0.6,3.8,1.5c1.5,1,2.1,2.1,2.1,2.1s-0.9-1.1-2.5-1.7c-1.6-0.6-4.7-1.8-4.7-1.8
		L109.1,120.5z"/>
	<path class="st2" d="M139.1,118c0,0,4.3,1.2,6.9,2.2c3.3,1.3,1.6,3.5,1.6,3.5s0.3-2.2-2.5-3.1c-2.9-0.9-8.5-2.6-8.5-2.6L139.1,118z
		"/>
	<path class="st4" d="M122.1,40.6c2.2-1.1,4.1-1.8,7.1-1.8c3.3,0,5,0.7,7.3,2c0,0-0.5-0.6-0.7-0.8c-1.4-1.2-2.9-2-6.6-2
		c-3.5,0-4.9,1-6.4,2C122.6,40.2,122.1,40.6,122.1,40.6"/>
	<path class="st4" d="M144.2,35.1c0,0-3.3-6.2-15.4-6.1c-12.3,0.1-15.4,6.2-15.4,6.2c4-3,8.8-4.9,15.4-4.9
		C135.4,30.2,140.2,32.1,144.2,35.1"/>
	<path class="st4" d="M139.7,38.1c0,0-1.8-4.5-10.6-4.4c-8.5,0-10.6,4.3-10.6,4.3c2.9-2.1,5.8-3.3,10.5-3.3
		C133.8,34.7,136.7,35.9,139.7,38.1"/>
	<path class="st2" d="M67.6,127.4c2.7-1.3,5.5-2.4,8.4-3.5c-2.8,0.8-5.5,1.7-8.1,2.5c-4.2,1.7-10.3,4.7-13.8,6.9
		c-8.7,5.3-10.8,8-11.2,8.8c-0.1,0.1-0.2,0.2-0.2,0.4c-0.2,0.6-0.1,1.2,0.3,1.8c0-0.1,0-0.3,0.1-0.4c0.2-0.5,0.9-0.7,1.7-0.5
		C46.7,140.9,52.9,134.4,67.6,127.4"/>
	<path class="st2" d="M142.8,116.4l-3.2-0.2c0.7,0,1.4,0,2.1,0c5.3,0,11.4,0.2,17,0.5c2.8,0.2,4.8,0.2,7.8,0.5
		c0.2-0.7,0.1-1.4-0.6-1.8c-0.5-0.3-1.5-0.4-2-0.7c-0.3-0.2-0.2-0.4-0.5-0.7c-0.3-0.3-0.3-0.3-0.3-0.7c-7.5-0.7-15.4-1.3-23.5-1.3
		c-4.6,0-9.7,0-14,0.5c-21.4,1.2-40.7,5.8-57.2,11.4c-5.7,1.9-16.5,5.5-26.8,11c-8.9,4.8-12.4,7.9-13.3,8.9c0.6-0.5,1.7-0.5,2.6-0.2
		c3.8-2.9,9.6-7.4,28.4-14.8c19.9-7.9,44.2-11.9,44.2-11.9s-2.3,0.5-5.8,1.3c-5.8,1.6-19.1,5.4-27.4,9.2
		c-21,9.5-24.4,17.2-24.4,17.2c0,0.1,0,0.2-0.1,0.4c-0.1,0.2-0.3,0.4-0.6,0.5c1,0.1,2-0.2,2.3-1c0,0,0,0,0,0
		c0.9-1.3,2.2-2.4,5.9-5.6c1.9-1.6,3.2-2.3,6.3-3.8c-2.1,1.8-4.7,3.5-6.6,5.8c-1.2,1.4-1.5,2-1.5,2.3c-0.2,0.5-0.2,1,0.1,1.6
		c0-0.1,0-0.2,0.1-0.3c0.2-0.4,0.7-0.6,1.3-0.6c1-1.7,1.1-2.2,12.4-10.8c1.3-1,6.5-3.7,9.1-4.8c-0.4,0.3-5.2,2.9-7.6,4.8
		c-11.9,9.3-12.2,12.1-12.2,12.1c0,0.1,0.1,0.4,0,0.6c-0.2,0.4-0.6,0.6-1.2,0.6c1.2,0.5,2.5,0.2,2.9-0.6c0,0,0,0,0,0
		c0.6-0.9,6.7-9,15.3-14.1c15.7-9.3,35.9-14.8,65.3-15.3c8.2,0.8,26,2.9,23.4,6.3c-6.2,8.4-69.7,14.6-69.7,14.6s73.8-4.1,75-14.6
		C166.4,117.8,142.8,116.4,142.8,116.4"/>
	<path class="st2" d="M175.2,115.7c-0.1-0.3-0.1-0.7,0.1-0.9c0,0,0,0,0-0.1c0,0-0.3-0.1-0.3-0.1c-0.9-0.1-1-0.1-1.9-0.2
		c0,0.5-0.1,0.5,0.1,0.7c0.2,0.2,0.3,0.2,0.6,0.3c0.4,0.1,1.2,0.6,1.3,1c0.2,0.9-0.7,1.2-1.6,1.1c-1.1-0.1-2.5-0.3-3.5-0.9
		c-0.3-0.2-0.3-0.7-0.3-0.5c0,0.2,0,0.4,0,0.5c0,0.3,0,0.6,0,0.8c1.5,0.1,2.8,0.3,4.2,0.5c0.7,0.1,1.3,0.2,1.9,0.3
		C175.5,117.4,175.2,116.5,175.2,115.7"/>
	<path class="st2" d="M203.6,121.7c-1.2-1.8-10.4-3.5-14.4-4.4c-1.1-0.2-2.4-0.5-3.5-0.7c-0.4,0.5-0.4,0.9-1.1,1
		c-0.2,0-0.7,0.1-0.9,0.1c0,0,0,0.1,0,0.1c0.2,0.8,0.1,1.6,0.1,1.7c3.2,0.6,5.2,1,7,1.4C192,118.5,213.9,126.3,203.6,121.7"/>
	<path class="st2" d="M135.1,83.8c-1.8-0.5-3.3-0.6-3.3-0.6l0-0.4c0,0,0.8,0.1,1.7,0.2c0.9,0.1,2.8,0.3,2.8,0.3s-0.3-0.8-4.3-1.4
		c-3.4-0.5-8,0.6-9.3,1c0,0.1,0,0.2,0,0.3c0,0.5,0,0.9,0.2,1.3c0,0.1,0,0.1,0,0.2c1.1-0.1,5.3-0.5,8.1-0.6c3.2-0.1,7,0.9,7,0.9
		S136.9,84.2,135.1,83.8"/>
	<path class="st2" d="M135.4,94.4c-1.8-0.5-3.5-0.5-3.5-0.5l0-0.6c0,0,0.8,0,1.6,0.1c0.9,0.1,3.3,0.6,3.3,0.6s-0.5-1-4.5-1.6
		c-3.5-0.5-8.2,0.5-9.2,0.7c0,0,0,0.1,0,0.1c-0.1,0.2-0.5,1.2-0.6,1.8c0,0.1,0,0.3,0,0.3c0.6-0.1,5.4-0.5,8.4-0.4
		c3.1,0,6.8,0.5,6.8,0.5S137.2,94.9,135.4,94.4"/>
	<path class="st2" d="M137.4,73.4c0,0-3.1-1.8-8.7-1.7c-3.5,0.1-5.9,0.8-6.9,1.2c-0.1,0.2-0.3,0.5-0.3,0.7c0,0.2,0.3,0.4,0.4,0.4
		c0.1,0,0.1,0,0.2,0c1.3-0.2,4.8-0.7,6.8-0.8c2.5-0.2,5.4,0.1,5.4,0.1l-0.3-0.6c0,0,0.3,0.1,1,0.3C135.7,73.1,137.4,73.4,137.4,73.4
		"/>
	<path class="st0" d="M182.5,101.6c1.2,0.1,2.7,0.9,2,2.4c0,0,0-0.1-0.1-0.1c-0.8-0.6-1.3-1.1-2.6-1.3c0,0,0,0,0,0
		C182,102.2,182.1,101.7,182.5,101.6"/>
	<path class="st0" d="M181.4,103c1.6,0.2,2.7,0.7,3.5,1.5c0,0.1,0,0.2-0.1,0.3c-0.1,0.2-0.4,0.2-0.6,0.2c0.4-1-1.9-1.7-2.8-1.6
		c0,0.2-0.1,0.4-0.1,0.5c0,0,0,0,0,0c-0.2-0.1-0.4-0.4-0.4-0.7C181,103.1,181.2,103,181.4,103"/>
	<path class="st5" d="M181.6,103.2c0.5,0.1,1.4,0.1,1.7,0.4c0.4,0.4,0.1,0.5,0.8,0.9c0,0.5-0.1,1.2-0.3,1.5
		c-0.5,0.2-0.9,0.6-1.5,0.7c-0.4,0-0.9-0.3-1-0.5c-0.2-0.4-0.1-2.6,0.1-3C181.5,103.2,181.5,103.2,181.6,103.2"/>
	<path class="st0" d="M183.3,103.7c0.5,0.1,0.9,0.6,1.1,1c-0.1,0.4-0.4,1-0.6,1.1c0.1-0.5,0.3-0.9,0.2-1.3
		C183.6,104.4,183.4,104,183.3,103.7"/>
	<path class="st6" d="M182,102.6c0.8,0.1,2.2,0.8,2.4,1.4c0,0,0,0,0,0c-0.7-0.6-1.6-0.9-2.8-1c0,0,0,0,0,0c0.1-0.1,0.2-0.2,0.2-0.3
		C181.9,102.6,182,102.6,182,102.6"/>
	<path class="st0" d="M182.3,106.8c0.1,0,0.1,0,0.2,0c0,0,0,0,0,0c-0.3,0.6-0.1,0.9-0.1,1.6c-0.2,0.2-0.4,0.4-0.7,0.7c0,0,0,0-0.1,0
		C181.5,108.2,181.8,106.7,182.3,106.8"/>
	<path class="st0" d="M183.8,106c0.1,0.1,0.1,0.2,0.2,0.3c0.2,0,0.4,0,0.5-0.1c-0.1,0.4-1.8,2.1-2.1,2.2
		C182.1,106.2,182.7,107,183.8,106"/>
	<path class="st0" d="M181.7,106.6c0.1,0.1,0.2,0.1,0.3,0.2c-0.2,0.3-0.3,1.3-0.4,1.8c0,0-0.1,0.1-0.1,0.1c0-0.2,0-1.1,0-1.2
		C181.5,107.1,181.6,106.8,181.7,106.6"/>
	<path class="st0" d="M176.5,106.7c0.5,0.1,0.7,0.3,1,0.4c0,0.3,0,0.6,0,0.8c-0.3,0.2-0.5,0.6-0.9,0.6
		C175.7,108.5,176.1,107,176.5,106.7"/>
	<path class="st0" d="M185.1,114.4c-0.8-0.6-1.7-1.1-3-1.2c-0.6,0-1.3,0-1.9,0c-0.4,0.1-0.8,0.5-1.2,0.6c-1.1,0.4-2.7,0.2-3.3,1.3
		c-0.3,0.6,0.1,1.2,0.2,1.7c-0.1,0.2,0.9,4,1,4.4c0.2,0.5,0.1,1.3,0.5,1.5c0.2,0.1,0.9-0.1,1.5-0.3c-0.4,1.1-0.9,0.8-1.6,1.5
		c0,0.1,0,0.2,0,0.3c0.4,0.1,0.9,0.4,1.5,0.3c0.2,0,0.4,0,0.6,0c0.4,0,0.6-0.3,0.9-0.2c0.2,0,0,0.4,0.4,0.5c0.8,0.1,1.8,0.1,2.1-0.1
		c0.3-0.6,0-1.6,0-2.2c0,0-0.1-0.1-0.1-0.1c0.3-1.1,0.2-4.4,0-5.1c0.3-0.3,1-0.1,1.4-0.2C185.2,116.8,185.3,115.6,185.1,114.4
		 M179.8,116.8c0.2,0.3,0.1,1.8,0,2.3c0,0,0,0,0,0c-0.1-0.7-0.5-1.3-0.7-2C179.3,117,179.6,116.9,179.8,116.8"/>
	<path class="st0" d="M177.5,107.3c-0.1-0.2-0.4-0.4-0.4-0.4s-0.1-0.1-0.3-0.1c-0.1,0,0,0-0.1-0.1c0-0.2,0.3-0.9,0.3-1
		c0.1-0.1,0.1-0.2,0.3,0C178.2,106.4,177.7,106.6,177.5,107.3"/>
	<path class="st0" d="M188.2,108.7c-0.1,0.1-0.1,0.2-0.2,0.3c0,0,0,0,0,0c0.1-0.3,0.4-0.3,0.3-0.7c-0.2-0.4-1.3-0.4-1.7-0.3
		c0,0,0,0.1-0.1,0.1c-0.4-0.7-1.1-1.7-2-1.9c-0.3,0.2-0.5-0.2-0.7,0.1c-0.6,0.6-1.5,1.8-1.9,2.7c0,0-0.2,0.1-0.2,0.1
		c-0.3-0.4-0.3-2,0-2.4c0,0,0,0,0,0c-0.1-0.1-0.1-0.1-0.2-0.1c-0.3,0-0.5,0-0.8,0.1c-0.4,0.1-2.3,1.6-2.5,1.9c-0.1,0-0.1,0-0.2,0
		c0-0.1,0-0.3-0.1-0.4c-0.1-0.1-0.3-0.1-0.4-0.2c-0.1,0.4-0.6,0.7-1.1,0.7c-0.1,0.4,0,0.7,0.1,1.1c0.1,0.5,0.4,1,0.8,1.1
		c1,0.3,1.8-0.2,2.3-0.5c0.3,1-0.2,2.3-0.2,3.4c0.3-0.1,0.6-0.2,0.9-0.3c1-0.2,2.5,0,3.5,0.4c0.4,0.3,0.9,0.5,1.3,0.8
		c0-0.2,0.2-0.4,0.3-0.7c0.2-0.7,0.1-2,0.2-2.8c0.5,0.2,0.8,1.2,1.7,1c0.2-0.1,0.5-0.3,0.7-0.4c-0.1,1.8-0.1,3.7-0.2,5.5
		c-0.1,2.8-0.2,5.7-0.3,8.5c0.1,0.1,0.1,0.2,0.3,0.2c0-0.1,0.1-0.1,0.1-0.2c0-1.2,0.1-2.4,0.1-3.6c0.1-3.2,0.2-6.3,0.3-9.5
		C188.6,111.1,189,109.3,188.2,108.7 M186.5,109C186.5,109,186.5,109,186.5,109c0,0,0,0.1,0,0.2c0,0,0,0,0,0
		C186.5,109.1,186.5,109.1,186.5,109 M186.8,109.5C186.8,109.5,186.8,109.5,186.8,109.5c0-0.1,0-0.3,0.1-0.4c-0.1,0-0.1,0-0.2,0
		c0-0.1-0.1-0.1-0.1-0.2c0,0,0,0,0,0c0.1,0.2,0.1,0.2,0.3,0.2C186.8,109.3,186.8,109.4,186.8,109.5"/>
	<path class="st5" d="M186.3,109.2c0.4,0.4,0.5,0.5,1,0.5c0,0.6,0.1,0.4-0.1,0.9c-0.1,0.2-0.3,0.2-0.6,0.1c-0.8-0.3-1.4-1.8-1.8-0.5
		c-0.1,0.8,0.4,3.4,0.7,4.2c0.1,0.3-1.5-1.1-1.5-0.8c-0.4-0.3-0.2,0.3-0.6,0.1c-1-0.4-1.6-0.5-2.5-0.3c-0.3,0.1-1.4,0-1.7,0.1
		c0-1,0.7-3.7,0.4-4.7c-0.4,0.2-2,1.8-2.7,1.2c-0.3-0.2-0.5-0.3-0.6-0.7c-0.1-0.4-0.1-0.3,0-0.7c0.5,0.1,0.8-0.4,0.9-0.8
		c0.1,0.1-0.1,0.3,0.1,0.2c0.8-0.7,1.2-0.6,1.2-0.6c0.3-0.2,1.3-0.6,1.6-0.8c0.4-0.2,0.5-0.2,0.8-0.3c0.3,0,0.5,0.2,0.5,0.2
		s-0.1,0.1-0.1,0.1c-0.4,0.4-0.3,1.9,0,2.2c0,0,0.1,0,0.1-0.1c0.4-0.8,1.3-1.3,1.8-1.9c0.2-0.2,0.3-0.5,0.6-0.7
		c0.9,0.2,2.1,1.6,2.4,2.3C186.2,108.7,186.2,109.1,186.3,109.2"/>
	<path class="st5" d="M164.3,107.6c0.2,0.4-0.2,0.9,0,1.4c0.2,0.4,2,2.2,2.4,2.4c0.3,0.1,0.6,0.3,0.9,0.4c-0.1,0.2-0.1,0.6,0,0.8
		c-0.4-0.1-0.7,0-1,0c-0.2-0.1-0.5-0.1-0.7-0.2c-0.9,0.1-1.4,1.3-2,1.8c-0.9-1.6,0-1.5-0.1-2.4c-0.1-0.3-0.3-0.5-0.4-0.9
		C163.3,109.5,164,108.4,164.3,107.6"/>
	<path class="st5" d="M167.6,104.3C167.7,104.2,167.7,104.2,167.6,104.3c0,0.5,0.1,0.7,0.1,1.1c0,0.2,0.2,0.2,0.2,0.5
		c0,0.2-0.2,0.2-0.2,0.3c0,0.3-0.1,0.6-0.2,0.8c-0.2,0.3-0.6-0.2-0.7,0.3c0,0.2-0.1,0.7-0.1,0.8c-0.5-0.1-1.1-0.8-1.6-1.4
		c0.2-0.5,0.1-0.8,0.2-1.1c0.1-0.1,0.1-0.2,0.2-0.3c0.1,0,0.2,0,0.3,0c0.1,0.2,0.2,0.3,0.4,0.4c0-0.3,0-0.9,0.1-1.1
		C166.8,104.3,167.3,104.3,167.6,104.3"/>
	<path class="st0" d="M166,103.1c0.9,0,1.6,0.5,1.7,1.2c-0.3,0-1.2,0.1-1.4,0.3c0,0.4-0.1,0.8-0.1,1.2c0,0,0,0,0,0
		c-0.2-0.1-0.3-0.3-0.5-0.4c-0.1,0-0.2,0-0.2,0c-0.1,0.1-0.1,0.2-0.1,0.3c0,0.4,0,0.6-0.1,1c-0.5-0.3-1.2-2.2-0.7-3
		C164.8,103.3,165.5,103.1,166,103.1"/>
	<path class="st5" d="M169.6,106.7c0.6,0,0.9,0.7,0.8,1.4c-0.3,0.2-0.1,0.6-0.5,0.8c-0.1,0.1-0.3,0.2-0.4,0.1
		c-0.2-0.2-0.4-0.3-0.7-0.5c0-0.2,0-0.5,0-0.7C169.5,107.8,169.3,107,169.6,106.7"/>
	<path class="st0" d="M169.8,105.5c0.2-0.1,0.3,0,0.3,0.1c0,0.2,0.2,1,0.1,1.2c0,0.1-0.1,0.1-0.1,0.1c-0.1-0.1-0.3-0.2-0.3-0.2
		s-0.2,0.3-0.4,0.5C169.2,106.4,168.9,106.1,169.8,105.5"/>
	<path class="st0" d="M172.9,115.4c-0.1-0.1-0.3-0.2-0.4-0.3c0,0,0,0,0,0c0.2-0.1,0.2-0.6,0.2-0.9c-1-1.9-3.8-0.3-5-1.6
		c-0.3-0.1-0.5-0.1-0.8-0.2c-0.3,0.3-0.5-0.1-1.1,0c-0.6,0.1-1.7,0.9-1.8,1.5c-0.1,0.5,0.2,0.4,0.3,0.6c0.9,0.4,2.4,0.5,2.9,1.3
		c0.4,0.6-0.7,3.5,0,4.3c-0.1,0.2-0.2,0.2-0.2,0.3c-0.1,0.4,0.3,0.6,0.2,1.1c-0.2,0.4-0.3,1.1-0.3,1.6c0.1,0.1,0.4,0.2,0.7,0.2
		c0.1-0.1,0.2-0.2,0.4-0.1c0.2,0.1,0.4,0.1,0.5,0.2c0.7,0,1.5-0.1,1.6-0.3c0,0,0,0,0,0c0-0.8-0.7-0.5-1-0.9
		c-0.2-0.2-0.3-0.3-0.4-0.6l0-0.3c0.1,0,0.1,0,0.2-0.1c0,0,0.1-0.1,0.1-0.1c0.1-0.7-0.1-1.8,0.1-2.5c0.3-1.5,0.1-2,0.3-3.2
		c0.2,0,0.5,0.1,0.8,0.1c0,0.8,0.7,0.8,1.5,1.2c1,0.4,2.9,0.7,2.9-0.3C174.4,115.9,173.7,115.8,172.9,115.4"/>
	<path class="st0" d="M170.6,108.1c-0.1,0-0.1,0-0.2-0.1c-0.2,0.2-0.3,0.3-0.3,0.8c-0.2,0.1-0.3,0.1-0.5,0.2
		c-0.2-0.2-0.5-0.3-0.7-0.5c0-0.2,0-0.4,0-0.6c-0.7-0.2-2.5-1.2-2.2,0.3c-0.7-0.1-1-1.1-1.7-1.3c-0.4,0.4-0.7,0.8-0.8,1.1l0,0
		c0,0-0.2,0.7-0.3,1.8c0,1,0.3,2.3,0.3,2.3l0-2l0.3-0.9c0.3,0.4,0.7,0.7,1.1,1.1c0.3,0.3,0.7,0.7,1,1c0.3,0.1,0.6,0.4,0.9,0.4
		c0.6,0.1,1.5-1.7,2.1-2.2c0.3-0.2,0.8,0.1,1.2-0.3C171,108.9,170.9,108.4,170.6,108.1"/>
	<path class="st6" d="M159.6,109.6c-2.1-1.2-5.8-0.4-5.8-0.4s1.8-2.7,0-5.1c-1.8-2.4-8.8,0.9-8.8,0.9s0.9-5.4-2.5-7.4
		c-4.1-2.5-9.4,4.4-9.4,4.4s-2.6-6.4-8.8-4c-5.8,2.3-11,11.4-11,11.4s0.9-5.7-3.3-7.3c-2.4-1-4.9,1.2-6.6,3.7c-2,3-3,6.4-3,6.4
		s0.1-1.1-2.6-1.1c-2.6,0-4.3,4.6-4.3,4.6s11.7-3.4,27.2-4.4c21.6-1.5,40.5,0.7,40.5,0.7S161.7,110.8,159.6,109.6"/>
	<path class="st3" d="M140.2,105.2c0.2-0.3,0.3-0.7,0.5-1.1c0.2-0.5,0.3-1,0.4-1.5c0.1-0.3,0.2-0.9,0-1.1h0c-0.1,0.3-0.2,0.7-0.3,1
		c-0.3,0.7-0.5,1.4-0.9,2c-0.3,0.5-0.6,0.9-0.8,1.4c-0.2,0.3-0.5,0.6-0.7,0.9c-0.3,0.3-0.6,0.6-0.8,0.9c-0.1,0.1-0.2,0.2-0.3,0.3
		c-0.2,0.3-0.6,0.6-0.9,0.9c-0.2,0.2-0.4,0.4-0.7,0.6c-0.3,0.3-0.9,0.6-1.4,0.9c0.5,0,1,0,1.4,0
		C137.5,109.1,139.3,107.3,140.2,105.2"/>
	<path class="st3" d="M120.6,111.3c0.5-0.4,1-0.9,1.4-1.3c0.4-0.3,0.7-0.7,1.1-1.1c0.4-0.3,0.7-0.7,1-1c0.3-0.3,0.6-0.6,0.9-1
		c0.6-0.8,1.2-1.6,1.7-2.5c0.6-1,1.1-2,1.5-3.2c0.1-0.3,0.4-1,0.3-1.4c0,0,0,0,0,0c-0.2,0.1-0.2,0.4-0.3,0.6c-0.2,0.5-0.5,1-0.7,1.5
		c-0.4,0.6-0.7,1.3-1,1.8c-0.5,0.8-1,1.5-1.6,2.2c-0.2,0.3-0.4,0.5-0.7,0.8c-0.3,0.4-0.6,0.7-1,1.1c-0.4,0.4-0.8,0.8-1.3,1.2
		c-0.8,0.8-1.7,1.6-2.5,2.3c0,0-0.1,0.1-0.1,0.1C119.8,111.4,120.2,111.3,120.6,111.3"/>
	<path class="st3" d="M98.1,114.7c0,0-0.1,0-0.1,0c0-0.3,0.1-0.7,0.1-0.7c0-0.6-0.3-0.3-0.4-0.2c-0.1,0.2-0.2,0.6-0.3,1
		c0,0.1,0,0.1,0,0.2c0.2,0,0.4-0.1,0.6-0.1C98.1,114.8,98.1,114.7,98.1,114.7"/>
	<path class="st3" d="M108.6,107.4c-0.1-0.2-0.1-0.5-0.2-0.6c0,0,0,0,0,0c-0.2,0.3,0,0.8-0.1,1.2c-0.1,0.6,0,1.3-0.2,1.9
		c-0.2,1.1-0.4,2.2-0.7,3.1l0.9-0.2c0.1-0.5,0.2-1,0.3-1.5c0-0.4,0.1-0.7,0.1-1.1c0.1-0.5,0.1-1.4,0-1.9
		C108.6,108,108.6,107.7,108.6,107.4"/>
	<path class="st3" d="M152.7,106.3c-0.1,0-0.4,0.2-0.5,0.3c-0.4,0.4-0.8,0.7-1.2,1.1c-0.5,0.4-1.1,0.9-1.6,1.4
		c-0.6,0.4-1.2,0.8-1.7,1.2c-0.3,0.2-0.6,0.4-0.8,0.5c0,0,0,0,0,0c-0.2,0.1-0.3,0.2-0.6,0.4l1.4,0.1c0.1-0.1,0.3-0.2,0.4-0.3
		c0,0,0,0,0.1-0.1h0c0.7-0.5,1.5-1.1,2.2-1.7c0.4-0.3,0.7-0.7,1.1-1.1c0.4-0.4,0.7-0.8,1-1.2C152.5,106.8,152.7,106.6,152.7,106.3
		C152.7,106.4,152.7,106.4,152.7,106.3"/>
</g>
</svg>
