<svg enable-background="new 0 0 198.4 255.1" version="1.1" viewBox="0 0 198.4 255.1" xml:space="preserve" xmlns="http://www.w3.org/2000/svg">
<style type="text/css">
	.st0{fill:#FFFFFF;}
</style>
<title>Standortmarker</title>
<g fill="#fff">
	<g fill="#fff">
		<path class="st0" d="m194.7 101.2c0.5-53.3-42.2-97-95.6-97.5s-96.9 42.2-97.5 95.5v2c0 68.4 48.6 110.4 95.7 149.8 52.3-43.8 97.4-83.2 97.4-149.8m-32.9 2.8c0 35.1-28.5 63.6-63.6 63.6s-63.6-28.5-63.6-63.6 28.4-63.6 63.6-63.6c35.1 0 63.5 28.5 63.6 63.6m-26.6 0c0-20.4-16.6-37-37-37s-37 16.6-37 37 16.6 37 37 37 37-16.6 37-37" fill="#fff"/>
	</g>
</g>
</svg>
