<?xml version="1.0" encoding="utf-8"?>
<!-- Generator: Adobe Illustrator 25.2.3, SVG Export Plug-In . SVG Version: 6.00 Build 0)  -->
<svg version="1.1" id="Ebene_1" xmlns="http://www.w3.org/2000/svg" xmlns:xlink="http://www.w3.org/1999/xlink" x="0px" y="0px"
	 viewBox="0 0 282.7 63.6" style="enable-background:new 0 0 282.7 63.6;" xml:space="preserve">
<style type="text/css">
	.st0{fill:none;stroke:#F4A310;stroke-width:2;stroke-miterlimit:10;}
	.st1{fill:none;stroke:#DE507D;stroke-width:2;stroke-miterlimit:10;}
	.st2{fill:none;stroke:#049A1A;stroke-width:2;stroke-miterlimit:10;}
	.st3{fill:none;stroke:#0AD6CD;stroke-width:2;stroke-miterlimit:10;}
	.st4{fill:#FFFFFF;}
	.st5{enable-background:new    ;}
</style>
<rect id="Rechteck_489" x="11.2" y="5.7" class="st0" width="18.8" height="51.3"/>
<path id="Pfad_1239" class="st1" d="M41,57H22.2V11.2L41,18.8V57z"/>
<path id="Pfad_1240" class="st2" d="M49.5,57H36.4V27.4l13.1,5.3L49.5,57z"/>
<path id="Pfad_1241" class="st3" d="M14.1,57H1V32.8l13.1-6.9V57z"/>
<rect id="Rechteck_490" x="64.9" y="5" class="st4" width="1.7" height="52.2"/>
<g class="st5">
	<path class="st4" d="M86.9,20.8l4.4-0.4c0.3,1.5,0.8,2.5,1.6,3.2c0.8,0.7,1.9,1,3.2,1c1.4,0,2.5-0.3,3.3-0.9
		c0.7-0.6,1.1-1.3,1.1-2.1c0-0.5-0.2-1-0.5-1.3c-0.3-0.4-0.8-0.7-1.6-1c-0.5-0.2-1.7-0.5-3.6-1c-2.4-0.6-4.1-1.3-5.1-2.2
		c-1.4-1.2-2-2.7-2-4.5c0-1.1,0.3-2.2,1-3.2c0.6-1,1.6-1.7,2.8-2.2c1.2-0.5,2.7-0.8,4.4-0.8c2.8,0,4.9,0.6,6.3,1.8
		c1.4,1.2,2.1,2.9,2.2,4.9l-4.5,0.2c-0.2-1.1-0.6-2-1.2-2.5c-0.6-0.5-1.6-0.7-2.8-0.7c-1.3,0-2.3,0.3-3.1,0.8
		c-0.5,0.3-0.7,0.8-0.7,1.4c0,0.5,0.2,1,0.7,1.3c0.6,0.5,1.9,1,4.1,1.5c2.2,0.5,3.8,1,4.8,1.6c1,0.5,1.9,1.3,2.5,2.3
		c0.6,1,0.9,2.1,0.9,3.5c0,1.3-0.4,2.5-1.1,3.6c-0.7,1.1-1.7,1.9-3,2.5c-1.3,0.5-2.9,0.8-4.8,0.8c-2.8,0-5-0.6-6.5-1.9
		C88.1,25.2,87.2,23.3,86.9,20.8z"/>
	<path class="st4" d="M108.6,28V5.8h6.7l4,15.1l4-15.1h6.7V28h-4.2V10.5L121.5,28h-4.3l-4.4-17.5V28H108.6z"/>
	<path class="st4" d="M154.5,28h-4.9l-1.9-5h-8.9l-1.8,5h-4.8l8.6-22.2h4.7L154.5,28z M146.3,19.2l-3.1-8.2l-3,8.2H146.3z"/>
	<path class="st4" d="M156.9,28V5.8h9.4c2.4,0,4.1,0.2,5.2,0.6c1.1,0.4,1.9,1.1,2.6,2.1c0.6,1,1,2.2,1,3.5c0,1.7-0.5,3-1.5,4.1
		c-1,1.1-2.4,1.8-4.4,2.1c1,0.6,1.8,1.2,2.4,1.9s1.5,1.9,2.6,3.6l2.7,4.3h-5.4l-3.2-4.8c-1.2-1.7-1.9-2.8-2.4-3.3
		c-0.4-0.4-0.9-0.8-1.3-0.9c-0.5-0.2-1.2-0.2-2.3-0.2h-0.9V28H156.9z M161.4,15.2h3.3c2.1,0,3.5-0.1,4-0.3c0.5-0.2,1-0.5,1.3-0.9
		s0.5-1,0.5-1.7c0-0.7-0.2-1.3-0.6-1.8s-1-0.8-1.7-0.9c-0.4,0-1.5-0.1-3.3-0.1h-3.5V15.2z"/>
	<path class="st4" d="M184.3,28V9.6h-6.6V5.8h17.6v3.8h-6.6V28H184.3z"/>
	<path class="st4" d="M221,19.8l4.3,1.4c-0.7,2.4-1.8,4.2-3.3,5.4c-1.5,1.2-3.5,1.8-5.9,1.8c-2.9,0-5.4-1-7.3-3
		c-1.9-2-2.8-4.8-2.8-8.3c0-3.7,1-6.6,2.9-8.6c1.9-2,4.4-3.1,7.5-3.1c2.7,0,4.9,0.8,6.6,2.4c1,0.9,1.8,2.3,2.3,4.1l-4.4,1.1
		c-0.3-1.2-0.8-2.1-1.6-2.7c-0.8-0.7-1.8-1-3-1c-1.6,0-3,0.6-4,1.8c-1,1.2-1.5,3.1-1.5,5.7c0,2.8,0.5,4.8,1.5,6
		c1,1.2,2.3,1.8,3.9,1.8c1.2,0,2.2-0.4,3.1-1.1C220,22.7,220.6,21.5,221,19.8z"/>
	<path class="st4" d="M229.1,28V5.8h4.5V28H229.1z"/>
	<path class="st4" d="M242.8,28V9.6h-6.6V5.8h17.6v3.8h-6.6V28H242.8z"/>
	<path class="st4" d="M262.6,28v-9.3l-8.1-12.9h5.3l5.2,8.8l5.1-8.8h5.2L267,18.7V28H262.6z"/>
</g>
<g class="st5">
	<path class="st4" d="M88.1,56.6V34.4h7.6c1.7,0,3,0.1,4,0.3c1.3,0.3,2.4,0.8,3.3,1.6c1.2,1,2,2.3,2.6,3.8c0.6,1.5,0.9,3.3,0.9,5.3
		c0,1.7-0.2,3.2-0.6,4.5c-0.4,1.3-0.9,2.4-1.5,3.2c-0.6,0.9-1.3,1.5-2,2c-0.7,0.5-1.6,0.9-2.6,1.1c-1,0.3-2.2,0.4-3.6,0.4H88.1z
		 M91.1,54h4.7c1.5,0,2.6-0.1,3.4-0.4c0.8-0.3,1.5-0.7,2-1.2c0.7-0.7,1.2-1.6,1.6-2.8c0.4-1.2,0.6-2.6,0.6-4.3
		c0-2.3-0.4-4.1-1.1-5.4c-0.8-1.2-1.7-2.1-2.8-2.5c-0.8-0.3-2.1-0.5-3.8-0.5h-4.7V54z"/>
	<path class="st4" d="M108.1,56.6l8.5-22.2h3.2l9.1,22.2h-3.3l-2.6-6.7h-9.3l-2.4,6.7H108.1z M114.5,47.5h7.5l-2.3-6.1
		c-0.7-1.9-1.2-3.4-1.6-4.6c-0.3,1.4-0.7,2.8-1.2,4.2L114.5,47.5z"/>
	<path class="st4" d="M130.2,49.4l2.8-0.2c0.1,1.1,0.4,2,0.9,2.7c0.5,0.7,1.2,1.3,2.2,1.7c1,0.4,2.1,0.7,3.4,0.7
		c1.1,0,2.1-0.2,3-0.5c0.9-0.3,1.5-0.8,1.9-1.4s0.6-1.2,0.6-1.9c0-0.7-0.2-1.3-0.6-1.8c-0.4-0.5-1.1-1-2-1.3c-0.6-0.2-1.9-0.6-4-1.1
		c-2-0.5-3.5-1-4.3-1.4c-1.1-0.6-1.8-1.2-2.4-2.1c-0.5-0.8-0.8-1.7-0.8-2.8c0-1.1,0.3-2.2,1-3.1c0.6-1,1.6-1.7,2.8-2.2
		c1.2-0.5,2.6-0.8,4.1-0.8c1.6,0,3.1,0.3,4.4,0.8c1.3,0.5,2.2,1.3,2.9,2.3c0.7,1,1,2.2,1.1,3.5l-2.8,0.2c-0.2-1.4-0.7-2.5-1.5-3.2
		c-0.9-0.7-2.2-1.1-3.9-1.1c-1.8,0-3.1,0.3-3.9,1c-0.8,0.7-1.2,1.4-1.2,2.4c0,0.8,0.3,1.5,0.9,2c0.6,0.5,2,1,4.4,1.6
		c2.4,0.5,4,1,4.9,1.4c1.3,0.6,2.2,1.3,2.9,2.3c0.6,0.9,0.9,2,0.9,3.2c0,1.2-0.3,2.3-1,3.3s-1.6,1.9-2.9,2.4
		c-1.3,0.6-2.7,0.9-4.3,0.9c-2,0-3.7-0.3-5-0.9c-1.4-0.6-2.4-1.5-3.2-2.6C130.6,52.3,130.2,50.9,130.2,49.4z"/>
	<path class="st4" d="M152,56.6V34.4h2.9v9.1h11.5v-9.1h2.9v22.2h-2.9V46.1h-11.5v10.5H152z"/>
	<path class="st4" d="M174.1,56.6V34.4h8.3c1.7,0,3.1,0.2,4.1,0.7s1.8,1.1,2.4,2.1c0.6,0.9,0.9,1.9,0.9,2.9c0,0.9-0.3,1.8-0.8,2.7
		s-1.3,1.5-2.3,2c1.3,0.4,2.4,1.1,3.1,2c0.7,0.9,1.1,2.1,1.1,3.4c0,1-0.2,2-0.7,2.9c-0.4,0.9-1,1.6-1.6,2.1
		c-0.6,0.5-1.5,0.8-2.4,1.1s-2.2,0.4-3.6,0.4H174.1z M177.1,43.7h4.8c1.3,0,2.2-0.1,2.8-0.3c0.7-0.2,1.3-0.6,1.7-1.1
		c0.4-0.5,0.6-1.2,0.6-1.9c0-0.7-0.2-1.4-0.5-1.9c-0.4-0.6-0.9-0.9-1.5-1.2c-0.7-0.2-1.8-0.3-3.4-0.3h-4.4V43.7z M177.1,54h5.5
		c0.9,0,1.6,0,2-0.1c0.7-0.1,1.2-0.3,1.7-0.6c0.5-0.3,0.8-0.7,1.1-1.2c0.3-0.5,0.4-1.2,0.4-1.9c0-0.8-0.2-1.5-0.6-2.2
		c-0.4-0.6-1-1-1.8-1.3s-1.8-0.4-3.2-0.4h-5.1V54z"/>
	<path class="st4" d="M194,45.8c0-3.7,1-6.6,3-8.7s4.5-3.1,7.7-3.1c2,0,3.9,0.5,5.5,1.5c1.6,1,2.9,2.3,3.8,4.1
		c0.9,1.8,1.3,3.7,1.3,6c0,2.2-0.5,4.3-1.4,6c-0.9,1.8-2.2,3.1-3.9,4c-1.7,0.9-3.5,1.4-5.4,1.4c-2.1,0-4-0.5-5.6-1.5
		c-1.6-1-2.9-2.4-3.7-4.1S194,47.7,194,45.8z M197.1,45.8c0,2.7,0.7,4.8,2.2,6.3c1.4,1.5,3.2,2.3,5.4,2.3c2.2,0,4-0.8,5.5-2.3
		c1.4-1.6,2.1-3.8,2.1-6.6c0-1.8-0.3-3.4-0.9-4.7c-0.6-1.3-1.5-2.4-2.7-3.1c-1.2-0.7-2.5-1.1-4-1.1c-2.1,0-3.9,0.7-5.4,2.1
		C197.8,40.1,197.1,42.5,197.1,45.8z"/>
	<path class="st4" d="M216.6,56.6l8.5-22.2h3.2l9.1,22.2H234l-2.6-6.7h-9.3l-2.4,6.7H216.6z M223,47.5h7.5l-2.3-6.1
		c-0.7-1.9-1.2-3.4-1.6-4.6c-0.3,1.4-0.7,2.8-1.2,4.2L223,47.5z"/>
	<path class="st4" d="M239.8,56.6V34.4h9.8c2,0,3.5,0.2,4.5,0.6c1,0.4,1.9,1.1,2.5,2.1c0.6,1,0.9,2.1,0.9,3.3c0,1.6-0.5,2.9-1.5,4
		c-1,1.1-2.6,1.8-4.7,2.1c0.8,0.4,1.4,0.7,1.8,1.1c0.9,0.8,1.7,1.8,2.4,3l3.9,6h-3.7l-2.9-4.6c-0.9-1.3-1.6-2.4-2.1-3.1
		c-0.6-0.7-1.1-1.2-1.5-1.5c-0.4-0.3-0.9-0.5-1.3-0.6c-0.3-0.1-0.9-0.1-1.6-0.1h-3.4v9.9H239.8z M242.7,44.2h6.3
		c1.3,0,2.4-0.1,3.1-0.4c0.8-0.3,1.3-0.7,1.7-1.3c0.4-0.6,0.6-1.3,0.6-2c0-1-0.4-1.9-1.1-2.6c-0.8-0.7-2-1-3.6-1h-7V44.2z"/>
	<path class="st4" d="M262.1,56.6V34.4h7.6c1.7,0,3,0.1,4,0.3c1.3,0.3,2.4,0.8,3.3,1.6c1.2,1,2,2.3,2.6,3.8c0.6,1.5,0.9,3.3,0.9,5.3
		c0,1.7-0.2,3.2-0.6,4.5c-0.4,1.3-0.9,2.4-1.5,3.2c-0.6,0.9-1.3,1.5-2,2c-0.7,0.5-1.6,0.9-2.6,1.1c-1,0.3-2.2,0.4-3.6,0.4H262.1z
		 M265.1,54h4.7c1.5,0,2.6-0.1,3.4-0.4c0.8-0.3,1.5-0.7,2-1.2c0.7-0.7,1.2-1.6,1.6-2.8s0.6-2.6,0.6-4.3c0-2.3-0.4-4.1-1.1-5.4
		c-0.8-1.2-1.7-2.1-2.8-2.5c-0.8-0.3-2.1-0.5-3.8-0.5h-4.7V54z"/>
</g>
</svg>
